<?xml version="1.0" encoding="utf-8"?>
<!-- Generator: Adobe Illustrator 22.1.0, SVG Export Plug-In . SVG Version: 6.00 Build 0)  -->
<svg version="1.1" id="Layer_1" xmlns="http://www.w3.org/2000/svg" xmlns:xlink="http://www.w3.org/1999/xlink" x="0px" y="0px"
	 viewBox="0 0 288.5 288.5" style="enable-background:new 0 0 288.5 288.5;" xml:space="preserve">
<style type="text/css">
	.st0{clip-path:url(#SVGID_2_);}
	.st1{opacity:0.3;}
	.st2{fill:#6C757D;}
</style>
<g>
	<g>
		<g>
			<defs>
				<circle id="SVGID_1_" cx="144.2" cy="144.2" r="144.2"/>
			</defs>
			<clipPath id="SVGID_2_">
				<use xlink:href="#SVGID_1_"  style="overflow:visible;"/>
			</clipPath>
			<g class="st0">
				<g class="st1">
					<g>
						<rect x="-82.8" y="95.4" class="st2" width="4.1" height="4"/>
						<rect x="-64.9" y="95.4" class="st2" width="4.1" height="4"/>
						<rect x="-47" y="95.4" class="st2" width="4.1" height="4"/>
						<rect x="-28.9" y="95.4" class="st2" width="4.1" height="4"/>
						<rect x="-9.8" y="95.5" class="st2" width="4.1" height="4"/>
						<rect x="8" y="95.5" class="st2" width="4.1" height="4"/>
						<rect x="26.2" y="95.5" class="st2" width="4.1" height="4"/>
						<rect x="44.1" y="95.5" class="st2" width="4.1" height="4"/>
						<rect x="62.1" y="95.5" class="st2" width="4.1" height="4"/>
						<rect x="80.1" y="95.5" class="st2" width="4.1" height="4"/>
						<rect x="98.2" y="95.5" class="st2" width="4.1" height="4"/>
						<rect x="116.1" y="95.6" class="st2" width="4.1" height="4"/>
						<rect x="132.1" y="95.6" class="st2" width="4.1" height="4"/>
					</g>
					<g>
						<rect x="-82.8" y="113.9" class="st2" width="4.1" height="4"/>
						<rect x="-64.9" y="113.9" class="st2" width="4.1" height="4"/>
						<rect x="-47" y="113.9" class="st2" width="4.1" height="4"/>
						<rect x="-28.9" y="113.9" class="st2" width="4.1" height="4"/>
						<rect x="-9.8" y="114" class="st2" width="4.1" height="4"/>
						<rect x="8" y="114" class="st2" width="4.1" height="4"/>
						<rect x="26.2" y="114" class="st2" width="4.1" height="4"/>
						<rect x="44.1" y="114" class="st2" width="4.1" height="4"/>
						<rect x="62.1" y="114" class="st2" width="4.1" height="4"/>
						<rect x="80.1" y="114" class="st2" width="4.1" height="4"/>
						<rect x="98.2" y="114" class="st2" width="4.1" height="4"/>
						<rect x="116.1" y="114.1" class="st2" width="4.1" height="4"/>
						<rect x="132.1" y="114.1" class="st2" width="4.1" height="4"/>
					</g>
					<g>
						<rect x="-82.8" y="130.4" class="st2" width="4.1" height="4"/>
						<rect x="-64.9" y="130.4" class="st2" width="4.1" height="4"/>
						<rect x="-47" y="130.4" class="st2" width="4.1" height="4"/>
						<rect x="-28.9" y="130.4" class="st2" width="4.1" height="4"/>
						<rect x="-9.8" y="130.5" class="st2" width="4.1" height="4"/>
						<rect x="8" y="130.5" class="st2" width="4.1" height="4"/>
						<rect x="26.2" y="130.5" class="st2" width="4.1" height="4"/>
						<rect x="44.1" y="130.5" class="st2" width="4.1" height="4"/>
						<rect x="62.1" y="130.5" class="st2" width="4.1" height="4"/>
						<rect x="80.1" y="130.5" class="st2" width="4.1" height="4"/>
						<rect x="98.2" y="130.5" class="st2" width="4.1" height="4"/>
						<rect x="116.1" y="130.6" class="st2" width="4.1" height="4"/>
						<rect x="132.1" y="130.6" class="st2" width="4.1" height="4"/>
					</g>
					<g>
						<rect x="-82.8" y="58.4" class="st2" width="4.1" height="4"/>
						<rect x="-64.9" y="58.4" class="st2" width="4.1" height="4"/>
						<rect x="-47" y="58.4" class="st2" width="4.1" height="4"/>
						<rect x="-28.9" y="58.4" class="st2" width="4.1" height="4"/>
						<rect x="-9.8" y="58.5" class="st2" width="4.1" height="4"/>
						<rect x="8" y="58.5" class="st2" width="4.1" height="4"/>
						<rect x="26.2" y="58.5" class="st2" width="4.1" height="4"/>
						<rect x="44.1" y="58.5" class="st2" width="4.1" height="4"/>
						<rect x="62.1" y="58.5" class="st2" width="4.1" height="4"/>
						<rect x="80.1" y="58.5" class="st2" width="4.1" height="4"/>
						<rect x="98.2" y="58.5" class="st2" width="4.1" height="4"/>
						<rect x="116.1" y="58.6" class="st2" width="4.1" height="4"/>
						<rect x="132.1" y="58.6" class="st2" width="4.1" height="4"/>
					</g>
					<g>
						<rect x="-82.8" y="76.9" class="st2" width="4.1" height="4"/>
						<rect x="-64.9" y="76.9" class="st2" width="4.1" height="4"/>
						<rect x="-47" y="76.9" class="st2" width="4.1" height="4"/>
						<rect x="-28.9" y="76.9" class="st2" width="4.1" height="4"/>
						<rect x="-9.8" y="77" class="st2" width="4.1" height="4"/>
						<rect x="8" y="77" class="st2" width="4.1" height="4"/>
						<rect x="26.2" y="77" class="st2" width="4.1" height="4"/>
						<rect x="44.1" y="77" class="st2" width="4.1" height="4"/>
						<rect x="62.1" y="77" class="st2" width="4.1" height="4"/>
						<rect x="80.1" y="77" class="st2" width="4.1" height="4"/>
						<rect x="98.2" y="77" class="st2" width="4.1" height="4"/>
						<rect x="116.1" y="77.1" class="st2" width="4.1" height="4"/>
						<rect x="132.1" y="77.1" class="st2" width="4.1" height="4"/>
					</g>
					<g>
						<rect x="-82.8" y="21.4" class="st2" width="4.1" height="4"/>
						<rect x="-64.9" y="21.4" class="st2" width="4.1" height="4"/>
						<rect x="-47" y="21.4" class="st2" width="4.1" height="4"/>
						<rect x="-28.9" y="21.4" class="st2" width="4.1" height="4"/>
						<rect x="-9.8" y="21.5" class="st2" width="4.1" height="4"/>
						<rect x="8" y="21.5" class="st2" width="4.1" height="4"/>
						<rect x="26.2" y="21.5" class="st2" width="4.1" height="4"/>
						<rect x="44.1" y="21.5" class="st2" width="4.1" height="4"/>
						<rect x="62.1" y="21.5" class="st2" width="4.1" height="4"/>
						<rect x="80.1" y="21.5" class="st2" width="4.1" height="4"/>
						<rect x="98.2" y="21.5" class="st2" width="4.1" height="4"/>
						<rect x="116.1" y="21.6" class="st2" width="4.1" height="4"/>
						<rect x="132.1" y="21.6" class="st2" width="4.1" height="4"/>
					</g>
					<g>
						<rect x="-82.8" y="39.9" class="st2" width="4.1" height="4"/>
						<rect x="-64.9" y="39.9" class="st2" width="4.1" height="4"/>
						<rect x="-47" y="39.9" class="st2" width="4.1" height="4"/>
						<rect x="-28.9" y="39.9" class="st2" width="4.1" height="4"/>
						<rect x="-9.8" y="40" class="st2" width="4.1" height="4"/>
						<rect x="8" y="40" class="st2" width="4.1" height="4"/>
						<rect x="26.2" y="40" class="st2" width="4.1" height="4"/>
						<rect x="44.1" y="40" class="st2" width="4.1" height="4"/>
						<rect x="62.1" y="40" class="st2" width="4.1" height="4"/>
						<rect x="80.1" y="40" class="st2" width="4.1" height="4"/>
						<rect x="98.2" y="40" class="st2" width="4.1" height="4"/>
						<rect x="116.1" y="40.1" class="st2" width="4.1" height="4"/>
						<rect x="132.1" y="40.1" class="st2" width="4.1" height="4"/>
					</g>
					<g>
						<rect x="-82.8" y="-15.6" class="st2" width="4.1" height="4"/>
						<rect x="-64.9" y="-15.6" class="st2" width="4.1" height="4"/>
						<rect x="-47" y="-15.6" class="st2" width="4.1" height="4"/>
						<rect x="-28.9" y="-15.6" class="st2" width="4.1" height="4"/>
						<rect x="-9.8" y="-15.5" class="st2" width="4.1" height="4"/>
						<rect x="8" y="-15.5" class="st2" width="4.1" height="4"/>
						<rect x="26.2" y="-15.5" class="st2" width="4.1" height="4"/>
						<rect x="44.1" y="-15.5" class="st2" width="4.1" height="4"/>
						<rect x="62.1" y="-15.5" class="st2" width="4.1" height="4"/>
						<rect x="80.1" y="-15.5" class="st2" width="4.1" height="4"/>
						<rect x="98.2" y="-15.5" class="st2" width="4.1" height="4"/>
						<rect x="116.1" y="-15.4" class="st2" width="4.1" height="4"/>
						<rect x="132.1" y="-15.4" class="st2" width="4.1" height="4"/>
					</g>
					<g>
						<rect x="-82.8" y="2.9" class="st2" width="4.1" height="4"/>
						<rect x="-64.9" y="2.9" class="st2" width="4.1" height="4"/>
						<rect x="-47" y="2.9" class="st2" width="4.1" height="4"/>
						<rect x="-28.9" y="2.9" class="st2" width="4.1" height="4"/>
						<rect x="-9.8" y="3" class="st2" width="4.1" height="4"/>
						<rect x="8" y="3" class="st2" width="4.1" height="4"/>
						<rect x="26.2" y="3" class="st2" width="4.1" height="4"/>
						<rect x="44.1" y="3" class="st2" width="4.1" height="4"/>
						<rect x="62.1" y="3" class="st2" width="4.1" height="4"/>
						<rect x="80.1" y="3" class="st2" width="4.1" height="4"/>
						<rect x="98.2" y="3" class="st2" width="4.1" height="4"/>
						<rect x="116.1" y="3.1" class="st2" width="4.1" height="4"/>
						<rect x="132.1" y="3.1" class="st2" width="4.1" height="4"/>
					</g>
					<g>
						<rect x="-82.8" y="-52.6" class="st2" width="4.1" height="4"/>
						<rect x="-64.9" y="-52.6" class="st2" width="4.1" height="4"/>
						<rect x="-47" y="-52.6" class="st2" width="4.1" height="4"/>
						<rect x="-28.9" y="-52.6" class="st2" width="4.1" height="4"/>
						<rect x="-9.8" y="-52.5" class="st2" width="4.1" height="4"/>
						<rect x="8" y="-52.5" class="st2" width="4.1" height="4"/>
						<rect x="26.2" y="-52.5" class="st2" width="4.1" height="4"/>
						<rect x="44.1" y="-52.5" class="st2" width="4.1" height="4"/>
						<rect x="62.1" y="-52.5" class="st2" width="4.1" height="4"/>
						<rect x="80.1" y="-52.5" class="st2" width="4.1" height="4"/>
						<rect x="98.2" y="-52.5" class="st2" width="4.1" height="4"/>
						<rect x="116.1" y="-52.4" class="st2" width="4.1" height="4"/>
						<rect x="132.1" y="-52.4" class="st2" width="4.1" height="4"/>
					</g>
					<g>
						<rect x="-82.8" y="-34.1" class="st2" width="4.1" height="4"/>
						<rect x="-64.9" y="-34.1" class="st2" width="4.1" height="4"/>
						<rect x="-47" y="-34.1" class="st2" width="4.1" height="4"/>
						<rect x="-28.9" y="-34.1" class="st2" width="4.1" height="4"/>
						<rect x="-9.8" y="-34" class="st2" width="4.1" height="4"/>
						<rect x="8" y="-34" class="st2" width="4.1" height="4"/>
						<rect x="26.2" y="-34" class="st2" width="4.1" height="4"/>
						<rect x="44.1" y="-34" class="st2" width="4.1" height="4"/>
						<rect x="62.1" y="-34" class="st2" width="4.1" height="4"/>
						<rect x="80.1" y="-34" class="st2" width="4.1" height="4"/>
						<rect x="98.2" y="-34" class="st2" width="4.1" height="4"/>
						<rect x="116.1" y="-33.9" class="st2" width="4.1" height="4"/>
						<rect x="132.1" y="-33.9" class="st2" width="4.1" height="4"/>
					</g>
					<g>
						<rect x="-82.8" y="-89.6" class="st2" width="4.1" height="4"/>
						<rect x="-64.9" y="-89.6" class="st2" width="4.1" height="4"/>
						<rect x="-47" y="-89.6" class="st2" width="4.1" height="4"/>
						<rect x="-28.9" y="-89.6" class="st2" width="4.1" height="4"/>
						<rect x="-9.8" y="-89.5" class="st2" width="4.1" height="4"/>
						<rect x="8" y="-89.5" class="st2" width="4.1" height="4"/>
						<rect x="26.2" y="-89.5" class="st2" width="4.1" height="4"/>
						<rect x="44.1" y="-89.5" class="st2" width="4.1" height="4"/>
						<rect x="62.1" y="-89.5" class="st2" width="4.1" height="4"/>
						<rect x="80.1" y="-89.5" class="st2" width="4.1" height="4"/>
						<rect x="98.2" y="-89.5" class="st2" width="4.1" height="4"/>
						<rect x="116.1" y="-89.4" class="st2" width="4.1" height="4"/>
						<rect x="132.1" y="-89.4" class="st2" width="4.1" height="4"/>
					</g>
					<g>
						<rect x="-82.8" y="-71.1" class="st2" width="4.1" height="4"/>
						<rect x="-64.9" y="-71.1" class="st2" width="4.1" height="4"/>
						<rect x="-47" y="-71.1" class="st2" width="4.1" height="4"/>
						<rect x="-28.9" y="-71.1" class="st2" width="4.1" height="4"/>
						<rect x="-9.8" y="-71" class="st2" width="4.1" height="4"/>
						<rect x="8" y="-71" class="st2" width="4.1" height="4"/>
						<rect x="26.2" y="-71" class="st2" width="4.1" height="4"/>
						<rect x="44.1" y="-71" class="st2" width="4.1" height="4"/>
						<rect x="62.1" y="-71" class="st2" width="4.1" height="4"/>
						<rect x="80.1" y="-71" class="st2" width="4.1" height="4"/>
						<rect x="98.2" y="-71" class="st2" width="4.1" height="4"/>
						<rect x="116.1" y="-70.9" class="st2" width="4.1" height="4"/>
						<rect x="132.1" y="-70.9" class="st2" width="4.1" height="4"/>
					</g>
				</g>
				<g class="st1">
					<g>
						<rect x="150.1" y="95.4" class="st2" width="4.1" height="4"/>
						<rect x="168" y="95.4" class="st2" width="4.1" height="4"/>
						<rect x="185.9" y="95.4" class="st2" width="4.1" height="4"/>
						<rect x="204" y="95.4" class="st2" width="4.1" height="4"/>
						<rect x="223.1" y="95.5" class="st2" width="4.1" height="4"/>
						<rect x="240.9" y="95.5" class="st2" width="4.1" height="4"/>
						<rect x="259.1" y="95.5" class="st2" width="4.1" height="4"/>
						<rect x="277" y="95.5" class="st2" width="4.1" height="4"/>
						<rect x="295" y="95.5" class="st2" width="4.1" height="4"/>
						<rect x="313" y="95.5" class="st2" width="4.1" height="4"/>
						<rect x="331.1" y="95.5" class="st2" width="4.1" height="4"/>
						<rect x="349" y="95.6" class="st2" width="4.1" height="4"/>
						<rect x="365" y="95.6" class="st2" width="4.1" height="4"/>
					</g>
					<g>
						<rect x="150.1" y="113.9" class="st2" width="4.1" height="4"/>
						<rect x="168" y="113.9" class="st2" width="4.1" height="4"/>
						<rect x="185.9" y="113.9" class="st2" width="4.1" height="4"/>
						<rect x="204" y="113.9" class="st2" width="4.1" height="4"/>
						<rect x="223.1" y="114" class="st2" width="4.1" height="4"/>
						<rect x="240.9" y="114" class="st2" width="4.1" height="4"/>
						<rect x="259.1" y="114" class="st2" width="4.1" height="4"/>
						<rect x="277" y="114" class="st2" width="4.1" height="4"/>
						<rect x="295" y="114" class="st2" width="4.1" height="4"/>
						<rect x="313" y="114" class="st2" width="4.1" height="4"/>
						<rect x="331.1" y="114" class="st2" width="4.1" height="4"/>
						<rect x="349" y="114.1" class="st2" width="4.1" height="4"/>
						<rect x="365" y="114.1" class="st2" width="4.1" height="4"/>
					</g>
					<g>
						<rect x="150.1" y="130.4" class="st2" width="4.1" height="4"/>
						<rect x="168" y="130.4" class="st2" width="4.1" height="4"/>
						<rect x="185.9" y="130.4" class="st2" width="4.1" height="4"/>
						<rect x="204" y="130.4" class="st2" width="4.1" height="4"/>
						<rect x="223.1" y="130.5" class="st2" width="4.1" height="4"/>
						<rect x="240.9" y="130.5" class="st2" width="4.1" height="4"/>
						<rect x="259.1" y="130.5" class="st2" width="4.1" height="4"/>
						<rect x="277" y="130.5" class="st2" width="4.1" height="4"/>
						<rect x="295" y="130.5" class="st2" width="4.1" height="4"/>
						<rect x="313" y="130.5" class="st2" width="4.1" height="4"/>
						<rect x="331.1" y="130.5" class="st2" width="4.1" height="4"/>
						<rect x="349" y="130.6" class="st2" width="4.1" height="4"/>
						<rect x="365" y="130.6" class="st2" width="4.1" height="4"/>
					</g>
					<g>
						<rect x="150.1" y="58.4" class="st2" width="4.1" height="4"/>
						<rect x="168" y="58.4" class="st2" width="4.1" height="4"/>
						<rect x="185.9" y="58.4" class="st2" width="4.1" height="4"/>
						<rect x="204" y="58.4" class="st2" width="4.1" height="4"/>
						<rect x="223.1" y="58.5" class="st2" width="4.1" height="4"/>
						<rect x="240.9" y="58.5" class="st2" width="4.1" height="4"/>
						<rect x="259.1" y="58.5" class="st2" width="4.1" height="4"/>
						<rect x="277" y="58.5" class="st2" width="4.1" height="4"/>
						<rect x="295" y="58.5" class="st2" width="4.1" height="4"/>
						<rect x="313" y="58.5" class="st2" width="4.1" height="4"/>
						<rect x="331.1" y="58.5" class="st2" width="4.1" height="4"/>
						<rect x="349" y="58.6" class="st2" width="4.1" height="4"/>
						<rect x="365" y="58.6" class="st2" width="4.1" height="4"/>
					</g>
					<g>
						<rect x="150.1" y="76.9" class="st2" width="4.1" height="4"/>
						<rect x="168" y="76.9" class="st2" width="4.1" height="4"/>
						<rect x="185.9" y="76.9" class="st2" width="4.1" height="4"/>
						<rect x="204" y="76.9" class="st2" width="4.1" height="4"/>
						<rect x="223.1" y="77" class="st2" width="4.1" height="4"/>
						<rect x="240.9" y="77" class="st2" width="4.1" height="4"/>
						<rect x="259.1" y="77" class="st2" width="4.1" height="4"/>
						<rect x="277" y="77" class="st2" width="4.1" height="4"/>
						<rect x="295" y="77" class="st2" width="4.1" height="4"/>
						<rect x="313" y="77" class="st2" width="4.1" height="4"/>
						<rect x="331.1" y="77" class="st2" width="4.1" height="4"/>
						<rect x="349" y="77.1" class="st2" width="4.1" height="4"/>
						<rect x="365" y="77.1" class="st2" width="4.1" height="4"/>
					</g>
					<g>
						<rect x="150.1" y="21.4" class="st2" width="4.1" height="4"/>
						<rect x="168" y="21.4" class="st2" width="4.1" height="4"/>
						<rect x="185.9" y="21.4" class="st2" width="4.1" height="4"/>
						<rect x="204" y="21.4" class="st2" width="4.1" height="4"/>
						<rect x="223.1" y="21.5" class="st2" width="4.1" height="4"/>
						<rect x="240.9" y="21.5" class="st2" width="4.1" height="4"/>
						<rect x="259.1" y="21.5" class="st2" width="4.1" height="4"/>
						<rect x="277" y="21.5" class="st2" width="4.1" height="4"/>
						<rect x="295" y="21.5" class="st2" width="4.1" height="4"/>
						<rect x="313" y="21.5" class="st2" width="4.1" height="4"/>
						<rect x="331.1" y="21.5" class="st2" width="4.1" height="4"/>
						<rect x="349" y="21.6" class="st2" width="4.1" height="4"/>
						<rect x="365" y="21.6" class="st2" width="4.1" height="4"/>
					</g>
					<g>
						<rect x="150.1" y="39.9" class="st2" width="4.1" height="4"/>
						<rect x="168" y="39.9" class="st2" width="4.1" height="4"/>
						<rect x="185.9" y="39.9" class="st2" width="4.1" height="4"/>
						<rect x="204" y="39.9" class="st2" width="4.1" height="4"/>
						<rect x="223.1" y="40" class="st2" width="4.1" height="4"/>
						<rect x="240.9" y="40" class="st2" width="4.1" height="4"/>
						<rect x="259.1" y="40" class="st2" width="4.1" height="4"/>
						<rect x="277" y="40" class="st2" width="4.1" height="4"/>
						<rect x="295" y="40" class="st2" width="4.1" height="4"/>
						<rect x="313" y="40" class="st2" width="4.1" height="4"/>
						<rect x="331.1" y="40" class="st2" width="4.1" height="4"/>
						<rect x="349" y="40.1" class="st2" width="4.1" height="4"/>
						<rect x="365" y="40.1" class="st2" width="4.1" height="4"/>
					</g>
					<g>
						<rect x="150.1" y="-15.6" class="st2" width="4.1" height="4"/>
						<rect x="168" y="-15.6" class="st2" width="4.1" height="4"/>
						<rect x="185.9" y="-15.6" class="st2" width="4.1" height="4"/>
						<rect x="204" y="-15.6" class="st2" width="4.1" height="4"/>
						<rect x="223.1" y="-15.5" class="st2" width="4.1" height="4"/>
						<rect x="240.9" y="-15.5" class="st2" width="4.1" height="4"/>
						<rect x="259.1" y="-15.5" class="st2" width="4.1" height="4"/>
						<rect x="277" y="-15.5" class="st2" width="4.1" height="4"/>
						<rect x="295" y="-15.5" class="st2" width="4.1" height="4"/>
						<rect x="313" y="-15.5" class="st2" width="4.1" height="4"/>
						<rect x="331.1" y="-15.5" class="st2" width="4.1" height="4"/>
						<rect x="349" y="-15.4" class="st2" width="4.1" height="4"/>
						<rect x="365" y="-15.4" class="st2" width="4.1" height="4"/>
					</g>
					<g>
						<rect x="150.1" y="2.9" class="st2" width="4.1" height="4"/>
						<rect x="168" y="2.9" class="st2" width="4.1" height="4"/>
						<rect x="185.9" y="2.9" class="st2" width="4.1" height="4"/>
						<rect x="204" y="2.9" class="st2" width="4.1" height="4"/>
						<rect x="223.1" y="3" class="st2" width="4.1" height="4"/>
						<rect x="240.9" y="3" class="st2" width="4.1" height="4"/>
						<rect x="259.1" y="3" class="st2" width="4.1" height="4"/>
						<rect x="277" y="3" class="st2" width="4.1" height="4"/>
						<rect x="295" y="3" class="st2" width="4.1" height="4"/>
						<rect x="313" y="3" class="st2" width="4.1" height="4"/>
						<rect x="331.1" y="3" class="st2" width="4.1" height="4"/>
						<rect x="349" y="3.1" class="st2" width="4.1" height="4"/>
						<rect x="365" y="3.1" class="st2" width="4.1" height="4"/>
					</g>
					<g>
						<rect x="150.1" y="-52.6" class="st2" width="4.1" height="4"/>
						<rect x="168" y="-52.6" class="st2" width="4.1" height="4"/>
						<rect x="185.9" y="-52.6" class="st2" width="4.1" height="4"/>
						<rect x="204" y="-52.6" class="st2" width="4.1" height="4"/>
						<rect x="223.1" y="-52.5" class="st2" width="4.1" height="4"/>
						<rect x="240.9" y="-52.5" class="st2" width="4.1" height="4"/>
						<rect x="259.1" y="-52.5" class="st2" width="4.1" height="4"/>
						<rect x="277" y="-52.5" class="st2" width="4.1" height="4"/>
						<rect x="295" y="-52.5" class="st2" width="4.1" height="4"/>
						<rect x="313" y="-52.5" class="st2" width="4.1" height="4"/>
						<rect x="331.1" y="-52.5" class="st2" width="4.1" height="4"/>
						<rect x="349" y="-52.4" class="st2" width="4.1" height="4"/>
						<rect x="365" y="-52.4" class="st2" width="4.1" height="4"/>
					</g>
					<g>
						<rect x="150.1" y="-34.1" class="st2" width="4.1" height="4"/>
						<rect x="168" y="-34.1" class="st2" width="4.1" height="4"/>
						<rect x="185.9" y="-34.1" class="st2" width="4.1" height="4"/>
						<rect x="204" y="-34.1" class="st2" width="4.1" height="4"/>
						<rect x="223.1" y="-34" class="st2" width="4.1" height="4"/>
						<rect x="240.9" y="-34" class="st2" width="4.1" height="4"/>
						<rect x="259.1" y="-34" class="st2" width="4.1" height="4"/>
						<rect x="277" y="-34" class="st2" width="4.1" height="4"/>
						<rect x="295" y="-34" class="st2" width="4.1" height="4"/>
						<rect x="313" y="-34" class="st2" width="4.1" height="4"/>
						<rect x="331.1" y="-34" class="st2" width="4.1" height="4"/>
						<rect x="349" y="-33.9" class="st2" width="4.1" height="4"/>
						<rect x="365" y="-33.9" class="st2" width="4.1" height="4"/>
					</g>
					<g>
						<rect x="150.1" y="-89.6" class="st2" width="4.1" height="4"/>
						<rect x="168" y="-89.6" class="st2" width="4.1" height="4"/>
						<rect x="185.9" y="-89.6" class="st2" width="4.1" height="4"/>
						<rect x="204" y="-89.6" class="st2" width="4.1" height="4"/>
						<rect x="223.1" y="-89.5" class="st2" width="4.1" height="4"/>
						<rect x="240.9" y="-89.5" class="st2" width="4.1" height="4"/>
						<rect x="259.1" y="-89.5" class="st2" width="4.1" height="4"/>
						<rect x="277" y="-89.5" class="st2" width="4.1" height="4"/>
						<rect x="295" y="-89.5" class="st2" width="4.1" height="4"/>
						<rect x="313" y="-89.5" class="st2" width="4.1" height="4"/>
						<rect x="331.1" y="-89.5" class="st2" width="4.1" height="4"/>
						<rect x="349" y="-89.4" class="st2" width="4.1" height="4"/>
						<rect x="365" y="-89.4" class="st2" width="4.1" height="4"/>
					</g>
					<g>
						<rect x="150.1" y="-71.1" class="st2" width="4.1" height="4"/>
						<rect x="168" y="-71.1" class="st2" width="4.1" height="4"/>
						<rect x="185.9" y="-71.1" class="st2" width="4.1" height="4"/>
						<rect x="204" y="-71.1" class="st2" width="4.1" height="4"/>
						<rect x="223.1" y="-71" class="st2" width="4.1" height="4"/>
						<rect x="240.9" y="-71" class="st2" width="4.1" height="4"/>
						<rect x="259.1" y="-71" class="st2" width="4.1" height="4"/>
						<rect x="277" y="-71" class="st2" width="4.1" height="4"/>
						<rect x="295" y="-71" class="st2" width="4.1" height="4"/>
						<rect x="313" y="-71" class="st2" width="4.1" height="4"/>
						<rect x="331.1" y="-71" class="st2" width="4.1" height="4"/>
						<rect x="349" y="-70.9" class="st2" width="4.1" height="4"/>
						<rect x="365" y="-70.9" class="st2" width="4.1" height="4"/>
					</g>
				</g>
				<g class="st1">
					<g>
						<rect x="-82.8" y="334.4" class="st2" width="4.1" height="4"/>
						<rect x="-64.9" y="334.4" class="st2" width="4.1" height="4"/>
						<rect x="-47" y="334.4" class="st2" width="4.1" height="4"/>
						<rect x="-28.9" y="334.4" class="st2" width="4.1" height="4"/>
						<rect x="-9.8" y="334.5" class="st2" width="4.1" height="4"/>
						<rect x="8" y="334.5" class="st2" width="4.1" height="4"/>
						<rect x="26.2" y="334.5" class="st2" width="4.1" height="4"/>
						<rect x="44.1" y="334.5" class="st2" width="4.1" height="4"/>
						<rect x="62.1" y="334.5" class="st2" width="4.1" height="4"/>
						<rect x="80.1" y="334.5" class="st2" width="4.1" height="4"/>
						<rect x="98.2" y="334.5" class="st2" width="4.1" height="4"/>
						<rect x="116.1" y="334.6" class="st2" width="4.1" height="4"/>
						<rect x="132.1" y="334.6" class="st2" width="4.1" height="4"/>
					</g>
					<g>
						<rect x="-82.8" y="352.9" class="st2" width="4.1" height="4"/>
						<rect x="-64.9" y="352.9" class="st2" width="4.1" height="4"/>
						<rect x="-47" y="352.9" class="st2" width="4.1" height="4"/>
						<rect x="-28.9" y="352.9" class="st2" width="4.1" height="4"/>
						<rect x="-9.8" y="353" class="st2" width="4.1" height="4"/>
						<rect x="8" y="353" class="st2" width="4.1" height="4"/>
						<rect x="26.2" y="353" class="st2" width="4.1" height="4"/>
						<rect x="44.1" y="353" class="st2" width="4.1" height="4"/>
						<rect x="62.1" y="353" class="st2" width="4.1" height="4"/>
						<rect x="80.1" y="353" class="st2" width="4.1" height="4"/>
						<rect x="98.2" y="353" class="st2" width="4.1" height="4"/>
						<rect x="116.1" y="353.1" class="st2" width="4.1" height="4"/>
						<rect x="132.1" y="353.1" class="st2" width="4.1" height="4"/>
					</g>
					<g>
						<rect x="-82.8" y="369.4" class="st2" width="4.1" height="4"/>
						<rect x="-64.9" y="369.4" class="st2" width="4.1" height="4"/>
						<rect x="-47" y="369.4" class="st2" width="4.1" height="4"/>
						<rect x="-28.9" y="369.4" class="st2" width="4.1" height="4"/>
						<rect x="-9.8" y="369.5" class="st2" width="4.1" height="4"/>
						<rect x="8" y="369.5" class="st2" width="4.1" height="4"/>
						<rect x="26.2" y="369.5" class="st2" width="4.1" height="4"/>
						<rect x="44.1" y="369.5" class="st2" width="4.1" height="4"/>
						<rect x="62.1" y="369.5" class="st2" width="4.1" height="4"/>
						<rect x="80.1" y="369.5" class="st2" width="4.1" height="4"/>
						<rect x="98.2" y="369.5" class="st2" width="4.1" height="4"/>
						<rect x="116.1" y="369.6" class="st2" width="4.1" height="4"/>
						<rect x="132.1" y="369.6" class="st2" width="4.1" height="4"/>
					</g>
					<g>
						<rect x="-82.8" y="297.4" class="st2" width="4.1" height="4"/>
						<rect x="-64.9" y="297.4" class="st2" width="4.1" height="4"/>
						<rect x="-47" y="297.4" class="st2" width="4.1" height="4"/>
						<rect x="-28.9" y="297.4" class="st2" width="4.1" height="4"/>
						<rect x="-9.8" y="297.5" class="st2" width="4.1" height="4"/>
						<rect x="8" y="297.5" class="st2" width="4.1" height="4"/>
						<rect x="26.2" y="297.5" class="st2" width="4.1" height="4"/>
						<rect x="44.1" y="297.5" class="st2" width="4.1" height="4"/>
						<rect x="62.1" y="297.5" class="st2" width="4.1" height="4"/>
						<rect x="80.1" y="297.5" class="st2" width="4.1" height="4"/>
						<rect x="98.2" y="297.5" class="st2" width="4.1" height="4"/>
						<rect x="116.1" y="297.6" class="st2" width="4.1" height="4"/>
						<rect x="132.1" y="297.6" class="st2" width="4.1" height="4"/>
					</g>
					<g>
						<rect x="-82.8" y="315.9" class="st2" width="4.1" height="4"/>
						<rect x="-64.9" y="315.9" class="st2" width="4.1" height="4"/>
						<rect x="-47" y="315.9" class="st2" width="4.1" height="4"/>
						<rect x="-28.9" y="315.9" class="st2" width="4.1" height="4"/>
						<rect x="-9.8" y="316" class="st2" width="4.1" height="4"/>
						<rect x="8" y="316" class="st2" width="4.1" height="4"/>
						<rect x="26.2" y="316" class="st2" width="4.1" height="4"/>
						<rect x="44.1" y="316" class="st2" width="4.1" height="4"/>
						<rect x="62.1" y="316" class="st2" width="4.1" height="4"/>
						<rect x="80.1" y="316" class="st2" width="4.1" height="4"/>
						<rect x="98.2" y="316" class="st2" width="4.1" height="4"/>
						<rect x="116.1" y="316.1" class="st2" width="4.1" height="4"/>
						<rect x="132.1" y="316.1" class="st2" width="4.1" height="4"/>
					</g>
					<g>
						<rect x="-82.8" y="260.4" class="st2" width="4.1" height="4"/>
						<rect x="-64.9" y="260.4" class="st2" width="4.1" height="4"/>
						<rect x="-47" y="260.4" class="st2" width="4.1" height="4"/>
						<rect x="-28.9" y="260.4" class="st2" width="4.1" height="4"/>
						<rect x="-9.8" y="260.5" class="st2" width="4.1" height="4"/>
						<rect x="8" y="260.5" class="st2" width="4.1" height="4"/>
						<rect x="26.2" y="260.5" class="st2" width="4.1" height="4"/>
						<rect x="44.1" y="260.5" class="st2" width="4.1" height="4"/>
						<rect x="62.1" y="260.5" class="st2" width="4.1" height="4"/>
						<rect x="80.1" y="260.5" class="st2" width="4.1" height="4"/>
						<rect x="98.2" y="260.5" class="st2" width="4.1" height="4"/>
						<rect x="116.1" y="260.6" class="st2" width="4.1" height="4"/>
						<rect x="132.1" y="260.6" class="st2" width="4.1" height="4"/>
					</g>
					<g>
						<rect x="-82.8" y="278.9" class="st2" width="4.1" height="4"/>
						<rect x="-64.9" y="278.9" class="st2" width="4.1" height="4"/>
						<rect x="-47" y="278.9" class="st2" width="4.1" height="4"/>
						<rect x="-28.9" y="278.9" class="st2" width="4.1" height="4"/>
						<rect x="-9.8" y="279" class="st2" width="4.1" height="4"/>
						<rect x="8" y="279" class="st2" width="4.1" height="4"/>
						<rect x="26.2" y="279" class="st2" width="4.1" height="4"/>
						<rect x="44.1" y="279" class="st2" width="4.1" height="4"/>
						<rect x="62.1" y="279" class="st2" width="4.1" height="4"/>
						<rect x="80.1" y="279" class="st2" width="4.1" height="4"/>
						<rect x="98.2" y="279" class="st2" width="4.1" height="4"/>
						<rect x="116.1" y="279.1" class="st2" width="4.1" height="4"/>
						<rect x="132.1" y="279.1" class="st2" width="4.1" height="4"/>
					</g>
					<g>
						<rect x="-82.8" y="223.4" class="st2" width="4.1" height="4"/>
						<rect x="-64.9" y="223.4" class="st2" width="4.1" height="4"/>
						<rect x="-47" y="223.4" class="st2" width="4.1" height="4"/>
						<rect x="-28.9" y="223.4" class="st2" width="4.1" height="4"/>
						<rect x="-9.8" y="223.5" class="st2" width="4.1" height="4"/>
						<rect x="8" y="223.5" class="st2" width="4.1" height="4"/>
						<rect x="26.2" y="223.5" class="st2" width="4.1" height="4"/>
						<rect x="44.1" y="223.5" class="st2" width="4.1" height="4"/>
						<rect x="62.1" y="223.5" class="st2" width="4.1" height="4"/>
						<rect x="80.1" y="223.5" class="st2" width="4.1" height="4"/>
						<rect x="98.2" y="223.5" class="st2" width="4.1" height="4"/>
						<rect x="116.1" y="223.6" class="st2" width="4.1" height="4"/>
						<rect x="132.1" y="223.6" class="st2" width="4.1" height="4"/>
					</g>
					<g>
						<rect x="-82.8" y="241.9" class="st2" width="4.1" height="4"/>
						<rect x="-64.9" y="241.9" class="st2" width="4.1" height="4"/>
						<rect x="-47" y="241.9" class="st2" width="4.1" height="4"/>
						<rect x="-28.9" y="241.9" class="st2" width="4.1" height="4"/>
						<rect x="-9.8" y="242" class="st2" width="4.1" height="4"/>
						<rect x="8" y="242" class="st2" width="4.1" height="4"/>
						<rect x="26.2" y="242" class="st2" width="4.1" height="4"/>
						<rect x="44.1" y="242" class="st2" width="4.1" height="4"/>
						<rect x="62.1" y="242" class="st2" width="4.1" height="4"/>
						<rect x="80.1" y="242" class="st2" width="4.1" height="4"/>
						<rect x="98.2" y="242" class="st2" width="4.1" height="4"/>
						<rect x="116.1" y="242.1" class="st2" width="4.1" height="4"/>
						<rect x="132.1" y="242.1" class="st2" width="4.1" height="4"/>
					</g>
					<g>
						<rect x="-82.8" y="186.4" class="st2" width="4.1" height="4"/>
						<rect x="-64.9" y="186.4" class="st2" width="4.1" height="4"/>
						<rect x="-47" y="186.4" class="st2" width="4.1" height="4"/>
						<rect x="-28.9" y="186.4" class="st2" width="4.1" height="4"/>
						<rect x="-9.8" y="186.5" class="st2" width="4.1" height="4"/>
						<rect x="8" y="186.5" class="st2" width="4.1" height="4"/>
						<rect x="26.2" y="186.5" class="st2" width="4.1" height="4"/>
						<rect x="44.1" y="186.5" class="st2" width="4.1" height="4"/>
						<rect x="62.1" y="186.5" class="st2" width="4.1" height="4"/>
						<rect x="80.1" y="186.5" class="st2" width="4.1" height="4"/>
						<rect x="98.2" y="186.5" class="st2" width="4.1" height="4"/>
						<rect x="116.1" y="186.6" class="st2" width="4.1" height="4"/>
						<rect x="132.1" y="186.6" class="st2" width="4.1" height="4"/>
					</g>
					<g>
						<rect x="-82.8" y="204.9" class="st2" width="4.1" height="4"/>
						<rect x="-64.9" y="204.9" class="st2" width="4.1" height="4"/>
						<rect x="-47" y="204.9" class="st2" width="4.1" height="4"/>
						<rect x="-28.9" y="204.9" class="st2" width="4.1" height="4"/>
						<rect x="-9.8" y="205" class="st2" width="4.1" height="4"/>
						<rect x="8" y="205" class="st2" width="4.1" height="4"/>
						<rect x="26.2" y="205" class="st2" width="4.1" height="4"/>
						<rect x="44.1" y="205" class="st2" width="4.1" height="4"/>
						<rect x="62.1" y="205" class="st2" width="4.1" height="4"/>
						<rect x="80.1" y="205" class="st2" width="4.1" height="4"/>
						<rect x="98.2" y="205" class="st2" width="4.1" height="4"/>
						<rect x="116.1" y="205.1" class="st2" width="4.1" height="4"/>
						<rect x="132.1" y="205.1" class="st2" width="4.1" height="4"/>
					</g>
					<g>
						<rect x="-82.8" y="149.4" class="st2" width="4.1" height="4"/>
						<rect x="-64.9" y="149.4" class="st2" width="4.1" height="4"/>
						<rect x="-47" y="149.4" class="st2" width="4.1" height="4"/>
						<rect x="-28.9" y="149.4" class="st2" width="4.1" height="4"/>
						<rect x="-9.8" y="149.5" class="st2" width="4.1" height="4"/>
						<rect x="8" y="149.5" class="st2" width="4.1" height="4"/>
						<rect x="26.2" y="149.5" class="st2" width="4.1" height="4"/>
						<rect x="44.1" y="149.5" class="st2" width="4.1" height="4"/>
						<rect x="62.1" y="149.5" class="st2" width="4.1" height="4"/>
						<rect x="80.1" y="149.5" class="st2" width="4.1" height="4"/>
						<rect x="98.2" y="149.5" class="st2" width="4.1" height="4"/>
						<rect x="116.1" y="149.6" class="st2" width="4.1" height="4"/>
						<rect x="132.1" y="149.6" class="st2" width="4.1" height="4"/>
					</g>
					<g>
						<rect x="-82.8" y="167.9" class="st2" width="4.1" height="4"/>
						<rect x="-64.9" y="167.9" class="st2" width="4.1" height="4"/>
						<rect x="-47" y="167.9" class="st2" width="4.1" height="4"/>
						<rect x="-28.9" y="167.9" class="st2" width="4.1" height="4"/>
						<rect x="-9.8" y="168" class="st2" width="4.1" height="4"/>
						<rect x="8" y="168" class="st2" width="4.1" height="4"/>
						<rect x="26.2" y="168" class="st2" width="4.1" height="4"/>
						<rect x="44.1" y="168" class="st2" width="4.1" height="4"/>
						<rect x="62.1" y="168" class="st2" width="4.1" height="4"/>
						<rect x="80.1" y="168" class="st2" width="4.1" height="4"/>
						<rect x="98.2" y="168" class="st2" width="4.1" height="4"/>
						<rect x="116.1" y="168.1" class="st2" width="4.1" height="4"/>
						<rect x="132.1" y="168.1" class="st2" width="4.1" height="4"/>
					</g>
				</g>
				<g class="st1">
					<g>
						<rect x="150.1" y="334.4" class="st2" width="4.1" height="4"/>
						<rect x="168" y="334.4" class="st2" width="4.1" height="4"/>
						<rect x="185.9" y="334.4" class="st2" width="4.1" height="4"/>
						<rect x="204" y="334.4" class="st2" width="4.1" height="4"/>
						<rect x="223.1" y="334.5" class="st2" width="4.1" height="4"/>
						<rect x="240.9" y="334.5" class="st2" width="4.1" height="4"/>
						<rect x="259.1" y="334.5" class="st2" width="4.1" height="4"/>
						<rect x="277" y="334.5" class="st2" width="4.1" height="4"/>
						<rect x="295" y="334.5" class="st2" width="4.1" height="4"/>
						<rect x="313" y="334.5" class="st2" width="4.1" height="4"/>
						<rect x="331.1" y="334.5" class="st2" width="4.1" height="4"/>
						<rect x="349" y="334.6" class="st2" width="4.1" height="4"/>
						<rect x="365" y="334.6" class="st2" width="4.1" height="4"/>
					</g>
					<g>
						<rect x="150.1" y="352.9" class="st2" width="4.1" height="4"/>
						<rect x="168" y="352.9" class="st2" width="4.1" height="4"/>
						<rect x="185.9" y="352.9" class="st2" width="4.1" height="4"/>
						<rect x="204" y="352.9" class="st2" width="4.1" height="4"/>
						<rect x="223.1" y="353" class="st2" width="4.1" height="4"/>
						<rect x="240.9" y="353" class="st2" width="4.1" height="4"/>
						<rect x="259.1" y="353" class="st2" width="4.1" height="4"/>
						<rect x="277" y="353" class="st2" width="4.1" height="4"/>
						<rect x="295" y="353" class="st2" width="4.1" height="4"/>
						<rect x="313" y="353" class="st2" width="4.1" height="4"/>
						<rect x="331.1" y="353" class="st2" width="4.1" height="4"/>
						<rect x="349" y="353.1" class="st2" width="4.1" height="4"/>
						<rect x="365" y="353.1" class="st2" width="4.1" height="4"/>
					</g>
					<g>
						<rect x="150.1" y="369.4" class="st2" width="4.1" height="4"/>
						<rect x="168" y="369.4" class="st2" width="4.1" height="4"/>
						<rect x="185.9" y="369.4" class="st2" width="4.1" height="4"/>
						<rect x="204" y="369.4" class="st2" width="4.1" height="4"/>
						<rect x="223.1" y="369.5" class="st2" width="4.1" height="4"/>
						<rect x="240.9" y="369.5" class="st2" width="4.1" height="4"/>
						<rect x="259.1" y="369.5" class="st2" width="4.1" height="4"/>
						<rect x="277" y="369.5" class="st2" width="4.1" height="4"/>
						<rect x="295" y="369.5" class="st2" width="4.1" height="4"/>
						<rect x="313" y="369.5" class="st2" width="4.1" height="4"/>
						<rect x="331.1" y="369.5" class="st2" width="4.1" height="4"/>
						<rect x="349" y="369.6" class="st2" width="4.1" height="4"/>
						<rect x="365" y="369.6" class="st2" width="4.1" height="4"/>
					</g>
					<g>
						<rect x="150.1" y="297.4" class="st2" width="4.1" height="4"/>
						<rect x="168" y="297.4" class="st2" width="4.1" height="4"/>
						<rect x="185.9" y="297.4" class="st2" width="4.1" height="4"/>
						<rect x="204" y="297.4" class="st2" width="4.1" height="4"/>
						<rect x="223.1" y="297.5" class="st2" width="4.1" height="4"/>
						<rect x="240.9" y="297.5" class="st2" width="4.1" height="4"/>
						<rect x="259.1" y="297.5" class="st2" width="4.1" height="4"/>
						<rect x="277" y="297.5" class="st2" width="4.1" height="4"/>
						<rect x="295" y="297.5" class="st2" width="4.1" height="4"/>
						<rect x="313" y="297.5" class="st2" width="4.1" height="4"/>
						<rect x="331.1" y="297.5" class="st2" width="4.1" height="4"/>
						<rect x="349" y="297.6" class="st2" width="4.1" height="4"/>
						<rect x="365" y="297.6" class="st2" width="4.1" height="4"/>
					</g>
					<g>
						<rect x="150.1" y="315.9" class="st2" width="4.1" height="4"/>
						<rect x="168" y="315.9" class="st2" width="4.1" height="4"/>
						<rect x="185.9" y="315.9" class="st2" width="4.1" height="4"/>
						<rect x="204" y="315.9" class="st2" width="4.1" height="4"/>
						<rect x="223.1" y="316" class="st2" width="4.1" height="4"/>
						<rect x="240.9" y="316" class="st2" width="4.1" height="4"/>
						<rect x="259.1" y="316" class="st2" width="4.1" height="4"/>
						<rect x="277" y="316" class="st2" width="4.1" height="4"/>
						<rect x="295" y="316" class="st2" width="4.1" height="4"/>
						<rect x="313" y="316" class="st2" width="4.1" height="4"/>
						<rect x="331.1" y="316" class="st2" width="4.1" height="4"/>
						<rect x="349" y="316.1" class="st2" width="4.1" height="4"/>
						<rect x="365" y="316.1" class="st2" width="4.1" height="4"/>
					</g>
					<g>
						<rect x="150.1" y="260.4" class="st2" width="4.1" height="4"/>
						<rect x="168" y="260.4" class="st2" width="4.1" height="4"/>
						<rect x="185.9" y="260.4" class="st2" width="4.1" height="4"/>
						<rect x="204" y="260.4" class="st2" width="4.1" height="4"/>
						<rect x="223.1" y="260.5" class="st2" width="4.1" height="4"/>
						<rect x="240.9" y="260.5" class="st2" width="4.1" height="4"/>
						<rect x="259.1" y="260.5" class="st2" width="4.1" height="4"/>
						<rect x="277" y="260.5" class="st2" width="4.1" height="4"/>
						<rect x="295" y="260.5" class="st2" width="4.1" height="4"/>
						<rect x="313" y="260.5" class="st2" width="4.1" height="4"/>
						<rect x="331.1" y="260.5" class="st2" width="4.1" height="4"/>
						<rect x="349" y="260.6" class="st2" width="4.1" height="4"/>
						<rect x="365" y="260.6" class="st2" width="4.1" height="4"/>
					</g>
					<g>
						<rect x="150.1" y="278.9" class="st2" width="4.1" height="4"/>
						<rect x="168" y="278.9" class="st2" width="4.1" height="4"/>
						<rect x="185.9" y="278.9" class="st2" width="4.1" height="4"/>
						<rect x="204" y="278.9" class="st2" width="4.1" height="4"/>
						<rect x="223.1" y="279" class="st2" width="4.1" height="4"/>
						<rect x="240.9" y="279" class="st2" width="4.1" height="4"/>
						<rect x="259.1" y="279" class="st2" width="4.1" height="4"/>
						<rect x="277" y="279" class="st2" width="4.1" height="4"/>
						<rect x="295" y="279" class="st2" width="4.1" height="4"/>
						<rect x="313" y="279" class="st2" width="4.1" height="4"/>
						<rect x="331.1" y="279" class="st2" width="4.1" height="4"/>
						<rect x="349" y="279.1" class="st2" width="4.1" height="4"/>
						<rect x="365" y="279.1" class="st2" width="4.1" height="4"/>
					</g>
					<g>
						<rect x="150.1" y="223.4" class="st2" width="4.1" height="4"/>
						<rect x="168" y="223.4" class="st2" width="4.1" height="4"/>
						<rect x="185.9" y="223.4" class="st2" width="4.1" height="4"/>
						<rect x="204" y="223.4" class="st2" width="4.1" height="4"/>
						<rect x="223.1" y="223.5" class="st2" width="4.1" height="4"/>
						<rect x="240.9" y="223.5" class="st2" width="4.1" height="4"/>
						<rect x="259.1" y="223.5" class="st2" width="4.1" height="4"/>
						<rect x="277" y="223.5" class="st2" width="4.1" height="4"/>
						<rect x="295" y="223.5" class="st2" width="4.1" height="4"/>
						<rect x="313" y="223.5" class="st2" width="4.1" height="4"/>
						<rect x="331.1" y="223.5" class="st2" width="4.1" height="4"/>
						<rect x="349" y="223.6" class="st2" width="4.1" height="4"/>
						<rect x="365" y="223.6" class="st2" width="4.1" height="4"/>
					</g>
					<g>
						<rect x="150.1" y="241.9" class="st2" width="4.1" height="4"/>
						<rect x="168" y="241.9" class="st2" width="4.1" height="4"/>
						<rect x="185.9" y="241.9" class="st2" width="4.1" height="4"/>
						<rect x="204" y="241.9" class="st2" width="4.1" height="4"/>
						<rect x="223.1" y="242" class="st2" width="4.1" height="4"/>
						<rect x="240.9" y="242" class="st2" width="4.1" height="4"/>
						<rect x="259.1" y="242" class="st2" width="4.1" height="4"/>
						<rect x="277" y="242" class="st2" width="4.1" height="4"/>
						<rect x="295" y="242" class="st2" width="4.1" height="4"/>
						<rect x="313" y="242" class="st2" width="4.1" height="4"/>
						<rect x="331.1" y="242" class="st2" width="4.1" height="4"/>
						<rect x="349" y="242.1" class="st2" width="4.1" height="4"/>
						<rect x="365" y="242.1" class="st2" width="4.1" height="4"/>
					</g>
					<g>
						<rect x="150.1" y="186.4" class="st2" width="4.1" height="4"/>
						<rect x="168" y="186.4" class="st2" width="4.1" height="4"/>
						<rect x="185.9" y="186.4" class="st2" width="4.1" height="4"/>
						<rect x="204" y="186.4" class="st2" width="4.1" height="4"/>
						<rect x="223.1" y="186.5" class="st2" width="4.1" height="4"/>
						<rect x="240.9" y="186.5" class="st2" width="4.1" height="4"/>
						<rect x="259.1" y="186.5" class="st2" width="4.1" height="4"/>
						<rect x="277" y="186.5" class="st2" width="4.1" height="4"/>
						<rect x="295" y="186.5" class="st2" width="4.1" height="4"/>
						<rect x="313" y="186.5" class="st2" width="4.1" height="4"/>
						<rect x="331.1" y="186.5" class="st2" width="4.1" height="4"/>
						<rect x="349" y="186.6" class="st2" width="4.1" height="4"/>
						<rect x="365" y="186.6" class="st2" width="4.1" height="4"/>
					</g>
					<g>
						<rect x="150.1" y="204.9" class="st2" width="4.1" height="4"/>
						<rect x="168" y="204.9" class="st2" width="4.1" height="4"/>
						<rect x="185.9" y="204.9" class="st2" width="4.1" height="4"/>
						<rect x="204" y="204.9" class="st2" width="4.1" height="4"/>
						<rect x="223.1" y="205" class="st2" width="4.1" height="4"/>
						<rect x="240.9" y="205" class="st2" width="4.1" height="4"/>
						<rect x="259.1" y="205" class="st2" width="4.1" height="4"/>
						<rect x="277" y="205" class="st2" width="4.1" height="4"/>
						<rect x="295" y="205" class="st2" width="4.1" height="4"/>
						<rect x="313" y="205" class="st2" width="4.1" height="4"/>
						<rect x="331.1" y="205" class="st2" width="4.1" height="4"/>
						<rect x="349" y="205.1" class="st2" width="4.1" height="4"/>
						<rect x="365" y="205.1" class="st2" width="4.1" height="4"/>
					</g>
					<g>
						<rect x="150.1" y="149.4" class="st2" width="4.1" height="4"/>
						<rect x="168" y="149.4" class="st2" width="4.1" height="4"/>
						<rect x="185.9" y="149.4" class="st2" width="4.1" height="4"/>
						<rect x="204" y="149.4" class="st2" width="4.1" height="4"/>
						<rect x="223.1" y="149.5" class="st2" width="4.1" height="4"/>
						<rect x="240.9" y="149.5" class="st2" width="4.1" height="4"/>
						<rect x="259.1" y="149.5" class="st2" width="4.1" height="4"/>
						<rect x="277" y="149.5" class="st2" width="4.1" height="4"/>
						<rect x="295" y="149.5" class="st2" width="4.1" height="4"/>
						<rect x="313" y="149.5" class="st2" width="4.1" height="4"/>
						<rect x="331.1" y="149.5" class="st2" width="4.1" height="4"/>
						<rect x="349" y="149.6" class="st2" width="4.1" height="4"/>
						<rect x="365" y="149.6" class="st2" width="4.1" height="4"/>
					</g>
					<g>
						<rect x="150.1" y="167.9" class="st2" width="4.1" height="4"/>
						<rect x="168" y="167.9" class="st2" width="4.1" height="4"/>
						<rect x="185.9" y="167.9" class="st2" width="4.1" height="4"/>
						<rect x="204" y="167.9" class="st2" width="4.1" height="4"/>
						<rect x="223.1" y="168" class="st2" width="4.1" height="4"/>
						<rect x="240.9" y="168" class="st2" width="4.1" height="4"/>
						<rect x="259.1" y="168" class="st2" width="4.1" height="4"/>
						<rect x="277" y="168" class="st2" width="4.1" height="4"/>
						<rect x="295" y="168" class="st2" width="4.1" height="4"/>
						<rect x="313" y="168" class="st2" width="4.1" height="4"/>
						<rect x="331.1" y="168" class="st2" width="4.1" height="4"/>
						<rect x="349" y="168.1" class="st2" width="4.1" height="4"/>
						<rect x="365" y="168.1" class="st2" width="4.1" height="4"/>
					</g>
				</g>
			</g>
		</g>
	</g>
</g>
</svg>
