<?xml version="1.0" encoding="utf-8"?>
<!-- Generator: Adobe Illustrator 22.1.0, SVG Export Plug-In . SVG Version: 6.00 Build 0)  -->
<svg version="1.1" id="Layer_1" xmlns="http://www.w3.org/2000/svg" xmlns:xlink="http://www.w3.org/1999/xlink" x="0px" y="0px"
	 viewBox="0 0 50.3 50.3" style="enable-background:new 0 0 50.3 50.3;" xml:space="preserve">
<style type="text/css">
	.st0{opacity:0.6;}
	.st1{clip-path:url(#SVGID_2_);}
	.st2{fill:#6C757D;}
</style>
<g class="st0">
	<g>
		<defs>
			<circle id="SVGID_1_" cx="25.1" cy="25.1" r="25.1"/>
		</defs>
		<clipPath id="SVGID_2_">
			<use xlink:href="#SVGID_1_"  style="overflow:visible;"/>
		</clipPath>
		<g class="st1">
			<rect x="7.2" y="7.8" transform="matrix(0.5528 -0.8333 0.8333 0.5528 -38.2186 29.4016)" class="st2" width="2.2" height="85"/>
			<rect x="9.7" y="3.9" transform="matrix(0.5528 -0.8333 0.8333 0.5528 -33.8155 29.7592)" class="st2" width="2.2" height="85"/>
			<rect x="12.3" y="0" transform="matrix(0.5528 -0.8333 0.8333 0.5528 -29.4211 30.211)" class="st2" width="2.2" height="85"/>
			
				<rect x="14.8" y="-3.7" transform="matrix(0.5528 -0.8333 0.8333 0.5528 -25.232 30.6143)" class="st2" width="2.2" height="85"/>
			
				<rect x="17.2" y="-7.5" transform="matrix(0.5528 -0.8333 0.8333 0.5528 -20.9399 30.9322)" class="st2" width="2.2" height="85"/>
			
				<rect x="19.9" y="-11.5" transform="matrix(0.5528 -0.8333 0.8333 0.5528 -16.4241 31.3985)" class="st2" width="2.2" height="85"/>
			
				<rect x="22.6" y="-15.5" transform="matrix(0.5528 -0.8333 0.8333 0.5528 -11.9084 31.8646)" class="st2" width="2.2" height="85"/>
			
				<rect x="25.2" y="-19.5" transform="matrix(0.5528 -0.8333 0.8333 0.5528 -7.3839 32.2368)" class="st2" width="2.2" height="85"/>
			
				<rect x="27.8" y="-23.3" transform="matrix(0.5528 -0.8333 0.8333 0.5528 -3.0837 32.6798)" class="st2" width="2.2" height="85"/>
			
				<rect x="30.3" y="-27.2" transform="matrix(0.5528 -0.8333 0.8333 0.5528 1.3194 33.0374)" class="st2" width="2.2" height="85"/>
			
				<rect x="32.8" y="-30.9" transform="matrix(0.5528 -0.8333 0.8333 0.5528 5.5086 33.4406)" class="st2" width="2.2" height="85"/>
			
				<rect x="35.3" y="-34.7" transform="matrix(0.5528 -0.8333 0.8333 0.5528 9.7919 33.8527)" class="st2" width="2.2" height="85"/>
			<rect x="38" y="-38.7" transform="matrix(0.5528 -0.8333 0.8333 0.5528 14.3077 34.319)" class="st2" width="2.2" height="85"/>
			
				<rect x="40.6" y="-42.7" transform="matrix(0.5528 -0.8333 0.8333 0.5528 18.8321 34.6911)" class="st2" width="2.2" height="85"/>
		</g>
	</g>
</g>
</svg>
