<?xml version="1.0" encoding="utf-8"?>
<!-- Generator: Adobe Illustrator 22.1.0, SVG Export Plug-In . SVG Version: 6.00 Build 0)  -->
<svg version="1.1" id="Layer_1" xmlns="http://www.w3.org/2000/svg" xmlns:xlink="http://www.w3.org/1999/xlink" x="0px" y="0px"
	 viewBox="0 0 306.8 307.9" style="enable-background:new 0 0 306.8 307.9;" xml:space="preserve">
<style type="text/css">
	.st0{opacity:0.3;}
	.st1{fill:#6C757D;}
</style>
<g class="st0">
	<g>
		
			<rect x="104" y="274.1" transform="matrix(0.8299 -0.5579 0.5579 0.8299 -135.9847 106.1161)" class="st1" width="4.1" height="4"/>
		
			<rect x="118.8" y="264.1" transform="matrix(0.8299 -0.5579 0.5579 0.8299 -127.8861 112.7053)" class="st1" width="4.1" height="4"/>
		
			<rect x="133.7" y="254.1" transform="matrix(0.8299 -0.5579 0.5579 0.8299 -119.7874 119.2944)" class="st1" width="4.1" height="4"/>
		
			<rect x="148.7" y="244" transform="matrix(0.8299 -0.5579 0.5579 0.8299 -111.5983 125.9572)" class="st1" width="4.1" height="4"/>
		
			<rect x="164.6" y="233.4" transform="matrix(0.8299 -0.5579 0.5579 0.8299 -102.9935 133.0334)" class="st1" width="4.1" height="4"/>
		
			<rect x="179.4" y="223.5" transform="matrix(0.8299 -0.5579 0.5579 0.8299 -94.9401 139.5857)" class="st1" width="4.1" height="4"/>
		
			<rect x="194.5" y="213.3" transform="matrix(0.8299 -0.5579 0.5579 0.8299 -86.7058 146.2853)" class="st1" width="4.1" height="4"/>
		
			<rect x="209.4" y="203.3" transform="matrix(0.8299 -0.5579 0.5579 0.8299 -78.6071 152.8745)" class="st1" width="4.1" height="4"/>
		
			<rect x="224.3" y="193.3" transform="matrix(0.8299 -0.5579 0.5579 0.8299 -70.4632 159.5005)" class="st1" width="4.1" height="4"/>
		
			<rect x="239.2" y="183.3" transform="matrix(0.8299 -0.5579 0.5579 0.8299 -62.3193 166.1265)" class="st1" width="4.1" height="4"/>
		
			<rect x="254.2" y="173.2" transform="matrix(0.8299 -0.5579 0.5579 0.8299 -54.1302 172.7893)" class="st1" width="4.1" height="4"/>
		
			<rect x="269.2" y="163.3" transform="matrix(0.8299 -0.5579 0.5579 0.8299 -46.0684 179.4237)" class="st1" width="4.1" height="4"/>
		
			<rect x="282.4" y="154.3" transform="matrix(0.8299 -0.5579 0.5579 0.8299 -38.8294 185.3134)" class="st1" width="4.1" height="4"/>
	</g>
	<g>
		
			<rect x="114.3" y="289.4" transform="matrix(0.8299 -0.5579 0.5579 0.8299 -142.7947 114.4862)" class="st1" width="4.1" height="4"/>
		
			<rect x="129.2" y="279.4" transform="matrix(0.8299 -0.5579 0.5579 0.8299 -134.6961 121.0754)" class="st1" width="4.1" height="4"/>
		
			<rect x="144" y="269.4" transform="matrix(0.8299 -0.5579 0.5579 0.8299 -126.5975 127.6645)" class="st1" width="4.1" height="4"/>
		
			<rect x="159" y="259.3" transform="matrix(0.8299 -0.5579 0.5579 0.8299 -118.4083 134.3273)" class="st1" width="4.1" height="4"/>
		
			<rect x="174.9" y="248.8" transform="matrix(0.8299 -0.5579 0.5579 0.8299 -109.8036 141.4035)" class="st1" width="4.1" height="4"/>
		
			<rect x="189.7" y="238.8" transform="matrix(0.8299 -0.5579 0.5579 0.8299 -101.7502 147.9558)" class="st1" width="4.1" height="4"/>
		
			<rect x="204.8" y="228.7" transform="matrix(0.8299 -0.5579 0.5579 0.8299 -93.5158 154.6554)" class="st1" width="4.1" height="4"/>
		
			<rect x="219.7" y="218.7" transform="matrix(0.8299 -0.5579 0.5579 0.8299 -85.4171 161.2446)" class="st1" width="4.1" height="4"/>
		
			<rect x="234.6" y="208.7" transform="matrix(0.8299 -0.5579 0.5579 0.8299 -77.2733 167.8706)" class="st1" width="4.1" height="4"/>
		
			<rect x="249.5" y="198.6" transform="matrix(0.8299 -0.5579 0.5579 0.8299 -69.1294 174.4966)" class="st1" width="4.1" height="4"/>
		
			<rect x="264.6" y="188.5" transform="matrix(0.8299 -0.5579 0.5579 0.8299 -60.9402 181.1594)" class="st1" width="4.1" height="4"/>
		
			<rect x="279.5" y="178.6" transform="matrix(0.8299 -0.5579 0.5579 0.8299 -52.8784 187.7938)" class="st1" width="4.1" height="4"/>
		
			<rect x="292.8" y="169.7" transform="matrix(0.8299 -0.5579 0.5579 0.8299 -45.6394 193.6835)" class="st1" width="4.1" height="4"/>
	</g>
	<g>
		
			<rect x="123.5" y="303.1" transform="matrix(0.8299 -0.5579 0.5579 0.8299 -148.8573 121.9376)" class="st1" width="4.1" height="4"/>
		
			<rect x="138.3" y="293.1" transform="matrix(0.8299 -0.5579 0.5579 0.8299 -140.7587 128.5267)" class="st1" width="4.1" height="4"/>
		
			<rect x="153.2" y="283.1" transform="matrix(0.8299 -0.5579 0.5579 0.8299 -132.66 135.1159)" class="st1" width="4.1" height="4"/>
		
			<rect x="168.2" y="273" transform="matrix(0.8299 -0.5579 0.5579 0.8299 -124.4709 141.7787)" class="st1" width="4.1" height="4"/>
		
			<rect x="184.1" y="262.4" transform="matrix(0.8299 -0.5579 0.5579 0.8299 -115.8661 148.8549)" class="st1" width="4.1" height="4"/>
		
			<rect x="198.9" y="252.5" transform="matrix(0.8299 -0.5579 0.5579 0.8299 -107.8127 155.4072)" class="st1" width="4.1" height="4"/>
		
			<rect x="214" y="242.4" transform="matrix(0.8299 -0.5579 0.5579 0.8299 -99.5783 162.1068)" class="st1" width="4.1" height="4"/>
		
			<rect x="228.9" y="232.4" transform="matrix(0.8299 -0.5579 0.5579 0.8299 -91.4797 168.696)" class="st1" width="4.1" height="4"/>
		
			<rect x="243.8" y="222.3" transform="matrix(0.8299 -0.5579 0.5579 0.8299 -83.3358 175.322)" class="st1" width="4.1" height="4"/>
		
			<rect x="258.7" y="212.3" transform="matrix(0.8299 -0.5579 0.5579 0.8299 -75.1919 181.948)" class="st1" width="4.1" height="4"/>
		
			<rect x="273.8" y="202.2" transform="matrix(0.8299 -0.5579 0.5579 0.8299 -67.0028 188.6107)" class="st1" width="4.1" height="4"/>
		
			<rect x="288.7" y="192.3" transform="matrix(0.8299 -0.5579 0.5579 0.8299 -58.941 195.2452)" class="st1" width="4.1" height="4"/>
		
			<rect x="301.9" y="183.4" transform="matrix(0.8299 -0.5579 0.5579 0.8299 -51.702 201.1349)" class="st1" width="4.1" height="4"/>
	</g>
	<g>
		
			<rect x="83.3" y="243.4" transform="matrix(0.8299 -0.5579 0.5579 0.8299 -122.3646 89.3759)" class="st1" width="4.1" height="4"/>
		<rect x="98.2" y="233.4" transform="matrix(0.8299 -0.5579 0.5579 0.8299 -114.266 95.965)" class="st1" width="4.1" height="4"/>
		
			<rect x="113" y="223.4" transform="matrix(0.8299 -0.5579 0.5579 0.8299 -106.1673 102.5542)" class="st1" width="4.1" height="4"/>
		
			<rect x="128.1" y="213.3" transform="matrix(0.8299 -0.5579 0.5579 0.8299 -97.9782 109.217)" class="st1" width="4.1" height="4"/>
		
			<rect x="144" y="202.7" transform="matrix(0.8299 -0.5579 0.5579 0.8299 -89.3735 116.2932)" class="st1" width="4.1" height="4"/>
		
			<rect x="158.7" y="192.8" transform="matrix(0.8299 -0.5579 0.5579 0.8299 -81.3201 122.8455)" class="st1" width="4.1" height="4"/>
		
			<rect x="173.9" y="182.6" transform="matrix(0.8299 -0.5579 0.5579 0.8299 -73.0857 129.5451)" class="st1" width="4.1" height="4"/>
		
			<rect x="188.7" y="172.6" transform="matrix(0.8299 -0.5579 0.5579 0.8299 -64.987 136.1343)" class="st1" width="4.1" height="4"/>
		
			<rect x="203.6" y="162.6" transform="matrix(0.8299 -0.5579 0.5579 0.8299 -56.8432 142.7603)" class="st1" width="4.1" height="4"/>
		
			<rect x="218.6" y="152.6" transform="matrix(0.8299 -0.5579 0.5579 0.8299 -48.6993 149.3863)" class="st1" width="4.1" height="4"/>
		
			<rect x="233.6" y="142.5" transform="matrix(0.8299 -0.5579 0.5579 0.8299 -40.5101 156.0491)" class="st1" width="4.1" height="4"/>
		
			<rect x="248.5" y="132.6" transform="matrix(0.8299 -0.5579 0.5579 0.8299 -32.4483 162.6835)" class="st1" width="4.1" height="4"/>
		
			<rect x="261.8" y="123.6" transform="matrix(0.8299 -0.5579 0.5579 0.8299 -25.2093 168.5732)" class="st1" width="4.1" height="4"/>
	</g>
	<g>
		
			<rect x="93.7" y="258.7" transform="matrix(0.8299 -0.5579 0.5579 0.8299 -129.1747 97.746)" class="st1" width="4.1" height="4"/>
		
			<rect x="108.5" y="248.7" transform="matrix(0.8299 -0.5579 0.5579 0.8299 -121.076 104.3352)" class="st1" width="4.1" height="4"/>
		
			<rect x="123.4" y="238.7" transform="matrix(0.8299 -0.5579 0.5579 0.8299 -112.9774 110.9243)" class="st1" width="4.1" height="4"/>
		
			<rect x="138.4" y="228.6" transform="matrix(0.8299 -0.5579 0.5579 0.8299 -104.7882 117.5871)" class="st1" width="4.1" height="4"/>
		
			<rect x="154.3" y="218.1" transform="matrix(0.8299 -0.5579 0.5579 0.8299 -96.1835 124.6633)" class="st1" width="4.1" height="4"/>
		
			<rect x="169.1" y="208.1" transform="matrix(0.8299 -0.5579 0.5579 0.8299 -88.1301 131.2156)" class="st1" width="4.1" height="4"/>
		
			<rect x="184.2" y="198" transform="matrix(0.8299 -0.5579 0.5579 0.8299 -79.8957 137.9152)" class="st1" width="4.1" height="4"/>
		<rect x="199" y="188" transform="matrix(0.8299 -0.5579 0.5579 0.8299 -71.7971 144.5044)" class="st1" width="4.1" height="4"/>
		<rect x="214" y="178" transform="matrix(0.8299 -0.5579 0.5579 0.8299 -63.6532 151.1304)" class="st1" width="4.1" height="4"/>
		
			<rect x="228.9" y="167.9" transform="matrix(0.8299 -0.5579 0.5579 0.8299 -55.5093 157.7564)" class="st1" width="4.1" height="4"/>
		
			<rect x="243.9" y="157.8" transform="matrix(0.8299 -0.5579 0.5579 0.8299 -47.3202 164.4192)" class="st1" width="4.1" height="4"/>
		
			<rect x="258.8" y="147.9" transform="matrix(0.8299 -0.5579 0.5579 0.8299 -39.2583 171.0536)" class="st1" width="4.1" height="4"/>
		
			<rect x="272.1" y="139" transform="matrix(0.8299 -0.5579 0.5579 0.8299 -32.0193 176.9433)" class="st1" width="4.1" height="4"/>
	</g>
	<g>
		
			<rect x="62.7" y="212.7" transform="matrix(0.8299 -0.5579 0.5579 0.8299 -108.7446 72.6357)" class="st1" width="4.1" height="4"/>
		
			<rect x="77.6" y="202.7" transform="matrix(0.8299 -0.5579 0.5579 0.8299 -100.6459 79.2248)" class="st1" width="4.1" height="4"/>
		<rect x="92.4" y="192.7" transform="matrix(0.8299 -0.5579 0.5579 0.8299 -92.5473 85.814)" class="st1" width="4.1" height="4"/>
		
			<rect x="107.4" y="182.6" transform="matrix(0.8299 -0.5579 0.5579 0.8299 -84.3581 92.4768)" class="st1" width="4.1" height="4"/>
		<rect x="123.3" y="172" transform="matrix(0.8299 -0.5579 0.5579 0.8299 -75.7534 99.5529)" class="st1" width="4.1" height="4"/>
		<rect x="138.1" y="162.1" transform="matrix(0.8299 -0.5579 0.5579 0.8299 -67.7 106.1053)" class="st1" width="4.1" height="4"/>
		
			<rect x="153.2" y="151.9" transform="matrix(0.8299 -0.5579 0.5579 0.8299 -59.4656 112.8049)" class="st1" width="4.1" height="4"/>
		
			<rect x="168.1" y="141.9" transform="matrix(0.8299 -0.5579 0.5579 0.8299 -51.367 119.3941)" class="st1" width="4.1" height="4"/>
		
			<rect x="183" y="131.9" transform="matrix(0.8299 -0.5579 0.5579 0.8299 -43.2231 126.0201)" class="st1" width="4.1" height="4"/>
		
			<rect x="197.9" y="121.9" transform="matrix(0.8299 -0.5579 0.5579 0.8299 -35.0792 132.646)" class="st1" width="4.1" height="4"/>
		
			<rect x="213" y="111.8" transform="matrix(0.8299 -0.5579 0.5579 0.8299 -26.8901 139.3088)" class="st1" width="4.1" height="4"/>
		
			<rect x="227.9" y="101.8" transform="matrix(0.8299 -0.5579 0.5579 0.8299 -18.8282 145.9433)" class="st1" width="4.1" height="4"/>
		
			<rect x="241.2" y="92.9" transform="matrix(0.8299 -0.5579 0.5579 0.8299 -11.5892 151.833)" class="st1" width="4.1" height="4"/>
	</g>
	<g>
		<rect x="73" y="228" transform="matrix(0.8299 -0.5579 0.5579 0.8299 -115.5546 81.0058)" class="st1" width="4.1" height="4"/>
		<rect x="87.9" y="218" transform="matrix(0.8299 -0.5579 0.5579 0.8299 -107.4559 87.5949)" class="st1" width="4.1" height="4"/>
		<rect x="102.7" y="208" transform="matrix(0.8299 -0.5579 0.5579 0.8299 -99.3573 94.1841)" class="st1" width="4.1" height="4"/>
		
			<rect x="117.7" y="197.9" transform="matrix(0.8299 -0.5579 0.5579 0.8299 -91.1682 100.8469)" class="st1" width="4.1" height="4"/>
		
			<rect x="133.7" y="187.4" transform="matrix(0.8299 -0.5579 0.5579 0.8299 -82.5634 107.9231)" class="st1" width="4.1" height="4"/>
		
			<rect x="148.4" y="177.4" transform="matrix(0.8299 -0.5579 0.5579 0.8299 -74.51 114.4754)" class="st1" width="4.1" height="4"/>
		
			<rect x="163.5" y="167.3" transform="matrix(0.8299 -0.5579 0.5579 0.8299 -66.2756 121.175)" class="st1" width="4.1" height="4"/>
		
			<rect x="178.4" y="157.3" transform="matrix(0.8299 -0.5579 0.5579 0.8299 -58.177 127.7642)" class="st1" width="4.1" height="4"/>
		
			<rect x="193.3" y="147.2" transform="matrix(0.8299 -0.5579 0.5579 0.8299 -50.0331 134.3902)" class="st1" width="4.1" height="4"/>
		
			<rect x="208.3" y="137.2" transform="matrix(0.8299 -0.5579 0.5579 0.8299 -41.8892 141.0161)" class="st1" width="4.1" height="4"/>
		
			<rect x="223.3" y="127.1" transform="matrix(0.8299 -0.5579 0.5579 0.8299 -33.7001 147.6789)" class="st1" width="4.1" height="4"/>
		
			<rect x="238.2" y="117.2" transform="matrix(0.8299 -0.5579 0.5579 0.8299 -25.6383 154.3134)" class="st1" width="4.1" height="4"/>
		
			<rect x="251.5" y="108.3" transform="matrix(0.8299 -0.5579 0.5579 0.8299 -18.3993 160.2031)" class="st1" width="4.1" height="4"/>
	</g>
	<g>
		
			<rect x="42.1" y="181.9" transform="matrix(0.8299 -0.5579 0.5579 0.8299 -95.1245 55.8955)" class="st1" width="4.1" height="4"/>
		<rect x="56.9" y="172" transform="matrix(0.8299 -0.5579 0.5579 0.8299 -87.0258 62.4846)" class="st1" width="4.1" height="4"/>
		<rect x="71.8" y="162" transform="matrix(0.8299 -0.5579 0.5579 0.8299 -78.9272 69.0738)" class="st1" width="4.1" height="4"/>
		
			<rect x="86.8" y="151.9" transform="matrix(0.8299 -0.5579 0.5579 0.8299 -70.7381 75.7366)" class="st1" width="4.1" height="4"/>
		
			<rect x="102.7" y="141.3" transform="matrix(0.8299 -0.5579 0.5579 0.8299 -62.1333 82.8127)" class="st1" width="4.1" height="4"/>
		
			<rect x="117.5" y="131.4" transform="matrix(0.8299 -0.5579 0.5579 0.8299 -54.0799 89.3651)" class="st1" width="4.1" height="4"/>
		
			<rect x="132.6" y="121.2" transform="matrix(0.8299 -0.5579 0.5579 0.8299 -45.8455 96.0647)" class="st1" width="4.1" height="4"/>
		
			<rect x="147.4" y="111.2" transform="matrix(0.8299 -0.5579 0.5579 0.8299 -37.7469 102.6539)" class="st1" width="4.1" height="4"/>
		
			<rect x="162.4" y="101.2" transform="matrix(0.8299 -0.5579 0.5579 0.8299 -29.603 109.2799)" class="st1" width="4.1" height="4"/>
		
			<rect x="177.3" y="91.1" transform="matrix(0.8299 -0.5579 0.5579 0.8299 -21.4591 115.9058)" class="st1" width="4.1" height="4"/>
		<rect x="192.3" y="81" transform="matrix(0.8299 -0.5579 0.5579 0.8299 -13.27 122.5686)" class="st1" width="4.1" height="4"/>
		<rect x="207.2" y="71.1" transform="matrix(0.8299 -0.5579 0.5579 0.8299 -5.2082 129.203)" class="st1" width="4.1" height="4"/>
		<rect x="220.5" y="62.2" transform="matrix(0.8299 -0.5579 0.5579 0.8299 2.0309 135.0928)" class="st1" width="4.1" height="4"/>
	</g>
	<g>
		
			<rect x="52.4" y="197.3" transform="matrix(0.8299 -0.5579 0.5579 0.8299 -101.9345 64.2656)" class="st1" width="4.1" height="4"/>
		
			<rect x="67.2" y="187.3" transform="matrix(0.8299 -0.5579 0.5579 0.8299 -93.8359 70.8547)" class="st1" width="4.1" height="4"/>
		
			<rect x="82.1" y="177.3" transform="matrix(0.8299 -0.5579 0.5579 0.8299 -85.7372 77.4439)" class="st1" width="4.1" height="4"/>
		
			<rect x="97.1" y="167.2" transform="matrix(0.8299 -0.5579 0.5579 0.8299 -77.5481 84.1067)" class="st1" width="4.1" height="4"/>
		<rect x="113" y="156.7" transform="matrix(0.8299 -0.5579 0.5579 0.8299 -68.9433 91.1828)" class="st1" width="4.1" height="4"/>
		
			<rect x="127.8" y="146.7" transform="matrix(0.8299 -0.5579 0.5579 0.8299 -60.8899 97.7352)" class="st1" width="4.1" height="4"/>
		
			<rect x="142.9" y="136.6" transform="matrix(0.8299 -0.5579 0.5579 0.8299 -52.6556 104.4348)" class="st1" width="4.1" height="4"/>
		
			<rect x="157.7" y="126.6" transform="matrix(0.8299 -0.5579 0.5579 0.8299 -44.5569 111.024)" class="st1" width="4.1" height="4"/>
		<rect x="172.7" y="116.5" transform="matrix(0.8299 -0.5579 0.5579 0.8299 -36.413 117.65)" class="st1" width="4.1" height="4"/>
		
			<rect x="187.6" y="106.5" transform="matrix(0.8299 -0.5579 0.5579 0.8299 -28.2692 124.2759)" class="st1" width="4.1" height="4"/>
		<rect x="202.6" y="96.4" transform="matrix(0.8299 -0.5579 0.5579 0.8299 -20.08 130.9387)" class="st1" width="4.1" height="4"/>
		
			<rect x="217.6" y="86.5" transform="matrix(0.8299 -0.5579 0.5579 0.8299 -12.0182 137.5732)" class="st1" width="4.1" height="4"/>
		
			<rect x="230.8" y="77.6" transform="matrix(0.8299 -0.5579 0.5579 0.8299 -4.7792 143.4629)" class="st1" width="4.1" height="4"/>
	</g>
	<g>
		
			<rect x="21.4" y="151.2" transform="matrix(0.8299 -0.5579 0.5579 0.8299 -81.5044 39.1552)" class="st1" width="4.1" height="4"/>
		
			<rect x="36.3" y="141.3" transform="matrix(0.8299 -0.5579 0.5579 0.8299 -73.4058 45.7444)" class="st1" width="4.1" height="4"/>
		
			<rect x="51.1" y="131.3" transform="matrix(0.8299 -0.5579 0.5579 0.8299 -65.3071 52.3336)" class="st1" width="4.1" height="4"/>
		<rect x="66.1" y="121.2" transform="matrix(0.8299 -0.5579 0.5579 0.8299 -57.118 58.9964)" class="st1" width="4.1" height="4"/>
		<rect x="82" y="110.6" transform="matrix(0.8299 -0.5579 0.5579 0.8299 -48.5132 66.0725)" class="st1" width="4.1" height="4"/>
		
			<rect x="96.8" y="100.7" transform="matrix(0.8299 -0.5579 0.5579 0.8299 -40.4598 72.6249)" class="st1" width="4.1" height="4"/>
		
			<rect x="111.9" y="90.5" transform="matrix(0.8299 -0.5579 0.5579 0.8299 -32.2255 79.3245)" class="st1" width="4.1" height="4"/>
		
			<rect x="126.8" y="80.5" transform="matrix(0.8299 -0.5579 0.5579 0.8299 -24.1268 85.9137)" class="st1" width="4.1" height="4"/>
		
			<rect x="141.7" y="70.5" transform="matrix(0.8299 -0.5579 0.5579 0.8299 -15.9829 92.5396)" class="st1" width="4.1" height="4"/>
		<rect x="156.7" y="60.4" transform="matrix(0.8299 -0.5579 0.5579 0.8299 -7.839 99.1656)" class="st1" width="4.1" height="4"/>
		<rect x="171.7" y="50.3" transform="matrix(0.8299 -0.5579 0.5579 0.8299 0.3501 105.8284)" class="st1" width="4.1" height="4"/>
		<rect x="186.6" y="40.4" transform="matrix(0.8299 -0.5579 0.5579 0.8299 8.4119 112.4628)" class="st1" width="4.1" height="4"/>
		
			<rect x="199.9" y="31.5" transform="matrix(0.8299 -0.5579 0.5579 0.8299 15.6509 118.3526)" class="st1" width="4.1" height="4"/>
	</g>
	<g>
		
			<rect x="31.7" y="166.6" transform="matrix(0.8299 -0.5579 0.5579 0.8299 -88.3144 47.5253)" class="st1" width="4.1" height="4"/>
		
			<rect x="46.6" y="156.6" transform="matrix(0.8299 -0.5579 0.5579 0.8299 -80.2158 54.1145)" class="st1" width="4.1" height="4"/>
		
			<rect x="61.4" y="146.6" transform="matrix(0.8299 -0.5579 0.5579 0.8299 -72.1172 60.7037)" class="st1" width="4.1" height="4"/>
		<rect x="76.5" y="136.5" transform="matrix(0.8299 -0.5579 0.5579 0.8299 -63.928 67.3665)" class="st1" width="4.1" height="4"/>
		
			<rect x="92.4" y="125.9" transform="matrix(0.8299 -0.5579 0.5579 0.8299 -55.3233 74.4426)" class="st1" width="4.1" height="4"/>
		<rect x="107.1" y="116" transform="matrix(0.8299 -0.5579 0.5579 0.8299 -47.2699 80.995)" class="st1" width="4.1" height="4"/>
		
			<rect x="122.2" y="105.9" transform="matrix(0.8299 -0.5579 0.5579 0.8299 -39.0355 87.6946)" class="st1" width="4.1" height="4"/>
		
			<rect x="137.1" y="95.9" transform="matrix(0.8299 -0.5579 0.5579 0.8299 -30.9369 94.2838)" class="st1" width="4.1" height="4"/>
		<rect x="152" y="85.8" transform="matrix(0.8299 -0.5579 0.5579 0.8299 -22.793 100.9097)" class="st1" width="4.1" height="4"/>
		<rect x="167" y="75.8" transform="matrix(0.8299 -0.5579 0.5579 0.8299 -14.6491 107.5357)" class="st1" width="4.1" height="4"/>
		<rect x="182" y="65.7" transform="matrix(0.8299 -0.5579 0.5579 0.8299 -6.4599 114.1985)" class="st1" width="4.1" height="4"/>
		<rect x="196.9" y="55.8" transform="matrix(0.8299 -0.5579 0.5579 0.8299 1.6019 120.8329)" class="st1" width="4.1" height="4"/>
		<rect x="210.2" y="46.9" transform="matrix(0.8299 -0.5579 0.5579 0.8299 8.8409 126.7227)" class="st1" width="4.1" height="4"/>
	</g>
	<g>
		<rect x="0.8" y="120.5" transform="matrix(0.8299 -0.5579 0.5579 0.8299 -67.8843 22.415)" class="st1" width="4.1" height="4"/>
		
			<rect x="15.6" y="110.5" transform="matrix(0.8299 -0.5579 0.5579 0.8299 -59.7857 29.0042)" class="st1" width="4.1" height="4"/>
		<rect x="30.5" y="100.6" transform="matrix(0.8299 -0.5579 0.5579 0.8299 -51.687 35.5934)" class="st1" width="4.1" height="4"/>
		<rect x="45.5" y="90.5" transform="matrix(0.8299 -0.5579 0.5579 0.8299 -43.4979 42.2562)" class="st1" width="4.1" height="4"/>
		<rect x="61.4" y="79.9" transform="matrix(0.8299 -0.5579 0.5579 0.8299 -34.8932 49.3323)" class="st1" width="4.1" height="4"/>
		<rect x="76.2" y="70" transform="matrix(0.8299 -0.5579 0.5579 0.8299 -26.8398 55.8847)" class="st1" width="4.1" height="4"/>
		<rect x="91.3" y="59.8" transform="matrix(0.8299 -0.5579 0.5579 0.8299 -18.6054 62.5843)" class="st1" width="4.1" height="4"/>
		
			<rect x="106.1" y="49.8" transform="matrix(0.8299 -0.5579 0.5579 0.8299 -10.5067 69.1734)" class="st1" width="4.1" height="4"/>
		<rect x="121.1" y="39.8" transform="matrix(0.8299 -0.5579 0.5579 0.8299 -2.3629 75.7994)" class="st1" width="4.1" height="4"/>
		<rect x="136" y="29.7" transform="matrix(0.8299 -0.5579 0.5579 0.8299 5.781 82.4254)" class="st1" width="4.1" height="4"/>
		<rect x="151" y="19.6" transform="matrix(0.8299 -0.5579 0.5579 0.8299 13.9702 89.0882)" class="st1" width="4.1" height="4"/>
		<rect x="165.9" y="9.7" transform="matrix(0.8299 -0.5579 0.5579 0.8299 22.032 95.7226)" class="st1" width="4.1" height="4"/>
		<rect x="179.2" y="0.8" transform="matrix(0.8299 -0.5579 0.5579 0.8299 29.271 101.6124)" class="st1" width="4.1" height="4"/>
	</g>
	<g>
		
			<rect x="11.1" y="135.9" transform="matrix(0.8299 -0.5579 0.5579 0.8299 -74.6944 30.7851)" class="st1" width="4.1" height="4"/>
		
			<rect x="25.9" y="125.9" transform="matrix(0.8299 -0.5579 0.5579 0.8299 -66.5957 37.3743)" class="st1" width="4.1" height="4"/>
		
			<rect x="40.8" y="115.9" transform="matrix(0.8299 -0.5579 0.5579 0.8299 -58.4971 43.9635)" class="st1" width="4.1" height="4"/>
		<rect x="55.8" y="105.8" transform="matrix(0.8299 -0.5579 0.5579 0.8299 -50.308 50.6263)" class="st1" width="4.1" height="4"/>
		<rect x="71.7" y="95.2" transform="matrix(0.8299 -0.5579 0.5579 0.8299 -41.7032 57.7024)" class="st1" width="4.1" height="4"/>
		<rect x="86.5" y="85.3" transform="matrix(0.8299 -0.5579 0.5579 0.8299 -33.6498 64.2548)" class="st1" width="4.1" height="4"/>
		
			<rect x="101.6" y="75.2" transform="matrix(0.8299 -0.5579 0.5579 0.8299 -25.4154 70.9544)" class="st1" width="4.1" height="4"/>
		
			<rect x="116.5" y="65.2" transform="matrix(0.8299 -0.5579 0.5579 0.8299 -17.3168 77.5435)" class="st1" width="4.1" height="4"/>
		<rect x="131.4" y="55.1" transform="matrix(0.8299 -0.5579 0.5579 0.8299 -9.1729 84.1695)" class="st1" width="4.1" height="4"/>
		<rect x="146.3" y="45.1" transform="matrix(0.8299 -0.5579 0.5579 0.8299 -1.029 90.7955)" class="st1" width="4.1" height="4"/>
		<rect x="161.4" y="35" transform="matrix(0.8299 -0.5579 0.5579 0.8299 7.1601 97.4583)" class="st1" width="4.1" height="4"/>
		<rect x="176.3" y="25.1" transform="matrix(0.8299 -0.5579 0.5579 0.8299 15.222 104.0927)" class="st1" width="4.1" height="4"/>
		<rect x="189.5" y="16.2" transform="matrix(0.8299 -0.5579 0.5579 0.8299 22.461 109.9825)" class="st1" width="4.1" height="4"/>
	</g>
</g>
</svg>
