<?xml version="1.0" encoding="utf-8"?>
<!-- Generator: Adobe Illustrator 22.1.0, SVG Export Plug-In . SVG Version: 6.00 Build 0)  -->
<svg version="1.1" id="Layer_1" xmlns="http://www.w3.org/2000/svg" xmlns:xlink="http://www.w3.org/1999/xlink" x="0px" y="0px"
	 viewBox="0 0 219 224.2" style="enable-background:new 0 0 219 224.2;" xml:space="preserve">
<style type="text/css">
	.st0{opacity:0.3;}
	.st1{fill:#6C757D;}
</style>
<g class="st0">
	<g>
		<rect y="185" class="st1" width="4.1" height="4"/>
		<rect x="17.9" y="185" class="st1" width="4.1" height="4"/>
		<rect x="35.8" y="185" class="st1" width="4.1" height="4"/>
		<rect x="53.9" y="185" class="st1" width="4.1" height="4"/>
		<rect x="73" y="185.1" class="st1" width="4.1" height="4"/>
		<rect x="90.8" y="185.1" class="st1" width="4.1" height="4"/>
		<rect x="109" y="185.1" class="st1" width="4.1" height="4"/>
		<rect x="126.9" y="185.1" class="st1" width="4.1" height="4"/>
		<rect x="144.9" y="185.1" class="st1" width="4.1" height="4"/>
		<rect x="162.9" y="185.1" class="st1" width="4.1" height="4"/>
		<rect x="181" y="185.1" class="st1" width="4.1" height="4"/>
		<rect x="198.9" y="185.2" class="st1" width="4.1" height="4"/>
		<rect x="214.9" y="185.2" class="st1" width="4.1" height="4"/>
	</g>
	<g>
		<rect y="203.5" class="st1" width="4.1" height="4"/>
		<rect x="17.9" y="203.5" class="st1" width="4.1" height="4"/>
		<rect x="35.8" y="203.5" class="st1" width="4.1" height="4"/>
		<rect x="53.9" y="203.5" class="st1" width="4.1" height="4"/>
		<rect x="73" y="203.6" class="st1" width="4.1" height="4"/>
		<rect x="90.8" y="203.6" class="st1" width="4.1" height="4"/>
		<rect x="109" y="203.6" class="st1" width="4.1" height="4"/>
		<rect x="126.9" y="203.6" class="st1" width="4.1" height="4"/>
		<rect x="144.9" y="203.6" class="st1" width="4.1" height="4"/>
		<rect x="162.9" y="203.6" class="st1" width="4.1" height="4"/>
		<rect x="181" y="203.6" class="st1" width="4.1" height="4"/>
		<rect x="198.9" y="203.7" class="st1" width="4.1" height="4"/>
		<rect x="214.9" y="203.7" class="st1" width="4.1" height="4"/>
	</g>
	<g>
		<rect y="220" class="st1" width="4.1" height="4"/>
		<rect x="17.9" y="220" class="st1" width="4.1" height="4"/>
		<rect x="35.8" y="220" class="st1" width="4.1" height="4"/>
		<rect x="53.9" y="220" class="st1" width="4.1" height="4"/>
		<rect x="73" y="220.1" class="st1" width="4.1" height="4"/>
		<rect x="90.8" y="220.1" class="st1" width="4.1" height="4"/>
		<rect x="109" y="220.1" class="st1" width="4.1" height="4"/>
		<rect x="126.9" y="220.1" class="st1" width="4.1" height="4"/>
		<rect x="144.9" y="220.1" class="st1" width="4.1" height="4"/>
		<rect x="162.9" y="220.1" class="st1" width="4.1" height="4"/>
		<rect x="181" y="220.1" class="st1" width="4.1" height="4"/>
		<rect x="198.9" y="220.2" class="st1" width="4.1" height="4"/>
		<rect x="214.9" y="220.2" class="st1" width="4.1" height="4"/>
	</g>
	<g>
		<rect y="148" class="st1" width="4.1" height="4"/>
		<rect x="17.9" y="148" class="st1" width="4.1" height="4"/>
		<rect x="35.8" y="148" class="st1" width="4.1" height="4"/>
		<rect x="53.9" y="148" class="st1" width="4.1" height="4"/>
		<rect x="73" y="148.1" class="st1" width="4.1" height="4"/>
		<rect x="90.8" y="148.1" class="st1" width="4.1" height="4"/>
		<rect x="109" y="148.1" class="st1" width="4.1" height="4"/>
		<rect x="126.9" y="148.1" class="st1" width="4.1" height="4"/>
		<rect x="144.9" y="148.1" class="st1" width="4.1" height="4"/>
		<rect x="162.9" y="148.1" class="st1" width="4.1" height="4"/>
		<rect x="181" y="148.1" class="st1" width="4.1" height="4"/>
		<rect x="198.9" y="148.2" class="st1" width="4.1" height="4"/>
		<rect x="214.9" y="148.2" class="st1" width="4.1" height="4"/>
	</g>
	<g>
		<rect y="166.5" class="st1" width="4.1" height="4"/>
		<rect x="17.9" y="166.5" class="st1" width="4.1" height="4"/>
		<rect x="35.8" y="166.5" class="st1" width="4.1" height="4"/>
		<rect x="53.9" y="166.5" class="st1" width="4.1" height="4"/>
		<rect x="73" y="166.6" class="st1" width="4.1" height="4"/>
		<rect x="90.8" y="166.6" class="st1" width="4.1" height="4"/>
		<rect x="109" y="166.6" class="st1" width="4.1" height="4"/>
		<rect x="126.9" y="166.6" class="st1" width="4.1" height="4"/>
		<rect x="144.9" y="166.6" class="st1" width="4.1" height="4"/>
		<rect x="162.9" y="166.6" class="st1" width="4.1" height="4"/>
		<rect x="181" y="166.6" class="st1" width="4.1" height="4"/>
		<rect x="198.9" y="166.7" class="st1" width="4.1" height="4"/>
		<rect x="214.9" y="166.7" class="st1" width="4.1" height="4"/>
	</g>
	<g>
		<rect y="111" class="st1" width="4.1" height="4"/>
		<rect x="17.9" y="111" class="st1" width="4.1" height="4"/>
		<rect x="35.8" y="111" class="st1" width="4.1" height="4"/>
		<rect x="53.9" y="111" class="st1" width="4.1" height="4"/>
		<rect x="73" y="111.1" class="st1" width="4.1" height="4"/>
		<rect x="90.8" y="111.1" class="st1" width="4.1" height="4"/>
		<rect x="109" y="111.1" class="st1" width="4.1" height="4"/>
		<rect x="126.9" y="111.1" class="st1" width="4.1" height="4"/>
		<rect x="144.9" y="111.1" class="st1" width="4.1" height="4"/>
		<rect x="162.9" y="111.1" class="st1" width="4.1" height="4"/>
		<rect x="181" y="111.1" class="st1" width="4.1" height="4"/>
		<rect x="198.9" y="111.2" class="st1" width="4.1" height="4"/>
		<rect x="214.9" y="111.2" class="st1" width="4.1" height="4"/>
	</g>
	<g>
		<rect y="129.5" class="st1" width="4.1" height="4"/>
		<rect x="17.9" y="129.5" class="st1" width="4.1" height="4"/>
		<rect x="35.8" y="129.5" class="st1" width="4.1" height="4"/>
		<rect x="53.9" y="129.5" class="st1" width="4.1" height="4"/>
		<rect x="73" y="129.6" class="st1" width="4.1" height="4"/>
		<rect x="90.8" y="129.6" class="st1" width="4.1" height="4"/>
		<rect x="109" y="129.6" class="st1" width="4.1" height="4"/>
		<rect x="126.9" y="129.6" class="st1" width="4.1" height="4"/>
		<rect x="144.9" y="129.6" class="st1" width="4.1" height="4"/>
		<rect x="162.9" y="129.6" class="st1" width="4.1" height="4"/>
		<rect x="181" y="129.6" class="st1" width="4.1" height="4"/>
		<rect x="198.9" y="129.7" class="st1" width="4.1" height="4"/>
		<rect x="214.9" y="129.7" class="st1" width="4.1" height="4"/>
	</g>
	<g>
		<rect y="74" class="st1" width="4.1" height="4"/>
		<rect x="17.9" y="74" class="st1" width="4.1" height="4"/>
		<rect x="35.8" y="74" class="st1" width="4.1" height="4"/>
		<rect x="53.9" y="74" class="st1" width="4.1" height="4"/>
		<rect x="73" y="74.1" class="st1" width="4.1" height="4"/>
		<rect x="90.8" y="74.1" class="st1" width="4.1" height="4"/>
		<rect x="109" y="74.1" class="st1" width="4.1" height="4"/>
		<rect x="126.9" y="74.1" class="st1" width="4.1" height="4"/>
		<rect x="144.9" y="74.1" class="st1" width="4.1" height="4"/>
		<rect x="162.9" y="74.1" class="st1" width="4.1" height="4"/>
		<rect x="181" y="74.1" class="st1" width="4.1" height="4"/>
		<rect x="198.9" y="74.2" class="st1" width="4.1" height="4"/>
		<rect x="214.9" y="74.2" class="st1" width="4.1" height="4"/>
	</g>
	<g>
		<rect y="92.5" class="st1" width="4.1" height="4"/>
		<rect x="17.9" y="92.5" class="st1" width="4.1" height="4"/>
		<rect x="35.8" y="92.5" class="st1" width="4.1" height="4"/>
		<rect x="53.9" y="92.5" class="st1" width="4.1" height="4"/>
		<rect x="73" y="92.6" class="st1" width="4.1" height="4"/>
		<rect x="90.8" y="92.6" class="st1" width="4.1" height="4"/>
		<rect x="109" y="92.6" class="st1" width="4.1" height="4"/>
		<rect x="126.9" y="92.6" class="st1" width="4.1" height="4"/>
		<rect x="144.9" y="92.6" class="st1" width="4.1" height="4"/>
		<rect x="162.9" y="92.6" class="st1" width="4.1" height="4"/>
		<rect x="181" y="92.6" class="st1" width="4.1" height="4"/>
		<rect x="198.9" y="92.7" class="st1" width="4.1" height="4"/>
		<rect x="214.9" y="92.7" class="st1" width="4.1" height="4"/>
	</g>
	<g>
		<rect y="37" class="st1" width="4.1" height="4"/>
		<rect x="17.9" y="37" class="st1" width="4.1" height="4"/>
		<rect x="35.8" y="37" class="st1" width="4.1" height="4"/>
		<rect x="53.9" y="37" class="st1" width="4.1" height="4"/>
		<rect x="73" y="37.1" class="st1" width="4.1" height="4"/>
		<rect x="90.8" y="37.1" class="st1" width="4.1" height="4"/>
		<rect x="109" y="37.1" class="st1" width="4.1" height="4"/>
		<rect x="126.9" y="37.1" class="st1" width="4.1" height="4"/>
		<rect x="144.9" y="37.1" class="st1" width="4.1" height="4"/>
		<rect x="162.9" y="37.1" class="st1" width="4.1" height="4"/>
		<rect x="181" y="37.1" class="st1" width="4.1" height="4"/>
		<rect x="198.9" y="37.2" class="st1" width="4.1" height="4"/>
		<rect x="214.9" y="37.2" class="st1" width="4.1" height="4"/>
	</g>
	<g>
		<rect y="55.5" class="st1" width="4.1" height="4"/>
		<rect x="17.9" y="55.5" class="st1" width="4.1" height="4"/>
		<rect x="35.8" y="55.5" class="st1" width="4.1" height="4"/>
		<rect x="53.9" y="55.5" class="st1" width="4.1" height="4"/>
		<rect x="73" y="55.6" class="st1" width="4.1" height="4"/>
		<rect x="90.8" y="55.6" class="st1" width="4.1" height="4"/>
		<rect x="109" y="55.6" class="st1" width="4.1" height="4"/>
		<rect x="126.9" y="55.6" class="st1" width="4.1" height="4"/>
		<rect x="144.9" y="55.6" class="st1" width="4.1" height="4"/>
		<rect x="162.9" y="55.6" class="st1" width="4.1" height="4"/>
		<rect x="181" y="55.6" class="st1" width="4.1" height="4"/>
		<rect x="198.9" y="55.7" class="st1" width="4.1" height="4"/>
		<rect x="214.9" y="55.7" class="st1" width="4.1" height="4"/>
	</g>
	<g>
		<rect class="st1" width="4.1" height="4"/>
		<rect x="17.9" class="st1" width="4.1" height="4"/>
		<rect x="35.8" class="st1" width="4.1" height="4"/>
		<rect x="53.9" class="st1" width="4.1" height="4"/>
		<rect x="73" y="0.1" class="st1" width="4.1" height="4"/>
		<rect x="90.8" y="0.1" class="st1" width="4.1" height="4"/>
		<rect x="109" y="0.1" class="st1" width="4.1" height="4"/>
		<rect x="126.9" y="0.1" class="st1" width="4.1" height="4"/>
		<rect x="144.9" y="0.1" class="st1" width="4.1" height="4"/>
		<rect x="162.9" y="0.1" class="st1" width="4.1" height="4"/>
		<rect x="181" y="0.1" class="st1" width="4.1" height="4"/>
		<rect x="198.9" y="0.2" class="st1" width="4.1" height="4"/>
		<rect x="214.9" y="0.2" class="st1" width="4.1" height="4"/>
	</g>
	<g>
		<rect y="18.5" class="st1" width="4.1" height="4"/>
		<rect x="17.9" y="18.5" class="st1" width="4.1" height="4"/>
		<rect x="35.8" y="18.5" class="st1" width="4.1" height="4"/>
		<rect x="53.9" y="18.5" class="st1" width="4.1" height="4"/>
		<rect x="73" y="18.6" class="st1" width="4.1" height="4"/>
		<rect x="90.8" y="18.6" class="st1" width="4.1" height="4"/>
		<rect x="109" y="18.6" class="st1" width="4.1" height="4"/>
		<rect x="126.9" y="18.6" class="st1" width="4.1" height="4"/>
		<rect x="144.9" y="18.6" class="st1" width="4.1" height="4"/>
		<rect x="162.9" y="18.6" class="st1" width="4.1" height="4"/>
		<rect x="181" y="18.6" class="st1" width="4.1" height="4"/>
		<rect x="198.9" y="18.7" class="st1" width="4.1" height="4"/>
		<rect x="214.9" y="18.7" class="st1" width="4.1" height="4"/>
	</g>
</g>
</svg>
