<?xml version="1.0" encoding="utf-8"?>
<!-- Generator: Adobe Illustrator 22.1.0, SVG Export Plug-In . SVG Version: 6.00 Build 0)  -->
<svg version="1.1" id="Layer_1" xmlns="http://www.w3.org/2000/svg" xmlns:xlink="http://www.w3.org/1999/xlink" x="0px" y="0px"
	 viewBox="0 0 234 270.4" style="enable-background:new 0 0 234 270.4;" xml:space="preserve">
<style type="text/css">
	.st0{clip-path:url(#SVGID_2_);}
	.st1{opacity:0.3;}
	.st2{fill:#6C757D;}
</style>
<g>
	<defs>
		<polygon id="SVGID_1_" points="234,0 231.4,134.2 232.1,270.4 112.3,196 0,126.2 116.6,62.9 		"/>
	</defs>
	<clipPath id="SVGID_2_">
		<use xlink:href="#SVGID_1_"  style="overflow:visible;"/>
	</clipPath>
	<g class="st0">
		<g class="st1">
			<g>
				
					<rect x="-5.8" y="-53" transform="matrix(0.5277 -0.8494 0.8494 0.5277 41.4824 -27.2925)" class="st2" width="4" height="4.1"/>
				
					<rect x="9.4" y="-43.6" transform="matrix(0.5277 -0.8494 0.8494 0.5277 40.6389 -9.9166)" class="st2" width="4" height="4.1"/>
				
					<rect x="24.6" y="-34.1" transform="matrix(0.5277 -0.8494 0.8494 0.5277 39.7954 7.4594)" class="st2" width="4" height="4.1"/>
				<rect x="40" y="-24.6" transform="matrix(0.5277 -0.8494 0.8494 0.5277 38.9425 25.0295)" class="st2" width="4" height="4.1"/>
				
					<rect x="56.2" y="-14.4" transform="matrix(0.5277 -0.8494 0.8494 0.5277 37.9454 43.5656)" class="st2" width="4" height="4.1"/>
				<rect x="71.3" y="-5" transform="matrix(0.5277 -0.8494 0.8494 0.5277 37.1067 60.8445)" class="st2" width="4" height="4.1"/>
				<rect x="86.7" y="4.6" transform="matrix(0.5277 -0.8494 0.8494 0.5277 36.2491 78.5117)" class="st2" width="4" height="4.1"/>
				
					<rect x="101.9" y="14.1" transform="matrix(0.5277 -0.8494 0.8494 0.5277 35.4056 95.8876)" class="st2" width="4" height="4.1"/>
				
					<rect x="117.2" y="23.6" transform="matrix(0.5277 -0.8494 0.8494 0.5277 34.5574 113.3606)" class="st2" width="4" height="4.1"/>
				
					<rect x="132.5" y="33.1" transform="matrix(0.5277 -0.8494 0.8494 0.5277 33.7093 130.8336)" class="st2" width="4" height="4.1"/>
				
					<rect x="147.9" y="42.6" transform="matrix(0.5277 -0.8494 0.8494 0.5277 32.8564 148.4038)" class="st2" width="4" height="4.1"/>
				<rect x="163" y="52.1" transform="matrix(0.5277 -0.8494 0.8494 0.5277 31.9158 165.775)" class="st2" width="4" height="4.1"/>
				
					<rect x="176.6" y="60.6" transform="matrix(0.5277 -0.8494 0.8494 0.5277 31.1619 181.3066)" class="st2" width="4" height="4.1"/>
			</g>
			<g>
				
					<rect x="-15.6" y="-37.3" transform="matrix(0.5277 -0.8494 0.8494 0.5277 23.524 -28.1642)" class="st2" width="4" height="4.1"/>
				
					<rect x="-0.4" y="-27.8" transform="matrix(0.5277 -0.8494 0.8494 0.5277 22.6805 -10.7883)" class="st2" width="4" height="4.1"/>
				<rect x="14.8" y="-18.4" transform="matrix(0.5277 -0.8494 0.8494 0.5277 21.837 6.5877)" class="st2" width="4" height="4.1"/>
				
					<rect x="30.2" y="-8.8" transform="matrix(0.5277 -0.8494 0.8494 0.5277 20.9841 24.1578)" class="st2" width="4" height="4.1"/>
				<rect x="46.4" y="1.3" transform="matrix(0.5277 -0.8494 0.8494 0.5277 19.9871 42.6939)" class="st2" width="4" height="4.1"/>
				
					<rect x="61.5" y="10.7" transform="matrix(0.5277 -0.8494 0.8494 0.5277 19.1483 59.9727)" class="st2" width="4" height="4.1"/>
				<rect x="77" y="20.3" transform="matrix(0.5277 -0.8494 0.8494 0.5277 18.2907 77.6399)" class="st2" width="4" height="4.1"/>
				
					<rect x="92.2" y="29.8" transform="matrix(0.5277 -0.8494 0.8494 0.5277 17.4472 95.0159)" class="st2" width="4" height="4.1"/>
				
					<rect x="107.5" y="39.3" transform="matrix(0.5277 -0.8494 0.8494 0.5277 16.599 112.4889)" class="st2" width="4" height="4.1"/>
				
					<rect x="122.7" y="48.8" transform="matrix(0.5277 -0.8494 0.8494 0.5277 15.7509 129.9619)" class="st2" width="4" height="4.1"/>
				
					<rect x="138.1" y="58.3" transform="matrix(0.5277 -0.8494 0.8494 0.5277 14.898 147.532)" class="st2" width="4" height="4.1"/>
				
					<rect x="153.3" y="67.8" transform="matrix(0.5277 -0.8494 0.8494 0.5277 13.9574 164.9033)" class="st2" width="4" height="4.1"/>
				
					<rect x="166.9" y="76.3" transform="matrix(0.5277 -0.8494 0.8494 0.5277 13.2035 180.4348)" class="st2" width="4" height="4.1"/>
			</g>
			<g>
				
					<rect x="-24.3" y="-23.3" transform="matrix(0.5277 -0.8494 0.8494 0.5277 7.5367 -28.9403)" class="st2" width="4" height="4.1"/>
				
					<rect x="-9.1" y="-13.9" transform="matrix(0.5277 -0.8494 0.8494 0.5277 6.6933 -11.5643)" class="st2" width="4" height="4.1"/>
				<rect x="6.2" y="-4.4" transform="matrix(0.5277 -0.8494 0.8494 0.5277 5.8498 5.8116)" class="st2" width="4" height="4.1"/>
				<rect x="21.5" y="5.1" transform="matrix(0.5277 -0.8494 0.8494 0.5277 4.9969 23.3817)" class="st2" width="4" height="4.1"/>
				<rect x="37.7" y="15.3" transform="matrix(0.5277 -0.8494 0.8494 0.5277 3.9998 41.9178)" class="st2" width="4" height="4.1"/>
				<rect x="52.8" y="24.7" transform="matrix(0.5277 -0.8494 0.8494 0.5277 3.1611 59.1967)" class="st2" width="4" height="4.1"/>
				<rect x="68.3" y="34.3" transform="matrix(0.5277 -0.8494 0.8494 0.5277 2.3035 76.8639)" class="st2" width="4" height="4.1"/>
				<rect x="83.5" y="43.8" transform="matrix(0.5277 -0.8494 0.8494 0.5277 1.46 94.2398)" class="st2" width="4" height="4.1"/>
				
					<rect x="98.8" y="53.3" transform="matrix(0.5277 -0.8494 0.8494 0.5277 0.6118 111.7128)" class="st2" width="4" height="4.1"/>
				
					<rect x="114.1" y="62.8" transform="matrix(0.5277 -0.8494 0.8494 0.5277 -0.2364 129.1859)" class="st2" width="4" height="4.1"/>
				
					<rect x="129.4" y="72.3" transform="matrix(0.5277 -0.8494 0.8494 0.5277 -1.0893 146.756)" class="st2" width="4" height="4.1"/>
				
					<rect x="144.6" y="81.8" transform="matrix(0.5277 -0.8494 0.8494 0.5277 -2.0298 164.1272)" class="st2" width="4" height="4.1"/>
				
					<rect x="158.2" y="90.3" transform="matrix(0.5277 -0.8494 0.8494 0.5277 -2.7837 179.6588)" class="st2" width="4" height="4.1"/>
			</g>
			<g>
				
					<rect x="13.7" y="-84.4" transform="matrix(0.5277 -0.8494 0.8494 0.5277 77.3991 -25.549)" class="st2" width="4" height="4.1"/>
				<rect x="28.9" y="-75" transform="matrix(0.5277 -0.8494 0.8494 0.5277 76.5557 -8.1731)" class="st2" width="4" height="4.1"/>
				
					<rect x="44.1" y="-65.5" transform="matrix(0.5277 -0.8494 0.8494 0.5277 75.7122 9.2029)" class="st2" width="4" height="4.1"/>
				<rect x="59.5" y="-56" transform="matrix(0.5277 -0.8494 0.8494 0.5277 74.8593 26.773)" class="st2" width="4" height="4.1"/>
				
					<rect x="75.7" y="-45.8" transform="matrix(0.5277 -0.8494 0.8494 0.5277 73.8622 45.3091)" class="st2" width="4" height="4.1"/>
				
					<rect x="90.8" y="-36.4" transform="matrix(0.5277 -0.8494 0.8494 0.5277 73.0235 62.588)" class="st2" width="4" height="4.1"/>
				
					<rect x="106.3" y="-26.8" transform="matrix(0.5277 -0.8494 0.8494 0.5277 72.1659 80.2551)" class="st2" width="4" height="4.1"/>
				
					<rect x="121.5" y="-17.4" transform="matrix(0.5277 -0.8494 0.8494 0.5277 71.3224 97.6311)" class="st2" width="4" height="4.1"/>
				
					<rect x="136.7" y="-7.9" transform="matrix(0.5277 -0.8494 0.8494 0.5277 70.4742 115.1041)" class="st2" width="4" height="4.1"/>
				<rect x="152" y="1.6" transform="matrix(0.5277 -0.8494 0.8494 0.5277 69.626 132.5771)" class="st2" width="4" height="4.1"/>
				
					<rect x="167.4" y="11.2" transform="matrix(0.5277 -0.8494 0.8494 0.5277 68.7731 150.1472)" class="st2" width="4" height="4.1"/>
				
					<rect x="182.6" y="20.7" transform="matrix(0.5277 -0.8494 0.8494 0.5277 67.8326 167.5185)" class="st2" width="4" height="4.1"/>
				
					<rect x="196.2" y="29.2" transform="matrix(0.5277 -0.8494 0.8494 0.5277 67.0787 183.05)" class="st2" width="4" height="4.1"/>
			</g>
			<g>
				<rect x="4" y="-68.7" transform="matrix(0.5277 -0.8494 0.8494 0.5277 59.4407 -26.4208)" class="st2" width="4" height="4.1"/>
				
					<rect x="19.2" y="-59.3" transform="matrix(0.5277 -0.8494 0.8494 0.5277 58.5973 -9.0448)" class="st2" width="4" height="4.1"/>
				
					<rect x="34.4" y="-49.8" transform="matrix(0.5277 -0.8494 0.8494 0.5277 57.7538 8.3311)" class="st2" width="4" height="4.1"/>
				
					<rect x="49.7" y="-40.3" transform="matrix(0.5277 -0.8494 0.8494 0.5277 56.9009 25.9012)" class="st2" width="4" height="4.1"/>
				
					<rect x="65.9" y="-30.1" transform="matrix(0.5277 -0.8494 0.8494 0.5277 55.9038 44.4373)" class="st2" width="4" height="4.1"/>
				<rect x="81" y="-20.7" transform="matrix(0.5277 -0.8494 0.8494 0.5277 55.0651 61.7162)" class="st2" width="4" height="4.1"/>
				
					<rect x="96.5" y="-11.1" transform="matrix(0.5277 -0.8494 0.8494 0.5277 54.2075 79.3834)" class="st2" width="4" height="4.1"/>
				
					<rect x="111.7" y="-1.7" transform="matrix(0.5277 -0.8494 0.8494 0.5277 53.364 96.7594)" class="st2" width="4" height="4.1"/>
				<rect x="127" y="7.8" transform="matrix(0.5277 -0.8494 0.8494 0.5277 52.5158 114.2324)" class="st2" width="4" height="4.1"/>
				
					<rect x="142.3" y="17.3" transform="matrix(0.5277 -0.8494 0.8494 0.5277 51.6676 131.7054)" class="st2" width="4" height="4.1"/>
				
					<rect x="157.7" y="26.9" transform="matrix(0.5277 -0.8494 0.8494 0.5277 50.8147 149.2755)" class="st2" width="4" height="4.1"/>
				
					<rect x="172.8" y="36.4" transform="matrix(0.5277 -0.8494 0.8494 0.5277 49.8742 166.6467)" class="st2" width="4" height="4.1"/>
				
					<rect x="186.4" y="44.9" transform="matrix(0.5277 -0.8494 0.8494 0.5277 49.1203 182.1783)" class="st2" width="4" height="4.1"/>
			</g>
			<g>
				
					<rect x="33.2" y="-115.9" transform="matrix(0.5277 -0.8494 0.8494 0.5277 113.3159 -23.8055)" class="st2" width="4" height="4.1"/>
				
					<rect x="48.5" y="-106.4" transform="matrix(0.5277 -0.8494 0.8494 0.5277 112.4724 -6.4296)" class="st2" width="4" height="4.1"/>
				<rect x="63.7" y="-97" transform="matrix(0.5277 -0.8494 0.8494 0.5277 111.629 10.9464)" class="st2" width="4" height="4.1"/>
				
					<rect x="79" y="-87.4" transform="matrix(0.5277 -0.8494 0.8494 0.5277 110.7761 28.5165)" class="st2" width="4" height="4.1"/>
				
					<rect x="95.2" y="-77.2" transform="matrix(0.5277 -0.8494 0.8494 0.5277 109.779 47.0526)" class="st2" width="4" height="4.1"/>
				
					<rect x="110.3" y="-67.9" transform="matrix(0.5277 -0.8494 0.8494 0.5277 108.9402 64.3315)" class="st2" width="4" height="4.1"/>
				
					<rect x="125.8" y="-58.2" transform="matrix(0.5277 -0.8494 0.8494 0.5277 108.0826 81.9986)" class="st2" width="4" height="4.1"/>
				
					<rect x="141" y="-48.8" transform="matrix(0.5277 -0.8494 0.8494 0.5277 107.2392 99.3746)" class="st2" width="4" height="4.1"/>
				
					<rect x="156.3" y="-39.3" transform="matrix(0.5277 -0.8494 0.8494 0.5277 106.391 116.8476)" class="st2" width="4" height="4.1"/>
				
					<rect x="171.6" y="-29.8" transform="matrix(0.5277 -0.8494 0.8494 0.5277 105.5428 134.3206)" class="st2" width="4" height="4.1"/>
				
					<rect x="186.9" y="-20.3" transform="matrix(0.5277 -0.8494 0.8494 0.5277 104.6899 151.8907)" class="st2" width="4" height="4.1"/>
				
					<rect x="202.1" y="-10.7" transform="matrix(0.5277 -0.8494 0.8494 0.5277 103.7494 169.262)" class="st2" width="4" height="4.1"/>
				
					<rect x="215.7" y="-2.3" transform="matrix(0.5277 -0.8494 0.8494 0.5277 102.9954 184.7935)" class="st2" width="4" height="4.1"/>
			</g>
			<g>
				
					<rect x="23.5" y="-100.1" transform="matrix(0.5277 -0.8494 0.8494 0.5277 95.3575 -24.6773)" class="st2" width="4" height="4.1"/>
				
					<rect x="38.7" y="-90.7" transform="matrix(0.5277 -0.8494 0.8494 0.5277 94.5141 -7.3013)" class="st2" width="4" height="4.1"/>
				
					<rect x="53.9" y="-81.3" transform="matrix(0.5277 -0.8494 0.8494 0.5277 93.6706 10.0746)" class="st2" width="4" height="4.1"/>
				
					<rect x="69.3" y="-71.7" transform="matrix(0.5277 -0.8494 0.8494 0.5277 92.8177 27.6447)" class="st2" width="4" height="4.1"/>
				
					<rect x="85.4" y="-61.5" transform="matrix(0.5277 -0.8494 0.8494 0.5277 91.8206 46.1808)" class="st2" width="4" height="4.1"/>
				
					<rect x="100.6" y="-52.1" transform="matrix(0.5277 -0.8494 0.8494 0.5277 90.9818 63.4597)" class="st2" width="4" height="4.1"/>
				
					<rect x="116" y="-42.5" transform="matrix(0.5277 -0.8494 0.8494 0.5277 90.1242 81.1269)" class="st2" width="4" height="4.1"/>
				
					<rect x="131.2" y="-33.1" transform="matrix(0.5277 -0.8494 0.8494 0.5277 89.2808 98.5028)" class="st2" width="4" height="4.1"/>
				
					<rect x="146.5" y="-23.6" transform="matrix(0.5277 -0.8494 0.8494 0.5277 88.4326 115.9759)" class="st2" width="4" height="4.1"/>
				
					<rect x="161.8" y="-14.1" transform="matrix(0.5277 -0.8494 0.8494 0.5277 87.5844 133.4489)" class="st2" width="4" height="4.1"/>
				
					<rect x="177.2" y="-4.5" transform="matrix(0.5277 -0.8494 0.8494 0.5277 86.7315 151.019)" class="st2" width="4" height="4.1"/>
				<rect x="192.3" y="5" transform="matrix(0.5277 -0.8494 0.8494 0.5277 85.791 168.3902)" class="st2" width="4" height="4.1"/>
				
					<rect x="205.9" y="13.4" transform="matrix(0.5277 -0.8494 0.8494 0.5277 85.037 183.9218)" class="st2" width="4" height="4.1"/>
			</g>
			<g>
				
					<rect x="52.8" y="-147.3" transform="matrix(0.5277 -0.8494 0.8494 0.5277 149.2327 -22.0621)" class="st2" width="4" height="4.1"/>
				
					<rect x="68" y="-137.8" transform="matrix(0.5277 -0.8494 0.8494 0.5277 148.3892 -4.6861)" class="st2" width="4" height="4.1"/>
				
					<rect x="83.2" y="-128.4" transform="matrix(0.5277 -0.8494 0.8494 0.5277 147.5457 12.6898)" class="st2" width="4" height="4.1"/>
				
					<rect x="98.6" y="-118.8" transform="matrix(0.5277 -0.8494 0.8494 0.5277 146.6929 30.2599)" class="st2" width="4" height="4.1"/>
				
					<rect x="114.7" y="-108.7" transform="matrix(0.5277 -0.8494 0.8494 0.5277 145.6958 48.796)" class="st2" width="4" height="4.1"/>
				
					<rect x="129.8" y="-99.3" transform="matrix(0.5277 -0.8494 0.8494 0.5277 144.857 66.0749)" class="st2" width="4" height="4.1"/>
				
					<rect x="145.3" y="-89.7" transform="matrix(0.5277 -0.8494 0.8494 0.5277 143.9994 83.7421)" class="st2" width="4" height="4.1"/>
				
					<rect x="160.5" y="-80.2" transform="matrix(0.5277 -0.8494 0.8494 0.5277 143.1559 101.118)" class="st2" width="4" height="4.1"/>
				
					<rect x="175.8" y="-70.7" transform="matrix(0.5277 -0.8494 0.8494 0.5277 142.3078 118.5911)" class="st2" width="4" height="4.1"/>
				
					<rect x="191.1" y="-61.2" transform="matrix(0.5277 -0.8494 0.8494 0.5277 141.4596 136.0641)" class="st2" width="4" height="4.1"/>
				
					<rect x="206.5" y="-51.7" transform="matrix(0.5277 -0.8494 0.8494 0.5277 140.6067 153.6342)" class="st2" width="4" height="4.1"/>
				
					<rect x="221.6" y="-42.1" transform="matrix(0.5277 -0.8494 0.8494 0.5277 139.6661 171.0054)" class="st2" width="4" height="4.1"/>
				
					<rect x="235.2" y="-33.7" transform="matrix(0.5277 -0.8494 0.8494 0.5277 138.9122 186.537)" class="st2" width="4" height="4.1"/>
			</g>
			<g>
				
					<rect x="43" y="-131.6" transform="matrix(0.5277 -0.8494 0.8494 0.5277 131.2743 -22.9338)" class="st2" width="4" height="4.1"/>
				
					<rect x="58.2" y="-122.1" transform="matrix(0.5277 -0.8494 0.8494 0.5277 130.4308 -5.5578)" class="st2" width="4" height="4.1"/>
				
					<rect x="73.4" y="-112.7" transform="matrix(0.5277 -0.8494 0.8494 0.5277 129.5874 11.8181)" class="st2" width="4" height="4.1"/>
				
					<rect x="88.8" y="-103.1" transform="matrix(0.5277 -0.8494 0.8494 0.5277 128.7345 29.3882)" class="st2" width="4" height="4.1"/>
				<rect x="105" y="-93" transform="matrix(0.5277 -0.8494 0.8494 0.5277 127.7374 47.9243)" class="st2" width="4" height="4.1"/>
				
					<rect x="120.1" y="-83.6" transform="matrix(0.5277 -0.8494 0.8494 0.5277 126.8986 65.2032)" class="st2" width="4" height="4.1"/>
				
					<rect x="135.5" y="-74" transform="matrix(0.5277 -0.8494 0.8494 0.5277 126.041 82.8704)" class="st2" width="4" height="4.1"/>
				
					<rect x="150.7" y="-64.5" transform="matrix(0.5277 -0.8494 0.8494 0.5277 125.1975 100.2463)" class="st2" width="4" height="4.1"/>
				
					<rect x="166" y="-55" transform="matrix(0.5277 -0.8494 0.8494 0.5277 124.3494 117.7193)" class="st2" width="4" height="4.1"/>
				
					<rect x="181.3" y="-45.5" transform="matrix(0.5277 -0.8494 0.8494 0.5277 123.5012 135.1924)" class="st2" width="4" height="4.1"/>
				
					<rect x="196.7" y="-36" transform="matrix(0.5277 -0.8494 0.8494 0.5277 122.6483 152.7625)" class="st2" width="4" height="4.1"/>
				
					<rect x="211.9" y="-26.4" transform="matrix(0.5277 -0.8494 0.8494 0.5277 121.7077 170.1337)" class="st2" width="4" height="4.1"/>
				
					<rect x="225.4" y="-18" transform="matrix(0.5277 -0.8494 0.8494 0.5277 120.9538 185.6653)" class="st2" width="4" height="4.1"/>
			</g>
			<g>
				
					<rect x="72.3" y="-178.7" transform="matrix(0.5277 -0.8494 0.8494 0.5277 185.1495 -20.3186)" class="st2" width="4" height="4.1"/>
				
					<rect x="87.5" y="-169.3" transform="matrix(0.5277 -0.8494 0.8494 0.5277 184.306 -2.9426)" class="st2" width="4" height="4.1"/>
				
					<rect x="102.7" y="-159.8" transform="matrix(0.5277 -0.8494 0.8494 0.5277 183.4625 14.4333)" class="st2" width="4" height="4.1"/>
				
					<rect x="118.1" y="-150.3" transform="matrix(0.5277 -0.8494 0.8494 0.5277 182.6096 32.0034)" class="st2" width="4" height="4.1"/>
				
					<rect x="134.3" y="-140.1" transform="matrix(0.5277 -0.8494 0.8494 0.5277 181.6125 50.5395)" class="st2" width="4" height="4.1"/>
				
					<rect x="149.4" y="-130.7" transform="matrix(0.5277 -0.8494 0.8494 0.5277 180.7738 67.8184)" class="st2" width="4" height="4.1"/>
				
					<rect x="164.8" y="-121.1" transform="matrix(0.5277 -0.8494 0.8494 0.5277 179.9162 85.4856)" class="st2" width="4" height="4.1"/>
				
					<rect x="180" y="-111.7" transform="matrix(0.5277 -0.8494 0.8494 0.5277 179.0727 102.8615)" class="st2" width="4" height="4.1"/>
				
					<rect x="195.3" y="-102.2" transform="matrix(0.5277 -0.8494 0.8494 0.5277 178.2245 120.3346)" class="st2" width="4" height="4.1"/>
				
					<rect x="210.6" y="-92.7" transform="matrix(0.5277 -0.8494 0.8494 0.5277 177.3763 137.8076)" class="st2" width="4" height="4.1"/>
				
					<rect x="226" y="-83.1" transform="matrix(0.5277 -0.8494 0.8494 0.5277 176.5235 155.3777)" class="st2" width="4" height="4.1"/>
				
					<rect x="241.1" y="-73.6" transform="matrix(0.5277 -0.8494 0.8494 0.5277 175.5829 172.7489)" class="st2" width="4" height="4.1"/>
				
					<rect x="254.7" y="-65.1" transform="matrix(0.5277 -0.8494 0.8494 0.5277 174.829 188.2805)" class="st2" width="4" height="4.1"/>
			</g>
			<g>
				
					<rect x="62.5" y="-163" transform="matrix(0.5277 -0.8494 0.8494 0.5277 167.1911 -21.1903)" class="st2" width="4" height="4.1"/>
				
					<rect x="77.7" y="-153.6" transform="matrix(0.5277 -0.8494 0.8494 0.5277 166.3476 -3.8144)" class="st2" width="4" height="4.1"/>
				
					<rect x="92.9" y="-144.1" transform="matrix(0.5277 -0.8494 0.8494 0.5277 165.5041 13.5616)" class="st2" width="4" height="4.1"/>
				
					<rect x="108.3" y="-134.6" transform="matrix(0.5277 -0.8494 0.8494 0.5277 164.6512 31.1317)" class="st2" width="4" height="4.1"/>
				
					<rect x="124.5" y="-124.4" transform="matrix(0.5277 -0.8494 0.8494 0.5277 163.6541 49.6678)" class="st2" width="4" height="4.1"/>
				
					<rect x="139.6" y="-115" transform="matrix(0.5277 -0.8494 0.8494 0.5277 162.8154 66.9467)" class="st2" width="4" height="4.1"/>
				
					<rect x="155.1" y="-105.4" transform="matrix(0.5277 -0.8494 0.8494 0.5277 161.9578 84.6138)" class="st2" width="4" height="4.1"/>
				
					<rect x="170.3" y="-95.9" transform="matrix(0.5277 -0.8494 0.8494 0.5277 161.1143 101.9898)" class="st2" width="4" height="4.1"/>
				
					<rect x="185.6" y="-86.4" transform="matrix(0.5277 -0.8494 0.8494 0.5277 160.2661 119.4628)" class="st2" width="4" height="4.1"/>
				
					<rect x="200.9" y="-76.9" transform="matrix(0.5277 -0.8494 0.8494 0.5277 159.418 136.9358)" class="st2" width="4" height="4.1"/>
				
					<rect x="216.2" y="-67.4" transform="matrix(0.5277 -0.8494 0.8494 0.5277 158.5651 154.5059)" class="st2" width="4" height="4.1"/>
				
					<rect x="231.4" y="-57.9" transform="matrix(0.5277 -0.8494 0.8494 0.5277 157.6245 171.8772)" class="st2" width="4" height="4.1"/>
				
					<rect x="245" y="-49.4" transform="matrix(0.5277 -0.8494 0.8494 0.5277 156.8706 187.4088)" class="st2" width="4" height="4.1"/>
			</g>
			<g>
				
					<rect x="91.8" y="-210.1" transform="matrix(0.5277 -0.8494 0.8494 0.5277 221.0662 -18.5751)" class="st2" width="4" height="4.1"/>
				
					<rect x="107" y="-200.7" transform="matrix(0.5277 -0.8494 0.8494 0.5277 220.2228 -1.1991)" class="st2" width="4" height="4.1"/>
				
					<rect x="122.2" y="-191.2" transform="matrix(0.5277 -0.8494 0.8494 0.5277 219.3793 16.1768)" class="st2" width="4" height="4.1"/>
				
					<rect x="137.6" y="-181.7" transform="matrix(0.5277 -0.8494 0.8494 0.5277 218.5264 33.7469)" class="st2" width="4" height="4.1"/>
				
					<rect x="153.8" y="-171.5" transform="matrix(0.5277 -0.8494 0.8494 0.5277 217.5293 52.283)" class="st2" width="4" height="4.1"/>
				
					<rect x="168.9" y="-162.1" transform="matrix(0.5277 -0.8494 0.8494 0.5277 216.6906 69.5619)" class="st2" width="4" height="4.1"/>
				
					<rect x="184.4" y="-152.5" transform="matrix(0.5277 -0.8494 0.8494 0.5277 215.8329 87.2291)" class="st2" width="4" height="4.1"/>
				
					<rect x="199.6" y="-143.1" transform="matrix(0.5277 -0.8494 0.8494 0.5277 214.9895 104.605)" class="st2" width="4" height="4.1"/>
				
					<rect x="214.9" y="-133.6" transform="matrix(0.5277 -0.8494 0.8494 0.5277 214.1413 122.078)" class="st2" width="4" height="4.1"/>
				
					<rect x="230.1" y="-124.1" transform="matrix(0.5277 -0.8494 0.8494 0.5277 213.2931 139.5511)" class="st2" width="4" height="4.1"/>
				
					<rect x="245.5" y="-114.5" transform="matrix(0.5277 -0.8494 0.8494 0.5277 212.4402 157.1212)" class="st2" width="4" height="4.1"/>
				
					<rect x="260.7" y="-105" transform="matrix(0.5277 -0.8494 0.8494 0.5277 211.4997 174.4924)" class="st2" width="4" height="4.1"/>
				
					<rect x="274.3" y="-96.6" transform="matrix(0.5277 -0.8494 0.8494 0.5277 210.7457 190.024)" class="st2" width="4" height="4.1"/>
			</g>
			<g>
				
					<rect x="82.1" y="-194.4" transform="matrix(0.5277 -0.8494 0.8494 0.5277 203.1078 -19.4468)" class="st2" width="4" height="4.1"/>
				
					<rect x="97.3" y="-185" transform="matrix(0.5277 -0.8494 0.8494 0.5277 202.2644 -2.0709)" class="st2" width="4" height="4.1"/>
				
					<rect x="112.5" y="-175.5" transform="matrix(0.5277 -0.8494 0.8494 0.5277 201.4209 15.3051)" class="st2" width="4" height="4.1"/>
				
					<rect x="127.8" y="-166" transform="matrix(0.5277 -0.8494 0.8494 0.5277 200.568 32.8752)" class="st2" width="4" height="4.1"/>
				
					<rect x="144" y="-155.8" transform="matrix(0.5277 -0.8494 0.8494 0.5277 199.5709 51.4113)" class="st2" width="4" height="4.1"/>
				
					<rect x="159.1" y="-146.4" transform="matrix(0.5277 -0.8494 0.8494 0.5277 198.7322 68.6902)" class="st2" width="4" height="4.1"/>
				
					<rect x="174.6" y="-136.8" transform="matrix(0.5277 -0.8494 0.8494 0.5277 197.8746 86.3573)" class="st2" width="4" height="4.1"/>
				
					<rect x="189.8" y="-127.4" transform="matrix(0.5277 -0.8494 0.8494 0.5277 197.0311 103.7333)" class="st2" width="4" height="4.1"/>
				
					<rect x="205.1" y="-117.9" transform="matrix(0.5277 -0.8494 0.8494 0.5277 196.1829 121.2063)" class="st2" width="4" height="4.1"/>
				
					<rect x="220.4" y="-108.4" transform="matrix(0.5277 -0.8494 0.8494 0.5277 195.3347 138.6793)" class="st2" width="4" height="4.1"/>
				
					<rect x="235.8" y="-98.8" transform="matrix(0.5277 -0.8494 0.8494 0.5277 194.4818 156.2494)" class="st2" width="4" height="4.1"/>
				
					<rect x="250.9" y="-89.3" transform="matrix(0.5277 -0.8494 0.8494 0.5277 193.5413 173.6207)" class="st2" width="4" height="4.1"/>
				
					<rect x="264.5" y="-80.8" transform="matrix(0.5277 -0.8494 0.8494 0.5277 192.7874 189.1522)" class="st2" width="4" height="4.1"/>
			</g>
		</g>
		<g class="st1">
			<g>
				<rect x="192" y="69.9" transform="matrix(0.5277 -0.8494 0.8494 0.5277 30.5079 198.789)" class="st2" width="4" height="4.1"/>
				
					<rect x="207.2" y="79.4" transform="matrix(0.5277 -0.8494 0.8494 0.5277 29.6644 216.165)" class="st2" width="4" height="4.1"/>
				
					<rect x="222.4" y="88.8" transform="matrix(0.5277 -0.8494 0.8494 0.5277 28.8209 233.5409)" class="st2" width="4" height="4.1"/>
				
					<rect x="237.8" y="98.4" transform="matrix(0.5277 -0.8494 0.8494 0.5277 27.968 251.111)" class="st2" width="4" height="4.1"/>
				
					<rect x="254" y="108.5" transform="matrix(0.5277 -0.8494 0.8494 0.5277 26.9709 269.6471)" class="st2" width="4" height="4.1"/>
				
					<rect x="269.1" y="117.9" transform="matrix(0.5277 -0.8494 0.8494 0.5277 26.1322 286.926)" class="st2" width="4" height="4.1"/>
				
					<rect x="284.6" y="127.5" transform="matrix(0.5277 -0.8494 0.8494 0.5277 25.2746 304.5932)" class="st2" width="4" height="4.1"/>
				
					<rect x="299.8" y="137" transform="matrix(0.5277 -0.8494 0.8494 0.5277 24.4311 321.9691)" class="st2" width="4" height="4.1"/>
				
					<rect x="315.1" y="146.5" transform="matrix(0.5277 -0.8494 0.8494 0.5277 23.5829 339.4422)" class="st2" width="4" height="4.1"/>
				
					<rect x="330.3" y="156" transform="matrix(0.5277 -0.8494 0.8494 0.5277 22.7347 356.9152)" class="st2" width="4" height="4.1"/>
				
					<rect x="345.7" y="165.5" transform="matrix(0.5277 -0.8494 0.8494 0.5277 21.8819 374.4853)" class="st2" width="4" height="4.1"/>
				
					<rect x="360.9" y="175" transform="matrix(0.5277 -0.8494 0.8494 0.5277 20.9413 391.8565)" class="st2" width="4" height="4.1"/>
				
					<rect x="374.5" y="183.5" transform="matrix(0.5277 -0.8494 0.8494 0.5277 20.1874 407.3881)" class="st2" width="4" height="4.1"/>
			</g>
			<g>
				
					<rect x="182.3" y="85.6" transform="matrix(0.5277 -0.8494 0.8494 0.5277 12.5495 197.9173)" class="st2" width="4" height="4.1"/>
				
					<rect x="197.5" y="95.1" transform="matrix(0.5277 -0.8494 0.8494 0.5277 11.706 215.2932)" class="st2" width="4" height="4.1"/>
				
					<rect x="212.7" y="104.5" transform="matrix(0.5277 -0.8494 0.8494 0.5277 10.8625 232.6692)" class="st2" width="4" height="4.1"/>
				
					<rect x="228" y="114.1" transform="matrix(0.5277 -0.8494 0.8494 0.5277 10.0096 250.2393)" class="st2" width="4" height="4.1"/>
				
					<rect x="244.2" y="124.2" transform="matrix(0.5277 -0.8494 0.8494 0.5277 9.0125 268.7754)" class="st2" width="4" height="4.1"/>
				
					<rect x="259.3" y="133.6" transform="matrix(0.5277 -0.8494 0.8494 0.5277 8.1738 286.0543)" class="st2" width="4" height="4.1"/>
				
					<rect x="274.8" y="143.2" transform="matrix(0.5277 -0.8494 0.8494 0.5277 7.3162 303.7214)" class="st2" width="4" height="4.1"/>
				
					<rect x="290" y="152.7" transform="matrix(0.5277 -0.8494 0.8494 0.5277 6.4727 321.0974)" class="st2" width="4" height="4.1"/>
				
					<rect x="305.3" y="162.2" transform="matrix(0.5277 -0.8494 0.8494 0.5277 5.6245 338.5704)" class="st2" width="4" height="4.1"/>
				
					<rect x="320.6" y="171.7" transform="matrix(0.5277 -0.8494 0.8494 0.5277 4.7764 356.0435)" class="st2" width="4" height="4.1"/>
				
					<rect x="336" y="181.2" transform="matrix(0.5277 -0.8494 0.8494 0.5277 3.9235 373.6136)" class="st2" width="4" height="4.1"/>
				
					<rect x="351.1" y="190.8" transform="matrix(0.5277 -0.8494 0.8494 0.5277 2.9829 390.9848)" class="st2" width="4" height="4.1"/>
				
					<rect x="364.7" y="199.2" transform="matrix(0.5277 -0.8494 0.8494 0.5277 2.229 406.5164)" class="st2" width="4" height="4.1"/>
			</g>
			<g>
				
					<rect x="173.6" y="99.6" transform="matrix(0.5277 -0.8494 0.8494 0.5277 -3.4378 197.1412)" class="st2" width="4" height="4.1"/>
				
					<rect x="188.8" y="109.1" transform="matrix(0.5277 -0.8494 0.8494 0.5277 -4.2812 214.5172)" class="st2" width="4" height="4.1"/>
				
					<rect x="204" y="118.5" transform="matrix(0.5277 -0.8494 0.8494 0.5277 -5.1247 231.8931)" class="st2" width="4" height="4.1"/>
				
					<rect x="219.4" y="128.1" transform="matrix(0.5277 -0.8494 0.8494 0.5277 -5.9776 249.4632)" class="st2" width="4" height="4.1"/>
				
					<rect x="235.5" y="138.2" transform="matrix(0.5277 -0.8494 0.8494 0.5277 -6.9747 267.9993)" class="st2" width="4" height="4.1"/>
				
					<rect x="250.6" y="147.6" transform="matrix(0.5277 -0.8494 0.8494 0.5277 -7.8134 285.2782)" class="st2" width="4" height="4.1"/>
				
					<rect x="266.1" y="157.2" transform="matrix(0.5277 -0.8494 0.8494 0.5277 -8.671 302.9454)" class="st2" width="4" height="4.1"/>
				
					<rect x="281.3" y="166.7" transform="matrix(0.5277 -0.8494 0.8494 0.5277 -9.5145 320.3214)" class="st2" width="4" height="4.1"/>
				
					<rect x="296.6" y="176.2" transform="matrix(0.5277 -0.8494 0.8494 0.5277 -10.3627 337.7944)" class="st2" width="4" height="4.1"/>
				
					<rect x="311.9" y="185.7" transform="matrix(0.5277 -0.8494 0.8494 0.5277 -11.2109 355.2674)" class="st2" width="4" height="4.1"/>
				
					<rect x="327.3" y="195.2" transform="matrix(0.5277 -0.8494 0.8494 0.5277 -12.0638 372.8375)" class="st2" width="4" height="4.1"/>
				
					<rect x="342.4" y="204.7" transform="matrix(0.5277 -0.8494 0.8494 0.5277 -13.0043 390.2087)" class="st2" width="4" height="4.1"/>
				
					<rect x="356" y="213.2" transform="matrix(0.5277 -0.8494 0.8494 0.5277 -13.7582 405.7403)" class="st2" width="4" height="4.1"/>
			</g>
			<g>
				
					<rect x="211.6" y="38.5" transform="matrix(0.5277 -0.8494 0.8494 0.5277 66.4246 200.5325)" class="st2" width="4" height="4.1"/>
				
					<rect x="226.8" y="47.9" transform="matrix(0.5277 -0.8494 0.8494 0.5277 65.5812 217.9085)" class="st2" width="4" height="4.1"/>
				
					<rect x="242" y="57.4" transform="matrix(0.5277 -0.8494 0.8494 0.5277 64.7377 235.2844)" class="st2" width="4" height="4.1"/>
				
					<rect x="257.3" y="66.9" transform="matrix(0.5277 -0.8494 0.8494 0.5277 63.8848 252.8545)" class="st2" width="4" height="4.1"/>
				
					<rect x="273.5" y="77.1" transform="matrix(0.5277 -0.8494 0.8494 0.5277 62.8877 271.3906)" class="st2" width="4" height="4.1"/>
				
					<rect x="288.6" y="86.5" transform="matrix(0.5277 -0.8494 0.8494 0.5277 62.049 288.6695)" class="st2" width="4" height="4.1"/>
				
					<rect x="304.1" y="96.1" transform="matrix(0.5277 -0.8494 0.8494 0.5277 61.1913 306.3367)" class="st2" width="4" height="4.1"/>
				
					<rect x="319.3" y="105.5" transform="matrix(0.5277 -0.8494 0.8494 0.5277 60.3479 323.7126)" class="st2" width="4" height="4.1"/>
				
					<rect x="334.6" y="115" transform="matrix(0.5277 -0.8494 0.8494 0.5277 59.4997 341.1856)" class="st2" width="4" height="4.1"/>
				
					<rect x="349.9" y="124.5" transform="matrix(0.5277 -0.8494 0.8494 0.5277 58.6515 358.6587)" class="st2" width="4" height="4.1"/>
				
					<rect x="365.2" y="134.1" transform="matrix(0.5277 -0.8494 0.8494 0.5277 57.7986 376.2288)" class="st2" width="4" height="4.1"/>
				
					<rect x="380.4" y="143.6" transform="matrix(0.5277 -0.8494 0.8494 0.5277 56.8581 393.6)" class="st2" width="4" height="4.1"/>
				
					<rect x="394" y="152.1" transform="matrix(0.5277 -0.8494 0.8494 0.5277 56.1041 409.1316)" class="st2" width="4" height="4.1"/>
			</g>
			<g>
				
					<rect x="201.8" y="54.2" transform="matrix(0.5277 -0.8494 0.8494 0.5277 48.4662 199.6608)" class="st2" width="4" height="4.1"/>
				
					<rect x="217" y="63.6" transform="matrix(0.5277 -0.8494 0.8494 0.5277 47.6228 217.0367)" class="st2" width="4" height="4.1"/>
				
					<rect x="232.2" y="73.1" transform="matrix(0.5277 -0.8494 0.8494 0.5277 46.7793 234.4127)" class="st2" width="4" height="4.1"/>
				
					<rect x="247.6" y="82.6" transform="matrix(0.5277 -0.8494 0.8494 0.5277 45.9264 251.9828)" class="st2" width="4" height="4.1"/>
				
					<rect x="263.7" y="92.8" transform="matrix(0.5277 -0.8494 0.8494 0.5277 44.9293 270.5189)" class="st2" width="4" height="4.1"/>
				
					<rect x="278.9" y="102.2" transform="matrix(0.5277 -0.8494 0.8494 0.5277 44.0906 287.7978)" class="st2" width="4" height="4.1"/>
				
					<rect x="294.3" y="111.8" transform="matrix(0.5277 -0.8494 0.8494 0.5277 43.233 305.4649)" class="st2" width="4" height="4.1"/>
				
					<rect x="309.5" y="121.2" transform="matrix(0.5277 -0.8494 0.8494 0.5277 42.3895 322.8409)" class="st2" width="4" height="4.1"/>
				
					<rect x="324.8" y="130.7" transform="matrix(0.5277 -0.8494 0.8494 0.5277 41.5413 340.3139)" class="st2" width="4" height="4.1"/>
				
					<rect x="340.1" y="140.2" transform="matrix(0.5277 -0.8494 0.8494 0.5277 40.6931 357.7869)" class="st2" width="4" height="4.1"/>
				
					<rect x="355.5" y="149.8" transform="matrix(0.5277 -0.8494 0.8494 0.5277 39.8402 375.357)" class="st2" width="4" height="4.1"/>
				
					<rect x="370.6" y="159.3" transform="matrix(0.5277 -0.8494 0.8494 0.5277 38.8997 392.7283)" class="st2" width="4" height="4.1"/>
				
					<rect x="384.2" y="167.8" transform="matrix(0.5277 -0.8494 0.8494 0.5277 38.1458 408.2598)" class="st2" width="4" height="4.1"/>
			</g>
			<g>
				
					<rect x="231.1" y="7.1" transform="matrix(0.5277 -0.8494 0.8494 0.5277 102.3414 202.276)" class="st2" width="4" height="4.1"/>
				
					<rect x="246.3" y="16.5" transform="matrix(0.5277 -0.8494 0.8494 0.5277 101.4979 219.6519)" class="st2" width="4" height="4.1"/>
				
					<rect x="261.5" y="25.9" transform="matrix(0.5277 -0.8494 0.8494 0.5277 100.6545 237.0279)" class="st2" width="4" height="4.1"/>
				
					<rect x="276.9" y="35.5" transform="matrix(0.5277 -0.8494 0.8494 0.5277 99.8016 254.598)" class="st2" width="4" height="4.1"/>
				
					<rect x="293" y="45.7" transform="matrix(0.5277 -0.8494 0.8494 0.5277 98.8045 273.1341)" class="st2" width="4" height="4.1"/>
				
					<rect x="308.2" y="55.1" transform="matrix(0.5277 -0.8494 0.8494 0.5277 97.9657 290.413)" class="st2" width="4" height="4.1"/>
				
					<rect x="323.6" y="64.7" transform="matrix(0.5277 -0.8494 0.8494 0.5277 97.1081 308.0801)" class="st2" width="4" height="4.1"/>
				
					<rect x="338.8" y="74.1" transform="matrix(0.5277 -0.8494 0.8494 0.5277 96.2647 325.4561)" class="st2" width="4" height="4.1"/>
				
					<rect x="354.1" y="83.6" transform="matrix(0.5277 -0.8494 0.8494 0.5277 95.4165 342.9291)" class="st2" width="4" height="4.1"/>
				
					<rect x="369.4" y="93.1" transform="matrix(0.5277 -0.8494 0.8494 0.5277 94.5683 360.4022)" class="st2" width="4" height="4.1"/>
				
					<rect x="384.8" y="102.7" transform="matrix(0.5277 -0.8494 0.8494 0.5277 93.7154 377.9723)" class="st2" width="4" height="4.1"/>
				
					<rect x="399.9" y="112.2" transform="matrix(0.5277 -0.8494 0.8494 0.5277 92.7749 395.3435)" class="st2" width="4" height="4.1"/>
				
					<rect x="413.5" y="120.6" transform="matrix(0.5277 -0.8494 0.8494 0.5277 92.0209 410.8751)" class="st2" width="4" height="4.1"/>
			</g>
			<g>
				
					<rect x="221.3" y="22.8" transform="matrix(0.5277 -0.8494 0.8494 0.5277 84.383 201.4043)" class="st2" width="4" height="4.1"/>
				
					<rect x="236.5" y="32.2" transform="matrix(0.5277 -0.8494 0.8494 0.5277 83.5395 218.7802)" class="st2" width="4" height="4.1"/>
				
					<rect x="251.7" y="41.7" transform="matrix(0.5277 -0.8494 0.8494 0.5277 82.6961 236.1561)" class="st2" width="4" height="4.1"/>
				
					<rect x="267.1" y="51.2" transform="matrix(0.5277 -0.8494 0.8494 0.5277 81.8432 253.7263)" class="st2" width="4" height="4.1"/>
				
					<rect x="283.3" y="61.4" transform="matrix(0.5277 -0.8494 0.8494 0.5277 80.8461 272.2624)" class="st2" width="4" height="4.1"/>
				
					<rect x="298.4" y="70.8" transform="matrix(0.5277 -0.8494 0.8494 0.5277 80.0073 289.5412)" class="st2" width="4" height="4.1"/>
				
					<rect x="313.8" y="80.4" transform="matrix(0.5277 -0.8494 0.8494 0.5277 79.1497 307.2084)" class="st2" width="4" height="4.1"/>
				
					<rect x="329.1" y="89.8" transform="matrix(0.5277 -0.8494 0.8494 0.5277 78.3063 324.5844)" class="st2" width="4" height="4.1"/>
				
					<rect x="344.3" y="99.3" transform="matrix(0.5277 -0.8494 0.8494 0.5277 77.4581 342.0574)" class="st2" width="4" height="4.1"/>
				
					<rect x="359.6" y="108.8" transform="matrix(0.5277 -0.8494 0.8494 0.5277 76.6099 359.5304)" class="st2" width="4" height="4.1"/>
				
					<rect x="375" y="118.4" transform="matrix(0.5277 -0.8494 0.8494 0.5277 75.757 377.1005)" class="st2" width="4" height="4.1"/>
				
					<rect x="390.2" y="127.9" transform="matrix(0.5277 -0.8494 0.8494 0.5277 74.8165 394.4717)" class="st2" width="4" height="4.1"/>
				
					<rect x="403.7" y="136.3" transform="matrix(0.5277 -0.8494 0.8494 0.5277 74.0625 410.0033)" class="st2" width="4" height="4.1"/>
			</g>
			<g>
				
					<rect x="250.6" y="-24.4" transform="matrix(0.5277 -0.8494 0.8494 0.5277 138.2582 204.0195)" class="st2" width="4" height="4.1"/>
				
					<rect x="265.8" y="-14.9" transform="matrix(0.5277 -0.8494 0.8494 0.5277 137.4147 221.3954)" class="st2" width="4" height="4.1"/>
				
					<rect x="281" y="-5.5" transform="matrix(0.5277 -0.8494 0.8494 0.5277 136.5712 238.7714)" class="st2" width="4" height="4.1"/>
				
					<rect x="296.4" y="4.1" transform="matrix(0.5277 -0.8494 0.8494 0.5277 135.7183 256.3415)" class="st2" width="4" height="4.1"/>
				
					<rect x="312.6" y="14.2" transform="matrix(0.5277 -0.8494 0.8494 0.5277 134.7213 274.8776)" class="st2" width="4" height="4.1"/>
				
					<rect x="327.7" y="23.6" transform="matrix(0.5277 -0.8494 0.8494 0.5277 133.8825 292.1565)" class="st2" width="4" height="4.1"/>
				
					<rect x="343.1" y="33.2" transform="matrix(0.5277 -0.8494 0.8494 0.5277 133.0249 309.8236)" class="st2" width="4" height="4.1"/>
				
					<rect x="358.3" y="42.7" transform="matrix(0.5277 -0.8494 0.8494 0.5277 132.1814 327.1996)" class="st2" width="4" height="4.1"/>
				
					<rect x="373.6" y="52.2" transform="matrix(0.5277 -0.8494 0.8494 0.5277 131.3333 344.6726)" class="st2" width="4" height="4.1"/>
				
					<rect x="388.9" y="61.7" transform="matrix(0.5277 -0.8494 0.8494 0.5277 130.4851 362.1456)" class="st2" width="4" height="4.1"/>
				
					<rect x="404.3" y="71.2" transform="matrix(0.5277 -0.8494 0.8494 0.5277 129.6322 379.7157)" class="st2" width="4" height="4.1"/>
				
					<rect x="419.4" y="80.8" transform="matrix(0.5277 -0.8494 0.8494 0.5277 128.6916 397.087)" class="st2" width="4" height="4.1"/>
				
					<rect x="433" y="89.2" transform="matrix(0.5277 -0.8494 0.8494 0.5277 127.9377 412.6185)" class="st2" width="4" height="4.1"/>
			</g>
			<g>
				
					<rect x="240.8" y="-8.7" transform="matrix(0.5277 -0.8494 0.8494 0.5277 120.2998 203.1477)" class="st2" width="4" height="4.1"/>
				
					<rect x="256" y="0.8" transform="matrix(0.5277 -0.8494 0.8494 0.5277 119.4563 220.5237)" class="st2" width="4" height="4.1"/>
				
					<rect x="271.2" y="10.2" transform="matrix(0.5277 -0.8494 0.8494 0.5277 118.6129 237.8996)" class="st2" width="4" height="4.1"/>
				
					<rect x="286.6" y="19.8" transform="matrix(0.5277 -0.8494 0.8494 0.5277 117.76 255.4697)" class="st2" width="4" height="4.1"/>
				
					<rect x="302.8" y="29.9" transform="matrix(0.5277 -0.8494 0.8494 0.5277 116.7629 274.0058)" class="st2" width="4" height="4.1"/>
				
					<rect x="317.9" y="39.3" transform="matrix(0.5277 -0.8494 0.8494 0.5277 115.9241 291.2847)" class="st2" width="4" height="4.1"/>
				
					<rect x="333.4" y="48.9" transform="matrix(0.5277 -0.8494 0.8494 0.5277 115.0665 308.9519)" class="st2" width="4" height="4.1"/>
				
					<rect x="348.6" y="58.4" transform="matrix(0.5277 -0.8494 0.8494 0.5277 114.223 326.3279)" class="st2" width="4" height="4.1"/>
				
					<rect x="363.9" y="67.9" transform="matrix(0.5277 -0.8494 0.8494 0.5277 113.3749 343.8009)" class="st2" width="4" height="4.1"/>
				
					<rect x="379.2" y="77.4" transform="matrix(0.5277 -0.8494 0.8494 0.5277 112.5267 361.2739)" class="st2" width="4" height="4.1"/>
				
					<rect x="394.5" y="86.9" transform="matrix(0.5277 -0.8494 0.8494 0.5277 111.6738 378.844)" class="st2" width="4" height="4.1"/>
				
					<rect x="409.7" y="96.5" transform="matrix(0.5277 -0.8494 0.8494 0.5277 110.7332 396.2152)" class="st2" width="4" height="4.1"/>
				
					<rect x="423.3" y="104.9" transform="matrix(0.5277 -0.8494 0.8494 0.5277 109.9793 411.7468)" class="st2" width="4" height="4.1"/>
			</g>
			<g>
				
					<rect x="270.1" y="-55.8" transform="matrix(0.5277 -0.8494 0.8494 0.5277 174.1749 205.763)" class="st2" width="4" height="4.1"/>
				
					<rect x="285.3" y="-46.4" transform="matrix(0.5277 -0.8494 0.8494 0.5277 173.3315 223.1389)" class="st2" width="4" height="4.1"/>
				
					<rect x="300.5" y="-36.9" transform="matrix(0.5277 -0.8494 0.8494 0.5277 172.488 240.5148)" class="st2" width="4" height="4.1"/>
				
					<rect x="315.9" y="-27.4" transform="matrix(0.5277 -0.8494 0.8494 0.5277 171.6351 258.085)" class="st2" width="4" height="4.1"/>
				
					<rect x="332.1" y="-17.2" transform="matrix(0.5277 -0.8494 0.8494 0.5277 170.638 276.6211)" class="st2" width="4" height="4.1"/>
				
					<rect x="347.2" y="-7.8" transform="matrix(0.5277 -0.8494 0.8494 0.5277 169.7993 293.8999)" class="st2" width="4" height="4.1"/>
				
					<rect x="362.7" y="1.8" transform="matrix(0.5277 -0.8494 0.8494 0.5277 168.9417 311.5671)" class="st2" width="4" height="4.1"/>
				
					<rect x="377.9" y="11.3" transform="matrix(0.5277 -0.8494 0.8494 0.5277 168.0982 328.9431)" class="st2" width="4" height="4.1"/>
				
					<rect x="393.2" y="20.8" transform="matrix(0.5277 -0.8494 0.8494 0.5277 167.25 346.4161)" class="st2" width="4" height="4.1"/>
				
					<rect x="408.4" y="30.3" transform="matrix(0.5277 -0.8494 0.8494 0.5277 166.4018 363.8891)" class="st2" width="4" height="4.1"/>
				
					<rect x="423.8" y="39.8" transform="matrix(0.5277 -0.8494 0.8494 0.5277 165.549 381.4592)" class="st2" width="4" height="4.1"/>
				
					<rect x="439" y="49.3" transform="matrix(0.5277 -0.8494 0.8494 0.5277 164.6084 398.8304)" class="st2" width="4" height="4.1"/>
				
					<rect x="452.6" y="57.8" transform="matrix(0.5277 -0.8494 0.8494 0.5277 163.8545 414.362)" class="st2" width="4" height="4.1"/>
			</g>
			<g>
				
					<rect x="260.4" y="-40.1" transform="matrix(0.5277 -0.8494 0.8494 0.5277 156.2166 204.8912)" class="st2" width="4" height="4.1"/>
				
					<rect x="275.6" y="-30.6" transform="matrix(0.5277 -0.8494 0.8494 0.5277 155.3731 222.2672)" class="st2" width="4" height="4.1"/>
				
					<rect x="290.8" y="-21.2" transform="matrix(0.5277 -0.8494 0.8494 0.5277 154.5296 239.6431)" class="st2" width="4" height="4.1"/>
				
					<rect x="306.1" y="-11.6" transform="matrix(0.5277 -0.8494 0.8494 0.5277 153.6767 257.2132)" class="st2" width="4" height="4.1"/>
				
					<rect x="322.3" y="-1.5" transform="matrix(0.5277 -0.8494 0.8494 0.5277 152.6796 275.7493)" class="st2" width="4" height="4.1"/>
				
					<rect x="337.4" y="7.9" transform="matrix(0.5277 -0.8494 0.8494 0.5277 151.8409 293.0282)" class="st2" width="4" height="4.1"/>
				
					<rect x="352.9" y="17.5" transform="matrix(0.5277 -0.8494 0.8494 0.5277 150.9833 310.6954)" class="st2" width="4" height="4.1"/>
				
					<rect x="368.1" y="27" transform="matrix(0.5277 -0.8494 0.8494 0.5277 150.1398 328.0713)" class="st2" width="4" height="4.1"/>
				
					<rect x="383.4" y="36.5" transform="matrix(0.5277 -0.8494 0.8494 0.5277 149.2916 345.5443)" class="st2" width="4" height="4.1"/>
				
					<rect x="398.7" y="46" transform="matrix(0.5277 -0.8494 0.8494 0.5277 148.4435 363.0174)" class="st2" width="4" height="4.1"/>
				
					<rect x="414.1" y="55.5" transform="matrix(0.5277 -0.8494 0.8494 0.5277 147.5906 380.5875)" class="st2" width="4" height="4.1"/>
				<rect x="429.2" y="65" transform="matrix(0.5277 -0.8494 0.8494 0.5277 146.65 397.9587)" class="st2" width="4" height="4.1"/>
				
					<rect x="442.8" y="73.5" transform="matrix(0.5277 -0.8494 0.8494 0.5277 145.8961 413.4903)" class="st2" width="4" height="4.1"/>
			</g>
			<g>
				
					<rect x="289.7" y="-87.2" transform="matrix(0.5277 -0.8494 0.8494 0.5277 210.0917 207.5064)" class="st2" width="4" height="4.1"/>
				
					<rect x="304.9" y="-77.8" transform="matrix(0.5277 -0.8494 0.8494 0.5277 209.2482 224.8824)" class="st2" width="4" height="4.1"/>
				
					<rect x="320.1" y="-68.3" transform="matrix(0.5277 -0.8494 0.8494 0.5277 208.4048 242.2583)" class="st2" width="4" height="4.1"/>
				
					<rect x="335.4" y="-58.8" transform="matrix(0.5277 -0.8494 0.8494 0.5277 207.5519 259.8284)" class="st2" width="4" height="4.1"/>
				
					<rect x="351.6" y="-48.6" transform="matrix(0.5277 -0.8494 0.8494 0.5277 206.5548 278.3645)" class="st2" width="4" height="4.1"/>
				
					<rect x="366.7" y="-39.2" transform="matrix(0.5277 -0.8494 0.8494 0.5277 205.716 295.6434)" class="st2" width="4" height="4.1"/>
				
					<rect x="382.2" y="-29.6" transform="matrix(0.5277 -0.8494 0.8494 0.5277 204.8584 313.3106)" class="st2" width="4" height="4.1"/>
				
					<rect x="397.4" y="-20.2" transform="matrix(0.5277 -0.8494 0.8494 0.5277 204.015 330.6866)" class="st2" width="4" height="4.1"/>
				
					<rect x="412.7" y="-10.7" transform="matrix(0.5277 -0.8494 0.8494 0.5277 203.1668 348.1596)" class="st2" width="4" height="4.1"/>
				
					<rect x="428" y="-1.2" transform="matrix(0.5277 -0.8494 0.8494 0.5277 202.3186 365.6326)" class="st2" width="4" height="4.1"/>
				
					<rect x="443.3" y="8.4" transform="matrix(0.5277 -0.8494 0.8494 0.5277 201.4657 383.2027)" class="st2" width="4" height="4.1"/>
				
					<rect x="458.5" y="17.9" transform="matrix(0.5277 -0.8494 0.8494 0.5277 200.5252 400.5739)" class="st2" width="4" height="4.1"/>
				
					<rect x="472.1" y="26.3" transform="matrix(0.5277 -0.8494 0.8494 0.5277 199.7712 416.1055)" class="st2" width="4" height="4.1"/>
			</g>
			<g>
				
					<rect x="279.9" y="-71.5" transform="matrix(0.5277 -0.8494 0.8494 0.5277 192.1333 206.6347)" class="st2" width="4" height="4.1"/>
				
					<rect x="295.1" y="-62.1" transform="matrix(0.5277 -0.8494 0.8494 0.5277 191.2899 224.0106)" class="st2" width="4" height="4.1"/>
				
					<rect x="310.3" y="-52.6" transform="matrix(0.5277 -0.8494 0.8494 0.5277 190.4464 241.3866)" class="st2" width="4" height="4.1"/>
				
					<rect x="325.7" y="-43.1" transform="matrix(0.5277 -0.8494 0.8494 0.5277 189.5935 258.9567)" class="st2" width="4" height="4.1"/>
				
					<rect x="341.8" y="-32.9" transform="matrix(0.5277 -0.8494 0.8494 0.5277 188.5964 277.4928)" class="st2" width="4" height="4.1"/>
				
					<rect x="357" y="-23.5" transform="matrix(0.5277 -0.8494 0.8494 0.5277 187.7577 294.7717)" class="st2" width="4" height="4.1"/>
				
					<rect x="372.4" y="-13.9" transform="matrix(0.5277 -0.8494 0.8494 0.5277 186.9001 312.4388)" class="st2" width="4" height="4.1"/>
				
					<rect x="387.6" y="-4.5" transform="matrix(0.5277 -0.8494 0.8494 0.5277 186.0566 329.8148)" class="st2" width="4" height="4.1"/>
				
					<rect x="402.9" y="5" transform="matrix(0.5277 -0.8494 0.8494 0.5277 185.2084 347.2878)" class="st2" width="4" height="4.1"/>
				
					<rect x="418.2" y="14.5" transform="matrix(0.5277 -0.8494 0.8494 0.5277 184.3602 364.7609)" class="st2" width="4" height="4.1"/>
				
					<rect x="433.6" y="24.1" transform="matrix(0.5277 -0.8494 0.8494 0.5277 183.5073 382.331)" class="st2" width="4" height="4.1"/>
				
					<rect x="448.7" y="33.6" transform="matrix(0.5277 -0.8494 0.8494 0.5277 182.5668 399.7022)" class="st2" width="4" height="4.1"/>
				
					<rect x="462.3" y="42.1" transform="matrix(0.5277 -0.8494 0.8494 0.5277 181.8129 415.2338)" class="st2" width="4" height="4.1"/>
			</g>
		</g>
		<g class="st1">
			<g>
				
					<rect x="-131.9" y="150" transform="matrix(0.5277 -0.8494 0.8494 0.5277 -190.5057 -38.5537)" class="st2" width="4" height="4.1"/>
				
					<rect x="-116.7" y="159.4" transform="matrix(0.5277 -0.8494 0.8494 0.5277 -191.3492 -21.1778)" class="st2" width="4" height="4.1"/>
				
					<rect x="-101.5" y="168.9" transform="matrix(0.5277 -0.8494 0.8494 0.5277 -192.1927 -3.8018)" class="st2" width="4" height="4.1"/>
				
					<rect x="-86.1" y="178.4" transform="matrix(0.5277 -0.8494 0.8494 0.5277 -193.0456 13.7683)" class="st2" width="4" height="4.1"/>
				
					<rect x="-70" y="188.6" transform="matrix(0.5277 -0.8494 0.8494 0.5277 -194.0427 32.3044)" class="st2" width="4" height="4.1"/>
				
					<rect x="-54.9" y="198" transform="matrix(0.5277 -0.8494 0.8494 0.5277 -194.8814 49.5833)" class="st2" width="4" height="4.1"/>
				
					<rect x="-39.4" y="207.6" transform="matrix(0.5277 -0.8494 0.8494 0.5277 -195.739 67.2504)" class="st2" width="4" height="4.1"/>
				
					<rect x="-24.2" y="217" transform="matrix(0.5277 -0.8494 0.8494 0.5277 -196.5825 84.6264)" class="st2" width="4" height="4.1"/>
				
					<rect x="-8.9" y="226.5" transform="matrix(0.5277 -0.8494 0.8494 0.5277 -197.4307 102.0994)" class="st2" width="4" height="4.1"/>
				
					<rect x="6.4" y="236" transform="matrix(0.5277 -0.8494 0.8494 0.5277 -198.2788 119.5724)" class="st2" width="4" height="4.1"/>
				
					<rect x="21.8" y="245.6" transform="matrix(0.5277 -0.8494 0.8494 0.5277 -199.1317 137.1425)" class="st2" width="4" height="4.1"/>
				
					<rect x="36.9" y="255.1" transform="matrix(0.5277 -0.8494 0.8494 0.5277 -200.0723 154.5138)" class="st2" width="4" height="4.1"/>
				
					<rect x="50.5" y="263.6" transform="matrix(0.5277 -0.8494 0.8494 0.5277 -200.8262 170.0453)" class="st2" width="4" height="4.1"/>
			</g>
			<g>
				
					<rect x="-141.7" y="165.7" transform="matrix(0.5277 -0.8494 0.8494 0.5277 -208.4641 -39.4255)" class="st2" width="4" height="4.1"/>
				
					<rect x="-126.5" y="175.2" transform="matrix(0.5277 -0.8494 0.8494 0.5277 -209.3076 -22.0495)" class="st2" width="4" height="4.1"/>
				
					<rect x="-111.3" y="184.6" transform="matrix(0.5277 -0.8494 0.8494 0.5277 -210.1511 -4.6736)" class="st2" width="4" height="4.1"/>
				
					<rect x="-95.9" y="194.2" transform="matrix(0.5277 -0.8494 0.8494 0.5277 -211.004 12.8965)" class="st2" width="4" height="4.1"/>
				
					<rect x="-79.7" y="204.3" transform="matrix(0.5277 -0.8494 0.8494 0.5277 -212.001 31.4326)" class="st2" width="4" height="4.1"/>
				
					<rect x="-64.6" y="213.7" transform="matrix(0.5277 -0.8494 0.8494 0.5277 -212.8398 48.7115)" class="st2" width="4" height="4.1"/>
				
					<rect x="-49.2" y="223.3" transform="matrix(0.5277 -0.8494 0.8494 0.5277 -213.6974 66.3787)" class="st2" width="4" height="4.1"/>
				
					<rect x="-34" y="232.8" transform="matrix(0.5277 -0.8494 0.8494 0.5277 -214.5409 83.7546)" class="st2" width="4" height="4.1"/>
				
					<rect x="-18.7" y="242.3" transform="matrix(0.5277 -0.8494 0.8494 0.5277 -215.3891 101.2277)" class="st2" width="4" height="4.1"/>
				
					<rect x="-3.4" y="251.8" transform="matrix(0.5277 -0.8494 0.8494 0.5277 -216.2372 118.7007)" class="st2" width="4" height="4.1"/>
				
					<rect x="12" y="261.3" transform="matrix(0.5277 -0.8494 0.8494 0.5277 -217.0901 136.2708)" class="st2" width="4" height="4.1"/>
				
					<rect x="27.2" y="270.8" transform="matrix(0.5277 -0.8494 0.8494 0.5277 -218.0307 153.642)" class="st2" width="4" height="4.1"/>
				
					<rect x="40.7" y="279.3" transform="matrix(0.5277 -0.8494 0.8494 0.5277 -218.7846 169.1736)" class="st2" width="4" height="4.1"/>
			</g>
			<g>
				
					<rect x="-150.4" y="179.7" transform="matrix(0.5277 -0.8494 0.8494 0.5277 -224.4514 -40.2015)" class="st2" width="4" height="4.1"/>
				
					<rect x="-135.2" y="189.1" transform="matrix(0.5277 -0.8494 0.8494 0.5277 -225.2948 -22.8256)" class="st2" width="4" height="4.1"/>
				
					<rect x="-120" y="198.6" transform="matrix(0.5277 -0.8494 0.8494 0.5277 -226.1383 -5.4496)" class="st2" width="4" height="4.1"/>
				
					<rect x="-104.6" y="208.1" transform="matrix(0.5277 -0.8494 0.8494 0.5277 -226.9912 12.1205)" class="st2" width="4" height="4.1"/>
				
					<rect x="-88.4" y="218.3" transform="matrix(0.5277 -0.8494 0.8494 0.5277 -227.9883 30.6566)" class="st2" width="4" height="4.1"/>
				
					<rect x="-73.3" y="227.7" transform="matrix(0.5277 -0.8494 0.8494 0.5277 -228.827 47.9355)" class="st2" width="4" height="4.1"/>
				
					<rect x="-57.8" y="237.3" transform="matrix(0.5277 -0.8494 0.8494 0.5277 -229.6846 65.6026)" class="st2" width="4" height="4.1"/>
				
					<rect x="-42.6" y="246.8" transform="matrix(0.5277 -0.8494 0.8494 0.5277 -230.5281 82.9786)" class="st2" width="4" height="4.1"/>
				
					<rect x="-27.4" y="256.3" transform="matrix(0.5277 -0.8494 0.8494 0.5277 -231.3763 100.4516)" class="st2" width="4" height="4.1"/>
				
					<rect x="-12.1" y="265.8" transform="matrix(0.5277 -0.8494 0.8494 0.5277 -232.2245 117.9246)" class="st2" width="4" height="4.1"/>
				
					<rect x="3.3" y="275.3" transform="matrix(0.5277 -0.8494 0.8494 0.5277 -233.0773 135.4947)" class="st2" width="4" height="4.1"/>
				
					<rect x="18.5" y="284.8" transform="matrix(0.5277 -0.8494 0.8494 0.5277 -234.0179 152.866)" class="st2" width="4" height="4.1"/>
				
					<rect x="32.1" y="293.3" transform="matrix(0.5277 -0.8494 0.8494 0.5277 -234.7718 168.3976)" class="st2" width="4" height="4.1"/>
			</g>
			<g>
				
					<rect x="-112.4" y="118.6" transform="matrix(0.5277 -0.8494 0.8494 0.5277 -154.589 -36.8102)" class="st2" width="4" height="4.1"/>
				
					<rect x="-97.2" y="128" transform="matrix(0.5277 -0.8494 0.8494 0.5277 -155.4324 -19.4343)" class="st2" width="4" height="4.1"/>
				
					<rect x="-82" y="137.5" transform="matrix(0.5277 -0.8494 0.8494 0.5277 -156.2759 -2.0583)" class="st2" width="4" height="4.1"/>
				
					<rect x="-66.6" y="147" transform="matrix(0.5277 -0.8494 0.8494 0.5277 -157.1288 15.5118)" class="st2" width="4" height="4.1"/>
				
					<rect x="-50.4" y="157.2" transform="matrix(0.5277 -0.8494 0.8494 0.5277 -158.1259 34.0479)" class="st2" width="4" height="4.1"/>
				
					<rect x="-35.3" y="166.6" transform="matrix(0.5277 -0.8494 0.8494 0.5277 -158.9646 51.3267)" class="st2" width="4" height="4.1"/>
				
					<rect x="-19.9" y="176.2" transform="matrix(0.5277 -0.8494 0.8494 0.5277 -159.8223 68.9939)" class="st2" width="4" height="4.1"/>
				
					<rect x="-4.7" y="185.6" transform="matrix(0.5277 -0.8494 0.8494 0.5277 -160.6657 86.3699)" class="st2" width="4" height="4.1"/>
				
					<rect x="10.6" y="195.1" transform="matrix(0.5277 -0.8494 0.8494 0.5277 -161.5139 103.8429)" class="st2" width="4" height="4.1"/>
				
					<rect x="25.9" y="204.6" transform="matrix(0.5277 -0.8494 0.8494 0.5277 -162.3621 121.3159)" class="st2" width="4" height="4.1"/>
				
					<rect x="41.3" y="214.2" transform="matrix(0.5277 -0.8494 0.8494 0.5277 -163.215 138.886)" class="st2" width="4" height="4.1"/>
				
					<rect x="56.4" y="223.7" transform="matrix(0.5277 -0.8494 0.8494 0.5277 -164.1555 156.2572)" class="st2" width="4" height="4.1"/>
				
					<rect x="70" y="232.1" transform="matrix(0.5277 -0.8494 0.8494 0.5277 -164.9095 171.7888)" class="st2" width="4" height="4.1"/>
			</g>
			<g>
				
					<rect x="-122.2" y="134.3" transform="matrix(0.5277 -0.8494 0.8494 0.5277 -172.5473 -37.682)" class="st2" width="4" height="4.1"/>
				
					<rect x="-107" y="143.7" transform="matrix(0.5277 -0.8494 0.8494 0.5277 -173.3908 -20.306)" class="st2" width="4" height="4.1"/>
				
					<rect x="-91.8" y="153.2" transform="matrix(0.5277 -0.8494 0.8494 0.5277 -174.2343 -2.9301)" class="st2" width="4" height="4.1"/>
				
					<rect x="-76.4" y="162.7" transform="matrix(0.5277 -0.8494 0.8494 0.5277 -175.0872 14.64)" class="st2" width="4" height="4.1"/>
				
					<rect x="-60.2" y="172.9" transform="matrix(0.5277 -0.8494 0.8494 0.5277 -176.0843 33.1761)" class="st2" width="4" height="4.1"/>
				
					<rect x="-45.1" y="182.3" transform="matrix(0.5277 -0.8494 0.8494 0.5277 -176.923 50.455)" class="st2" width="4" height="4.1"/>
				
					<rect x="-29.6" y="191.9" transform="matrix(0.5277 -0.8494 0.8494 0.5277 -177.7806 68.1222)" class="st2" width="4" height="4.1"/>
				
					<rect x="-14.4" y="201.3" transform="matrix(0.5277 -0.8494 0.8494 0.5277 -178.6241 85.4981)" class="st2" width="4" height="4.1"/>
				
					<rect x="0.9" y="210.8" transform="matrix(0.5277 -0.8494 0.8494 0.5277 -179.4723 102.9711)" class="st2" width="4" height="4.1"/>
				
					<rect x="16.2" y="220.3" transform="matrix(0.5277 -0.8494 0.8494 0.5277 -180.3204 120.4442)" class="st2" width="4" height="4.1"/>
				
					<rect x="31.5" y="229.9" transform="matrix(0.5277 -0.8494 0.8494 0.5277 -181.1734 138.0143)" class="st2" width="4" height="4.1"/>
				
					<rect x="46.7" y="239.4" transform="matrix(0.5277 -0.8494 0.8494 0.5277 -182.1139 155.3855)" class="st2" width="4" height="4.1"/>
				
					<rect x="60.3" y="247.9" transform="matrix(0.5277 -0.8494 0.8494 0.5277 -182.8678 170.9171)" class="st2" width="4" height="4.1"/>
			</g>
			<g>
				
					<rect x="-92.9" y="87.1" transform="matrix(0.5277 -0.8494 0.8494 0.5277 -118.6722 -35.0668)" class="st2" width="4" height="4.1"/>
				
					<rect x="-77.7" y="96.6" transform="matrix(0.5277 -0.8494 0.8494 0.5277 -119.5157 -17.6908)" class="st2" width="4" height="4.1"/>
				
					<rect x="-62.5" y="106" transform="matrix(0.5277 -0.8494 0.8494 0.5277 -120.3591 -0.3149)" class="st2" width="4" height="4.1"/>
				
					<rect x="-47.1" y="115.6" transform="matrix(0.5277 -0.8494 0.8494 0.5277 -121.212 17.2552)" class="st2" width="4" height="4.1"/>
				
					<rect x="-30.9" y="125.7" transform="matrix(0.5277 -0.8494 0.8494 0.5277 -122.2091 35.7913)" class="st2" width="4" height="4.1"/>
				
					<rect x="-15.8" y="135.1" transform="matrix(0.5277 -0.8494 0.8494 0.5277 -123.0479 53.0702)" class="st2" width="4" height="4.1"/>
				
					<rect x="-0.3" y="144.7" transform="matrix(0.5277 -0.8494 0.8494 0.5277 -123.9055 70.7374)" class="st2" width="4" height="4.1"/>
				
					<rect x="14.9" y="154.2" transform="matrix(0.5277 -0.8494 0.8494 0.5277 -124.7489 88.1133)" class="st2" width="4" height="4.1"/>
				
					<rect x="30.2" y="163.7" transform="matrix(0.5277 -0.8494 0.8494 0.5277 -125.5971 105.5864)" class="st2" width="4" height="4.1"/>
				
					<rect x="45.4" y="173.2" transform="matrix(0.5277 -0.8494 0.8494 0.5277 -126.4453 123.0594)" class="st2" width="4" height="4.1"/>
				
					<rect x="60.8" y="182.7" transform="matrix(0.5277 -0.8494 0.8494 0.5277 -127.2982 140.6295)" class="st2" width="4" height="4.1"/>
				
					<rect x="76" y="192.3" transform="matrix(0.5277 -0.8494 0.8494 0.5277 -128.2387 158.0007)" class="st2" width="4" height="4.1"/>
				
					<rect x="89.6" y="200.7" transform="matrix(0.5277 -0.8494 0.8494 0.5277 -128.9927 173.5323)" class="st2" width="4" height="4.1"/>
			</g>
			<g>
				
					<rect x="-102.6" y="102.9" transform="matrix(0.5277 -0.8494 0.8494 0.5277 -136.6306 -35.9385)" class="st2" width="4" height="4.1"/>
				
					<rect x="-87.4" y="112.3" transform="matrix(0.5277 -0.8494 0.8494 0.5277 -137.474 -18.5626)" class="st2" width="4" height="4.1"/>
				
					<rect x="-72.2" y="121.7" transform="matrix(0.5277 -0.8494 0.8494 0.5277 -138.3175 -1.1866)" class="st2" width="4" height="4.1"/>
				
					<rect x="-56.9" y="131.3" transform="matrix(0.5277 -0.8494 0.8494 0.5277 -139.1704 16.3835)" class="st2" width="4" height="4.1"/>
				
					<rect x="-40.7" y="141.5" transform="matrix(0.5277 -0.8494 0.8494 0.5277 -140.1675 34.9196)" class="st2" width="4" height="4.1"/>
				
					<rect x="-25.6" y="150.9" transform="matrix(0.5277 -0.8494 0.8494 0.5277 -141.0063 52.1985)" class="st2" width="4" height="4.1"/>
				
					<rect x="-10.1" y="160.5" transform="matrix(0.5277 -0.8494 0.8494 0.5277 -141.8639 69.8657)" class="st2" width="4" height="4.1"/>
				
					<rect x="5.1" y="169.9" transform="matrix(0.5277 -0.8494 0.8494 0.5277 -142.7073 87.2416)" class="st2" width="4" height="4.1"/>
				
					<rect x="20.4" y="179.4" transform="matrix(0.5277 -0.8494 0.8494 0.5277 -143.5555 104.7146)" class="st2" width="4" height="4.1"/>
				
					<rect x="35.7" y="188.9" transform="matrix(0.5277 -0.8494 0.8494 0.5277 -144.4037 122.1877)" class="st2" width="4" height="4.1"/>
				
					<rect x="51.1" y="198.5" transform="matrix(0.5277 -0.8494 0.8494 0.5277 -145.2566 139.7578)" class="st2" width="4" height="4.1"/>
				
					<rect x="66.2" y="208" transform="matrix(0.5277 -0.8494 0.8494 0.5277 -146.1971 157.129)" class="st2" width="4" height="4.1"/>
				
					<rect x="79.8" y="216.4" transform="matrix(0.5277 -0.8494 0.8494 0.5277 -146.9511 172.6606)" class="st2" width="4" height="4.1"/>
			</g>
			<g>
				
					<rect x="-73.3" y="55.7" transform="matrix(0.5277 -0.8494 0.8494 0.5277 -82.7554 -33.3233)" class="st2" width="4" height="4.1"/>
				
					<rect x="-58.1" y="65.2" transform="matrix(0.5277 -0.8494 0.8494 0.5277 -83.5989 -15.9473)" class="st2" width="4" height="4.1"/>
				
					<rect x="-42.9" y="74.6" transform="matrix(0.5277 -0.8494 0.8494 0.5277 -84.4424 1.4286)" class="st2" width="4" height="4.1"/>
				
					<rect x="-27.6" y="84.2" transform="matrix(0.5277 -0.8494 0.8494 0.5277 -85.2952 18.9987)" class="st2" width="4" height="4.1"/>
				
					<rect x="-11.4" y="94.3" transform="matrix(0.5277 -0.8494 0.8494 0.5277 -86.2923 37.5348)" class="st2" width="4" height="4.1"/>
				
					<rect x="3.7" y="103.7" transform="matrix(0.5277 -0.8494 0.8494 0.5277 -87.1311 54.8137)" class="st2" width="4" height="4.1"/>
				
					<rect x="19.2" y="113.3" transform="matrix(0.5277 -0.8494 0.8494 0.5277 -87.9887 72.4809)" class="st2" width="4" height="4.1"/>
				
					<rect x="34.4" y="122.8" transform="matrix(0.5277 -0.8494 0.8494 0.5277 -88.8322 89.8568)" class="st2" width="4" height="4.1"/>
				
					<rect x="49.7" y="132.3" transform="matrix(0.5277 -0.8494 0.8494 0.5277 -89.6803 107.3298)" class="st2" width="4" height="4.1"/>
				
					<rect x="65" y="141.8" transform="matrix(0.5277 -0.8494 0.8494 0.5277 -90.5285 124.8029)" class="st2" width="4" height="4.1"/>
				
					<rect x="80.3" y="151.3" transform="matrix(0.5277 -0.8494 0.8494 0.5277 -91.3814 142.373)" class="st2" width="4" height="4.1"/>
				
					<rect x="95.5" y="160.8" transform="matrix(0.5277 -0.8494 0.8494 0.5277 -92.322 159.7442)" class="st2" width="4" height="4.1"/>
				
					<rect x="109.1" y="169.3" transform="matrix(0.5277 -0.8494 0.8494 0.5277 -93.0759 175.2758)" class="st2" width="4" height="4.1"/>
			</g>
			<g>
				
					<rect x="-83.1" y="71.4" transform="matrix(0.5277 -0.8494 0.8494 0.5277 -100.7138 -34.195)" class="st2" width="4" height="4.1"/>
				
					<rect x="-67.9" y="80.9" transform="matrix(0.5277 -0.8494 0.8494 0.5277 -101.5573 -16.8191)" class="st2" width="4" height="4.1"/>
				
					<rect x="-52.7" y="90.3" transform="matrix(0.5277 -0.8494 0.8494 0.5277 -102.4007 0.5569)" class="st2" width="4" height="4.1"/>
				
					<rect x="-37.3" y="99.9" transform="matrix(0.5277 -0.8494 0.8494 0.5277 -103.2536 18.127)" class="st2" width="4" height="4.1"/>
				
					<rect x="-21.2" y="110" transform="matrix(0.5277 -0.8494 0.8494 0.5277 -104.2507 36.6631)" class="st2" width="4" height="4.1"/>
				
					<rect x="-6" y="119.4" transform="matrix(0.5277 -0.8494 0.8494 0.5277 -105.0895 53.942)" class="st2" width="4" height="4.1"/>
				
					<rect x="9.4" y="129" transform="matrix(0.5277 -0.8494 0.8494 0.5277 -105.9471 71.6091)" class="st2" width="4" height="4.1"/>
				
					<rect x="24.6" y="138.5" transform="matrix(0.5277 -0.8494 0.8494 0.5277 -106.7906 88.9851)" class="st2" width="4" height="4.1"/>
				
					<rect x="39.9" y="148" transform="matrix(0.5277 -0.8494 0.8494 0.5277 -107.6387 106.4581)" class="st2" width="4" height="4.1"/>
				
					<rect x="55.2" y="157.5" transform="matrix(0.5277 -0.8494 0.8494 0.5277 -108.4869 123.9311)" class="st2" width="4" height="4.1"/>
				
					<rect x="70.6" y="167" transform="matrix(0.5277 -0.8494 0.8494 0.5277 -109.3398 141.5012)" class="st2" width="4" height="4.1"/>
				
					<rect x="85.7" y="176.6" transform="matrix(0.5277 -0.8494 0.8494 0.5277 -110.2803 158.8725)" class="st2" width="4" height="4.1"/>
				
					<rect x="99.3" y="185" transform="matrix(0.5277 -0.8494 0.8494 0.5277 -111.0343 174.4041)" class="st2" width="4" height="4.1"/>
			</g>
			<g>
				
					<rect x="-53.8" y="24.3" transform="matrix(0.5277 -0.8494 0.8494 0.5277 -46.8386 -31.5798)" class="st2" width="4" height="4.1"/>
				
					<rect x="-38.6" y="33.7" transform="matrix(0.5277 -0.8494 0.8494 0.5277 -47.6821 -14.2039)" class="st2" width="4" height="4.1"/>
				
					<rect x="-23.4" y="43.2" transform="matrix(0.5277 -0.8494 0.8494 0.5277 -48.5256 3.1721)" class="st2" width="4" height="4.1"/>
				<rect x="-8" y="52.7" transform="matrix(0.5277 -0.8494 0.8494 0.5277 -49.3785 20.7422)" class="st2" width="4" height="4.1"/>
				
					<rect x="8.1" y="62.9" transform="matrix(0.5277 -0.8494 0.8494 0.5277 -50.3756 39.2783)" class="st2" width="4" height="4.1"/>
				
					<rect x="23.3" y="72.3" transform="matrix(0.5277 -0.8494 0.8494 0.5277 -51.2143 56.5572)" class="st2" width="4" height="4.1"/>
				
					<rect x="38.7" y="81.9" transform="matrix(0.5277 -0.8494 0.8494 0.5277 -52.0719 74.2244)" class="st2" width="4" height="4.1"/>
				
					<rect x="53.9" y="91.3" transform="matrix(0.5277 -0.8494 0.8494 0.5277 -52.9154 91.6003)" class="st2" width="4" height="4.1"/>
				
					<rect x="69.2" y="100.8" transform="matrix(0.5277 -0.8494 0.8494 0.5277 -53.7636 109.0733)" class="st2" width="4" height="4.1"/>
				
					<rect x="84.5" y="110.3" transform="matrix(0.5277 -0.8494 0.8494 0.5277 -54.6118 126.5464)" class="st2" width="4" height="4.1"/>
				
					<rect x="99.9" y="119.9" transform="matrix(0.5277 -0.8494 0.8494 0.5277 -55.4646 144.1165)" class="st2" width="4" height="4.1"/>
				
					<rect x="115" y="129.4" transform="matrix(0.5277 -0.8494 0.8494 0.5277 -56.4052 161.4877)" class="st2" width="4" height="4.1"/>
				
					<rect x="128.6" y="137.9" transform="matrix(0.5277 -0.8494 0.8494 0.5277 -57.1591 177.0193)" class="st2" width="4" height="4.1"/>
			</g>
			<g>
				
					<rect x="-63.6" y="40" transform="matrix(0.5277 -0.8494 0.8494 0.5277 -64.797 -32.4515)" class="st2" width="4" height="4.1"/>
				
					<rect x="-48.4" y="49.4" transform="matrix(0.5277 -0.8494 0.8494 0.5277 -65.6405 -15.0756)" class="st2" width="4" height="4.1"/>
				
					<rect x="-33.2" y="58.9" transform="matrix(0.5277 -0.8494 0.8494 0.5277 -66.484 2.3004)" class="st2" width="4" height="4.1"/>
				
					<rect x="-17.8" y="68.4" transform="matrix(0.5277 -0.8494 0.8494 0.5277 -67.3369 19.8705)" class="st2" width="4" height="4.1"/>
				
					<rect x="-1.6" y="78.6" transform="matrix(0.5277 -0.8494 0.8494 0.5277 -68.3339 38.4066)" class="st2" width="4" height="4.1"/>
				<rect x="13.5" y="88" transform="matrix(0.5277 -0.8494 0.8494 0.5277 -69.1727 55.6854)" class="st2" width="4" height="4.1"/>
				<rect x="29" y="97.6" transform="matrix(0.5277 -0.8494 0.8494 0.5277 -70.0303 73.3526)" class="st2" width="4" height="4.1"/>
				
					<rect x="44.2" y="107.1" transform="matrix(0.5277 -0.8494 0.8494 0.5277 -70.8738 90.7286)" class="st2" width="4" height="4.1"/>
				
					<rect x="59.4" y="116.6" transform="matrix(0.5277 -0.8494 0.8494 0.5277 -71.722 108.2016)" class="st2" width="4" height="4.1"/>
				
					<rect x="74.7" y="126" transform="matrix(0.5277 -0.8494 0.8494 0.5277 -72.5701 125.6746)" class="st2" width="4" height="4.1"/>
				
					<rect x="90.1" y="135.6" transform="matrix(0.5277 -0.8494 0.8494 0.5277 -73.423 143.2447)" class="st2" width="4" height="4.1"/>
				
					<rect x="105.3" y="145.1" transform="matrix(0.5277 -0.8494 0.8494 0.5277 -74.3636 160.616)" class="st2" width="4" height="4.1"/>
				
					<rect x="118.9" y="153.6" transform="matrix(0.5277 -0.8494 0.8494 0.5277 -75.1175 176.1475)" class="st2" width="4" height="4.1"/>
			</g>
			<g>
				
					<rect x="-34.3" y="-7.1" transform="matrix(0.5277 -0.8494 0.8494 0.5277 -10.9219 -29.8363)" class="st2" width="4" height="4.1"/>
				
					<rect x="-19.1" y="2.3" transform="matrix(0.5277 -0.8494 0.8494 0.5277 -11.7653 -12.4604)" class="st2" width="4" height="4.1"/>
				
					<rect x="-3.9" y="11.7" transform="matrix(0.5277 -0.8494 0.8494 0.5277 -12.6088 4.9156)" class="st2" width="4" height="4.1"/>
				
					<rect x="11.5" y="21.3" transform="matrix(0.5277 -0.8494 0.8494 0.5277 -13.4617 22.4857)" class="st2" width="4" height="4.1"/>
				
					<rect x="27.7" y="31.5" transform="matrix(0.5277 -0.8494 0.8494 0.5277 -14.4588 41.0218)" class="st2" width="4" height="4.1"/>
				
					<rect x="42.8" y="40.9" transform="matrix(0.5277 -0.8494 0.8494 0.5277 -15.2975 58.3007)" class="st2" width="4" height="4.1"/>
				
					<rect x="58.2" y="50.5" transform="matrix(0.5277 -0.8494 0.8494 0.5277 -16.1551 75.9678)" class="st2" width="4" height="4.1"/>
				
					<rect x="73.4" y="59.9" transform="matrix(0.5277 -0.8494 0.8494 0.5277 -16.9986 93.3438)" class="st2" width="4" height="4.1"/>
				
					<rect x="88.7" y="69.4" transform="matrix(0.5277 -0.8494 0.8494 0.5277 -17.8468 110.8168)" class="st2" width="4" height="4.1"/>
				
					<rect x="104" y="78.9" transform="matrix(0.5277 -0.8494 0.8494 0.5277 -18.695 128.2898)" class="st2" width="4" height="4.1"/>
				
					<rect x="119.4" y="88.5" transform="matrix(0.5277 -0.8494 0.8494 0.5277 -19.5479 145.8599)" class="st2" width="4" height="4.1"/>
				
					<rect x="134.5" y="98" transform="matrix(0.5277 -0.8494 0.8494 0.5277 -20.4884 163.2312)" class="st2" width="4" height="4.1"/>
				
					<rect x="148.1" y="106.4" transform="matrix(0.5277 -0.8494 0.8494 0.5277 -21.2424 178.7628)" class="st2" width="4" height="4.1"/>
			</g>
			<g>
				
					<rect x="-44.1" y="8.6" transform="matrix(0.5277 -0.8494 0.8494 0.5277 -28.8803 -30.7081)" class="st2" width="4" height="4.1"/>
				
					<rect x="-28.9" y="18" transform="matrix(0.5277 -0.8494 0.8494 0.5277 -29.7237 -13.3321)" class="st2" width="4" height="4.1"/>
				
					<rect x="-13.6" y="27.5" transform="matrix(0.5277 -0.8494 0.8494 0.5277 -30.5672 4.0438)" class="st2" width="4" height="4.1"/>
				<rect x="1.7" y="37" transform="matrix(0.5277 -0.8494 0.8494 0.5277 -31.4201 21.6139)" class="st2" width="4" height="4.1"/>
				<rect x="17.9" y="47.2" transform="matrix(0.5277 -0.8494 0.8494 0.5277 -32.4172 40.15)" class="st2" width="4" height="4.1"/>
				<rect x="33" y="56.6" transform="matrix(0.5277 -0.8494 0.8494 0.5277 -33.2559 57.4289)" class="st2" width="4" height="4.1"/>
				
					<rect x="48.5" y="66.2" transform="matrix(0.5277 -0.8494 0.8494 0.5277 -34.1135 75.0961)" class="st2" width="4" height="4.1"/>
				<rect x="63.7" y="75.6" transform="matrix(0.5277 -0.8494 0.8494 0.5277 -34.957 92.472)" class="st2" width="4" height="4.1"/>
				
					<rect x="79" y="85.1" transform="matrix(0.5277 -0.8494 0.8494 0.5277 -35.8052 109.9451)" class="st2" width="4" height="4.1"/>
				
					<rect x="94.3" y="94.6" transform="matrix(0.5277 -0.8494 0.8494 0.5277 -36.6534 127.4181)" class="st2" width="4" height="4.1"/>
				
					<rect x="109.6" y="104.2" transform="matrix(0.5277 -0.8494 0.8494 0.5277 -37.5063 144.9882)" class="st2" width="4" height="4.1"/>
				
					<rect x="124.8" y="113.7" transform="matrix(0.5277 -0.8494 0.8494 0.5277 -38.4468 162.3594)" class="st2" width="4" height="4.1"/>
				
					<rect x="138.4" y="122.1" transform="matrix(0.5277 -0.8494 0.8494 0.5277 -39.2007 177.891)" class="st2" width="4" height="4.1"/>
			</g>
		</g>
		<g class="st1">
			<g>
				
					<rect x="65.9" y="272.9" transform="matrix(0.5277 -0.8494 0.8494 0.5277 -201.4802 187.5278)" class="st2" width="4" height="4.1"/>
				
					<rect x="81.1" y="282.4" transform="matrix(0.5277 -0.8494 0.8494 0.5277 -202.3237 204.9037)" class="st2" width="4" height="4.1"/>
				
					<rect x="96.3" y="291.8" transform="matrix(0.5277 -0.8494 0.8494 0.5277 -203.1672 222.2797)" class="st2" width="4" height="4.1"/>
				
					<rect x="111.7" y="301.3" transform="matrix(0.5277 -0.8494 0.8494 0.5277 -204.0201 239.8498)" class="st2" width="4" height="4.1"/>
				
					<rect x="127.9" y="311.5" transform="matrix(0.5277 -0.8494 0.8494 0.5277 -205.0172 258.3859)" class="st2" width="4" height="4.1"/>
				
					<rect x="143" y="320.9" transform="matrix(0.5277 -0.8494 0.8494 0.5277 -205.8559 275.6648)" class="st2" width="4" height="4.1"/>
				
					<rect x="158.4" y="330.5" transform="matrix(0.5277 -0.8494 0.8494 0.5277 -206.7135 293.332)" class="st2" width="4" height="4.1"/>
				
					<rect x="173.6" y="340" transform="matrix(0.5277 -0.8494 0.8494 0.5277 -207.557 310.7079)" class="st2" width="4" height="4.1"/>
				
					<rect x="188.9" y="349.5" transform="matrix(0.5277 -0.8494 0.8494 0.5277 -208.4052 328.1809)" class="st2" width="4" height="4.1"/>
				
					<rect x="204.2" y="359" transform="matrix(0.5277 -0.8494 0.8494 0.5277 -209.2534 345.654)" class="st2" width="4" height="4.1"/>
				
					<rect x="219.6" y="368.5" transform="matrix(0.5277 -0.8494 0.8494 0.5277 -210.1062 363.2241)" class="st2" width="4" height="4.1"/>
				
					<rect x="234.7" y="378" transform="matrix(0.5277 -0.8494 0.8494 0.5277 -211.0468 380.5953)" class="st2" width="4" height="4.1"/>
				
					<rect x="248.3" y="386.5" transform="matrix(0.5277 -0.8494 0.8494 0.5277 -211.8007 396.1269)" class="st2" width="4" height="4.1"/>
			</g>
			<g>
				
					<rect x="56.1" y="288.6" transform="matrix(0.5277 -0.8494 0.8494 0.5277 -219.4386 186.6561)" class="st2" width="4" height="4.1"/>
				
					<rect x="71.3" y="298.1" transform="matrix(0.5277 -0.8494 0.8494 0.5277 -220.2821 204.032)" class="st2" width="4" height="4.1"/>
				
					<rect x="86.5" y="307.5" transform="matrix(0.5277 -0.8494 0.8494 0.5277 -221.1256 221.408)" class="st2" width="4" height="4.1"/>
				
					<rect x="101.9" y="317.1" transform="matrix(0.5277 -0.8494 0.8494 0.5277 -221.9785 238.9781)" class="st2" width="4" height="4.1"/>
				
					<rect x="118.1" y="327.2" transform="matrix(0.5277 -0.8494 0.8494 0.5277 -222.9756 257.5142)" class="st2" width="4" height="4.1"/>
				
					<rect x="133.2" y="336.6" transform="matrix(0.5277 -0.8494 0.8494 0.5277 -223.8143 274.7931)" class="st2" width="4" height="4.1"/>
				
					<rect x="148.7" y="346.2" transform="matrix(0.5277 -0.8494 0.8494 0.5277 -224.6719 292.4602)" class="st2" width="4" height="4.1"/>
				
					<rect x="163.9" y="355.7" transform="matrix(0.5277 -0.8494 0.8494 0.5277 -225.5154 309.8362)" class="st2" width="4" height="4.1"/>
				
					<rect x="179.2" y="365.2" transform="matrix(0.5277 -0.8494 0.8494 0.5277 -226.3636 327.3092)" class="st2" width="4" height="4.1"/>
				
					<rect x="194.5" y="374.7" transform="matrix(0.5277 -0.8494 0.8494 0.5277 -227.2117 344.7822)" class="st2" width="4" height="4.1"/>
				
					<rect x="209.8" y="384.2" transform="matrix(0.5277 -0.8494 0.8494 0.5277 -228.0646 362.3523)" class="st2" width="4" height="4.1"/>
				
					<rect x="225" y="393.8" transform="matrix(0.5277 -0.8494 0.8494 0.5277 -229.0052 379.7236)" class="st2" width="4" height="4.1"/>
				
					<rect x="238.6" y="402.2" transform="matrix(0.5277 -0.8494 0.8494 0.5277 -229.7591 395.2551)" class="st2" width="4" height="4.1"/>
			</g>
			<g>
				
					<rect x="47.4" y="302.6" transform="matrix(0.5277 -0.8494 0.8494 0.5277 -235.4259 185.88)" class="st2" width="4" height="4.1"/>
				
					<rect x="62.7" y="312.1" transform="matrix(0.5277 -0.8494 0.8494 0.5277 -236.2693 203.256)" class="st2" width="4" height="4.1"/>
				
					<rect x="77.9" y="321.5" transform="matrix(0.5277 -0.8494 0.8494 0.5277 -237.1128 220.6319)" class="st2" width="4" height="4.1"/>
				
					<rect x="93.2" y="331.1" transform="matrix(0.5277 -0.8494 0.8494 0.5277 -237.9657 238.202)" class="st2" width="4" height="4.1"/>
				
					<rect x="109.4" y="341.2" transform="matrix(0.5277 -0.8494 0.8494 0.5277 -238.9628 256.7381)" class="st2" width="4" height="4.1"/>
				
					<rect x="124.5" y="350.6" transform="matrix(0.5277 -0.8494 0.8494 0.5277 -239.8015 274.017)" class="st2" width="4" height="4.1"/>
				
					<rect x="140" y="360.2" transform="matrix(0.5277 -0.8494 0.8494 0.5277 -240.6591 291.6842)" class="st2" width="4" height="4.1"/>
				
					<rect x="155.2" y="369.7" transform="matrix(0.5277 -0.8494 0.8494 0.5277 -241.5026 309.0601)" class="st2" width="4" height="4.1"/>
				
					<rect x="170.5" y="379.2" transform="matrix(0.5277 -0.8494 0.8494 0.5277 -242.3508 326.5331)" class="st2" width="4" height="4.1"/>
				
					<rect x="185.8" y="388.7" transform="matrix(0.5277 -0.8494 0.8494 0.5277 -243.199 344.0062)" class="st2" width="4" height="4.1"/>
				
					<rect x="201.1" y="398.2" transform="matrix(0.5277 -0.8494 0.8494 0.5277 -244.0519 361.5763)" class="st2" width="4" height="4.1"/>
				
					<rect x="216.3" y="407.7" transform="matrix(0.5277 -0.8494 0.8494 0.5277 -244.9924 378.9475)" class="st2" width="4" height="4.1"/>
				
					<rect x="229.9" y="416.2" transform="matrix(0.5277 -0.8494 0.8494 0.5277 -245.7463 394.4791)" class="st2" width="4" height="4.1"/>
			</g>
			<g>
				
					<rect x="85.4" y="241.5" transform="matrix(0.5277 -0.8494 0.8494 0.5277 -165.5635 189.2713)" class="st2" width="4" height="4.1"/>
				
					<rect x="100.6" y="250.9" transform="matrix(0.5277 -0.8494 0.8494 0.5277 -166.4069 206.6472)" class="st2" width="4" height="4.1"/>
				
					<rect x="115.8" y="260.4" transform="matrix(0.5277 -0.8494 0.8494 0.5277 -167.2504 224.0232)" class="st2" width="4" height="4.1"/>
				
					<rect x="131.2" y="269.9" transform="matrix(0.5277 -0.8494 0.8494 0.5277 -168.1033 241.5933)" class="st2" width="4" height="4.1"/>
				
					<rect x="147.4" y="280.1" transform="matrix(0.5277 -0.8494 0.8494 0.5277 -169.1004 260.1294)" class="st2" width="4" height="4.1"/>
				
					<rect x="162.5" y="289.5" transform="matrix(0.5277 -0.8494 0.8494 0.5277 -169.9391 277.4083)" class="st2" width="4" height="4.1"/>
				
					<rect x="178" y="299.1" transform="matrix(0.5277 -0.8494 0.8494 0.5277 -170.7968 295.0754)" class="st2" width="4" height="4.1"/>
				
					<rect x="193.2" y="308.5" transform="matrix(0.5277 -0.8494 0.8494 0.5277 -171.6402 312.4514)" class="st2" width="4" height="4.1"/>
				
					<rect x="208.5" y="318" transform="matrix(0.5277 -0.8494 0.8494 0.5277 -172.4884 329.9244)" class="st2" width="4" height="4.1"/>
				
					<rect x="223.7" y="327.5" transform="matrix(0.5277 -0.8494 0.8494 0.5277 -173.3366 347.3974)" class="st2" width="4" height="4.1"/>
				
					<rect x="239.1" y="337.1" transform="matrix(0.5277 -0.8494 0.8494 0.5277 -174.1895 364.9676)" class="st2" width="4" height="4.1"/>
				
					<rect x="254.3" y="346.6" transform="matrix(0.5277 -0.8494 0.8494 0.5277 -175.13 382.3388)" class="st2" width="4" height="4.1"/>
				
					<rect x="267.9" y="355.1" transform="matrix(0.5277 -0.8494 0.8494 0.5277 -175.884 397.8704)" class="st2" width="4" height="4.1"/>
			</g>
			<g>
				
					<rect x="75.7" y="257.2" transform="matrix(0.5277 -0.8494 0.8494 0.5277 -183.5219 188.3995)" class="st2" width="4" height="4.1"/>
				
					<rect x="90.9" y="266.6" transform="matrix(0.5277 -0.8494 0.8494 0.5277 -184.3653 205.7755)" class="st2" width="4" height="4.1"/>
				
					<rect x="106.1" y="276.1" transform="matrix(0.5277 -0.8494 0.8494 0.5277 -185.2088 223.1514)" class="st2" width="4" height="4.1"/>
				
					<rect x="121.4" y="285.6" transform="matrix(0.5277 -0.8494 0.8494 0.5277 -186.0617 240.7215)" class="st2" width="4" height="4.1"/>
				
					<rect x="137.6" y="295.8" transform="matrix(0.5277 -0.8494 0.8494 0.5277 -187.0588 259.2577)" class="st2" width="4" height="4.1"/>
				
					<rect x="152.7" y="305.2" transform="matrix(0.5277 -0.8494 0.8494 0.5277 -187.8975 276.5365)" class="st2" width="4" height="4.1"/>
				
					<rect x="168.2" y="314.8" transform="matrix(0.5277 -0.8494 0.8494 0.5277 -188.7551 294.2037)" class="st2" width="4" height="4.1"/>
				
					<rect x="183.4" y="324.2" transform="matrix(0.5277 -0.8494 0.8494 0.5277 -189.5986 311.5797)" class="st2" width="4" height="4.1"/>
				
					<rect x="198.7" y="333.7" transform="matrix(0.5277 -0.8494 0.8494 0.5277 -190.4468 329.0527)" class="st2" width="4" height="4.1"/>
				
					<rect x="214" y="343.2" transform="matrix(0.5277 -0.8494 0.8494 0.5277 -191.295 346.5257)" class="st2" width="4" height="4.1"/>
				
					<rect x="229.4" y="352.8" transform="matrix(0.5277 -0.8494 0.8494 0.5277 -192.1479 364.0958)" class="st2" width="4" height="4.1"/>
				
					<rect x="244.5" y="362.3" transform="matrix(0.5277 -0.8494 0.8494 0.5277 -193.0884 381.467)" class="st2" width="4" height="4.1"/>
				
					<rect x="258.1" y="370.8" transform="matrix(0.5277 -0.8494 0.8494 0.5277 -193.8423 396.9986)" class="st2" width="4" height="4.1"/>
			</g>
			<g>
				
					<rect x="105" y="210" transform="matrix(0.5277 -0.8494 0.8494 0.5277 -129.6467 191.0148)" class="st2" width="4" height="4.1"/>
				
					<rect x="120.2" y="219.5" transform="matrix(0.5277 -0.8494 0.8494 0.5277 -130.4902 208.3907)" class="st2" width="4" height="4.1"/>
				
					<rect x="135.4" y="228.9" transform="matrix(0.5277 -0.8494 0.8494 0.5277 -131.3336 225.7667)" class="st2" width="4" height="4.1"/>
				
					<rect x="150.7" y="238.5" transform="matrix(0.5277 -0.8494 0.8494 0.5277 -132.1865 243.3368)" class="st2" width="4" height="4.1"/>
				
					<rect x="166.9" y="248.7" transform="matrix(0.5277 -0.8494 0.8494 0.5277 -133.1836 261.8729)" class="st2" width="4" height="4.1"/>
				
					<rect x="182" y="258.1" transform="matrix(0.5277 -0.8494 0.8494 0.5277 -134.0224 279.1518)" class="st2" width="4" height="4.1"/>
				
					<rect x="197.5" y="267.7" transform="matrix(0.5277 -0.8494 0.8494 0.5277 -134.88 296.8189)" class="st2" width="4" height="4.1"/>
				
					<rect x="212.7" y="277.1" transform="matrix(0.5277 -0.8494 0.8494 0.5277 -135.7234 314.1949)" class="st2" width="4" height="4.1"/>
				
					<rect x="228" y="286.6" transform="matrix(0.5277 -0.8494 0.8494 0.5277 -136.5716 331.6679)" class="st2" width="4" height="4.1"/>
				
					<rect x="243.3" y="296.1" transform="matrix(0.5277 -0.8494 0.8494 0.5277 -137.4198 349.1409)" class="st2" width="4" height="4.1"/>
				
					<rect x="258.6" y="305.7" transform="matrix(0.5277 -0.8494 0.8494 0.5277 -138.2727 366.711)" class="st2" width="4" height="4.1"/>
				
					<rect x="273.8" y="315.2" transform="matrix(0.5277 -0.8494 0.8494 0.5277 -139.2132 384.0822)" class="st2" width="4" height="4.1"/>
				
					<rect x="287.4" y="323.6" transform="matrix(0.5277 -0.8494 0.8494 0.5277 -139.9672 399.6138)" class="st2" width="4" height="4.1"/>
			</g>
			<g>
				
					<rect x="95.2" y="225.8" transform="matrix(0.5277 -0.8494 0.8494 0.5277 -147.6051 190.143)" class="st2" width="4" height="4.1"/>
				
					<rect x="110.4" y="235.2" transform="matrix(0.5277 -0.8494 0.8494 0.5277 -148.4485 207.519)" class="st2" width="4" height="4.1"/>
				
					<rect x="125.6" y="244.7" transform="matrix(0.5277 -0.8494 0.8494 0.5277 -149.292 224.8949)" class="st2" width="4" height="4.1"/>
				
					<rect x="141" y="254.2" transform="matrix(0.5277 -0.8494 0.8494 0.5277 -150.1449 242.465)" class="st2" width="4" height="4.1"/>
				
					<rect x="157.1" y="264.4" transform="matrix(0.5277 -0.8494 0.8494 0.5277 -151.142 261.0011)" class="st2" width="4" height="4.1"/>
				
					<rect x="172.3" y="273.8" transform="matrix(0.5277 -0.8494 0.8494 0.5277 -151.9808 278.28)" class="st2" width="4" height="4.1"/>
				
					<rect x="187.7" y="283.4" transform="matrix(0.5277 -0.8494 0.8494 0.5277 -152.8384 295.9472)" class="st2" width="4" height="4.1"/>
				
					<rect x="202.9" y="292.8" transform="matrix(0.5277 -0.8494 0.8494 0.5277 -153.6818 313.3232)" class="st2" width="4" height="4.1"/>
				
					<rect x="218.2" y="302.3" transform="matrix(0.5277 -0.8494 0.8494 0.5277 -154.53 330.7961)" class="st2" width="4" height="4.1"/>
				
					<rect x="233.5" y="311.8" transform="matrix(0.5277 -0.8494 0.8494 0.5277 -155.3782 348.2692)" class="st2" width="4" height="4.1"/>
				
					<rect x="248.9" y="321.4" transform="matrix(0.5277 -0.8494 0.8494 0.5277 -156.2311 365.8393)" class="st2" width="4" height="4.1"/>
				
					<rect x="264" y="330.9" transform="matrix(0.5277 -0.8494 0.8494 0.5277 -157.1716 383.2105)" class="st2" width="4" height="4.1"/>
				
					<rect x="277.6" y="339.3" transform="matrix(0.5277 -0.8494 0.8494 0.5277 -157.9256 398.7421)" class="st2" width="4" height="4.1"/>
			</g>
			<g>
				
					<rect x="124.5" y="178.6" transform="matrix(0.5277 -0.8494 0.8494 0.5277 -93.7299 192.7582)" class="st2" width="4" height="4.1"/>
				
					<rect x="139.7" y="188.1" transform="matrix(0.5277 -0.8494 0.8494 0.5277 -94.5734 210.1342)" class="st2" width="4" height="4.1"/>
				
					<rect x="154.9" y="197.5" transform="matrix(0.5277 -0.8494 0.8494 0.5277 -95.4169 227.5101)" class="st2" width="4" height="4.1"/>
				
					<rect x="170.3" y="207.1" transform="matrix(0.5277 -0.8494 0.8494 0.5277 -96.2698 245.0802)" class="st2" width="4" height="4.1"/>
				
					<rect x="186.4" y="217.2" transform="matrix(0.5277 -0.8494 0.8494 0.5277 -97.2668 263.6164)" class="st2" width="4" height="4.1"/>
				
					<rect x="201.6" y="226.6" transform="matrix(0.5277 -0.8494 0.8494 0.5277 -98.1056 280.8952)" class="st2" width="4" height="4.1"/>
				
					<rect x="217" y="236.2" transform="matrix(0.5277 -0.8494 0.8494 0.5277 -98.9632 298.5624)" class="st2" width="4" height="4.1"/>
				
					<rect x="232.2" y="245.7" transform="matrix(0.5277 -0.8494 0.8494 0.5277 -99.8067 315.9384)" class="st2" width="4" height="4.1"/>
				
					<rect x="247.5" y="255.2" transform="matrix(0.5277 -0.8494 0.8494 0.5277 -100.6549 333.4114)" class="st2" width="4" height="4.1"/>
				
					<rect x="262.8" y="264.7" transform="matrix(0.5277 -0.8494 0.8494 0.5277 -101.503 350.8844)" class="st2" width="4" height="4.1"/>
				
					<rect x="278.2" y="274.2" transform="matrix(0.5277 -0.8494 0.8494 0.5277 -102.3559 368.4545)" class="st2" width="4" height="4.1"/>
				
					<rect x="293.3" y="283.8" transform="matrix(0.5277 -0.8494 0.8494 0.5277 -103.2965 385.8257)" class="st2" width="4" height="4.1"/>
				
					<rect x="306.9" y="292.2" transform="matrix(0.5277 -0.8494 0.8494 0.5277 -104.0504 401.3573)" class="st2" width="4" height="4.1"/>
			</g>
			<g>
				
					<rect x="114.7" y="194.3" transform="matrix(0.5277 -0.8494 0.8494 0.5277 -111.6883 191.8865)" class="st2" width="4" height="4.1"/>
				
					<rect x="129.9" y="203.8" transform="matrix(0.5277 -0.8494 0.8494 0.5277 -112.5318 209.2625)" class="st2" width="4" height="4.1"/>
				
					<rect x="145.1" y="213.2" transform="matrix(0.5277 -0.8494 0.8494 0.5277 -113.3752 226.6384)" class="st2" width="4" height="4.1"/>
				
					<rect x="160.5" y="222.8" transform="matrix(0.5277 -0.8494 0.8494 0.5277 -114.2281 244.2085)" class="st2" width="4" height="4.1"/>
				
					<rect x="176.7" y="232.9" transform="matrix(0.5277 -0.8494 0.8494 0.5277 -115.2252 262.7446)" class="st2" width="4" height="4.1"/>
				
					<rect x="191.8" y="242.3" transform="matrix(0.5277 -0.8494 0.8494 0.5277 -116.064 280.0235)" class="st2" width="4" height="4.1"/>
				
					<rect x="207.3" y="251.9" transform="matrix(0.5277 -0.8494 0.8494 0.5277 -116.9216 297.6907)" class="st2" width="4" height="4.1"/>
				
					<rect x="222.5" y="261.4" transform="matrix(0.5277 -0.8494 0.8494 0.5277 -117.7651 315.0666)" class="st2" width="4" height="4.1"/>
				
					<rect x="237.7" y="270.9" transform="matrix(0.5277 -0.8494 0.8494 0.5277 -118.6132 332.5396)" class="st2" width="4" height="4.1"/>
				
					<rect x="253" y="280.4" transform="matrix(0.5277 -0.8494 0.8494 0.5277 -119.4614 350.0127)" class="st2" width="4" height="4.1"/>
				
					<rect x="268.4" y="289.9" transform="matrix(0.5277 -0.8494 0.8494 0.5277 -120.3143 367.5828)" class="st2" width="4" height="4.1"/>
				
					<rect x="283.6" y="299.5" transform="matrix(0.5277 -0.8494 0.8494 0.5277 -121.2549 384.954)" class="st2" width="4" height="4.1"/>
				
					<rect x="297.2" y="307.9" transform="matrix(0.5277 -0.8494 0.8494 0.5277 -122.0088 400.4856)" class="st2" width="4" height="4.1"/>
			</g>
			<g>
				
					<rect x="144" y="147.2" transform="matrix(0.5277 -0.8494 0.8494 0.5277 -57.8131 194.5017)" class="st2" width="4" height="4.1"/>
				
					<rect x="159.2" y="156.6" transform="matrix(0.5277 -0.8494 0.8494 0.5277 -58.6566 211.8777)" class="st2" width="4" height="4.1"/>
				
					<rect x="174.4" y="166.1" transform="matrix(0.5277 -0.8494 0.8494 0.5277 -59.5001 229.2536)" class="st2" width="4" height="4.1"/>
				
					<rect x="189.8" y="175.6" transform="matrix(0.5277 -0.8494 0.8494 0.5277 -60.353 246.8237)" class="st2" width="4" height="4.1"/>
				
					<rect x="206" y="185.8" transform="matrix(0.5277 -0.8494 0.8494 0.5277 -61.3501 265.3598)" class="st2" width="4" height="4.1"/>
				
					<rect x="221.1" y="195.2" transform="matrix(0.5277 -0.8494 0.8494 0.5277 -62.1888 282.6387)" class="st2" width="4" height="4.1"/>
				
					<rect x="236.5" y="204.8" transform="matrix(0.5277 -0.8494 0.8494 0.5277 -63.0464 300.3059)" class="st2" width="4" height="4.1"/>
				
					<rect x="251.7" y="214.2" transform="matrix(0.5277 -0.8494 0.8494 0.5277 -63.8899 317.6818)" class="st2" width="4" height="4.1"/>
				
					<rect x="267" y="223.7" transform="matrix(0.5277 -0.8494 0.8494 0.5277 -64.7381 335.1548)" class="st2" width="4" height="4.1"/>
				
					<rect x="282.3" y="233.2" transform="matrix(0.5277 -0.8494 0.8494 0.5277 -65.5863 352.6279)" class="st2" width="4" height="4.1"/>
				
					<rect x="297.7" y="242.8" transform="matrix(0.5277 -0.8494 0.8494 0.5277 -66.4391 370.198)" class="st2" width="4" height="4.1"/>
				
					<rect x="312.8" y="252.3" transform="matrix(0.5277 -0.8494 0.8494 0.5277 -67.3797 387.5692)" class="st2" width="4" height="4.1"/>
				
					<rect x="326.4" y="260.8" transform="matrix(0.5277 -0.8494 0.8494 0.5277 -68.1336 403.1008)" class="st2" width="4" height="4.1"/>
			</g>
			<g>
				
					<rect x="134.2" y="162.9" transform="matrix(0.5277 -0.8494 0.8494 0.5277 -75.7715 193.63)" class="st2" width="4" height="4.1"/>
				
					<rect x="149.4" y="172.4" transform="matrix(0.5277 -0.8494 0.8494 0.5277 -76.615 211.0059)" class="st2" width="4" height="4.1"/>
				
					<rect x="164.7" y="181.8" transform="matrix(0.5277 -0.8494 0.8494 0.5277 -77.4585 228.3819)" class="st2" width="4" height="4.1"/>
				
					<rect x="180" y="191.4" transform="matrix(0.5277 -0.8494 0.8494 0.5277 -78.3114 245.952)" class="st2" width="4" height="4.1"/>
				
					<rect x="196.2" y="201.5" transform="matrix(0.5277 -0.8494 0.8494 0.5277 -79.3085 264.4881)" class="st2" width="4" height="4.1"/>
				
					<rect x="211.3" y="210.9" transform="matrix(0.5277 -0.8494 0.8494 0.5277 -80.1472 281.767)" class="st2" width="4" height="4.1"/>
				
					<rect x="226.8" y="220.5" transform="matrix(0.5277 -0.8494 0.8494 0.5277 -81.0048 299.4341)" class="st2" width="4" height="4.1"/>
				
					<rect x="242" y="230" transform="matrix(0.5277 -0.8494 0.8494 0.5277 -81.8483 316.8101)" class="st2" width="4" height="4.1"/>
				
					<rect x="257.3" y="239.5" transform="matrix(0.5277 -0.8494 0.8494 0.5277 -82.6965 334.2831)" class="st2" width="4" height="4.1"/>
				
					<rect x="272.6" y="249" transform="matrix(0.5277 -0.8494 0.8494 0.5277 -83.5446 351.7561)" class="st2" width="4" height="4.1"/>
				
					<rect x="287.9" y="258.5" transform="matrix(0.5277 -0.8494 0.8494 0.5277 -84.3975 369.3262)" class="st2" width="4" height="4.1"/>
				
					<rect x="303.1" y="268" transform="matrix(0.5277 -0.8494 0.8494 0.5277 -85.3381 386.6975)" class="st2" width="4" height="4.1"/>
				
					<rect x="316.7" y="276.5" transform="matrix(0.5277 -0.8494 0.8494 0.5277 -86.092 402.2291)" class="st2" width="4" height="4.1"/>
			</g>
			<g>
				
					<rect x="163.5" y="115.8" transform="matrix(0.5277 -0.8494 0.8494 0.5277 -21.8964 196.2452)" class="st2" width="4" height="4.1"/>
				
					<rect x="178.7" y="125.2" transform="matrix(0.5277 -0.8494 0.8494 0.5277 -22.7398 213.6212)" class="st2" width="4" height="4.1"/>
				
					<rect x="193.9" y="134.7" transform="matrix(0.5277 -0.8494 0.8494 0.5277 -23.5833 230.9971)" class="st2" width="4" height="4.1"/>
				
					<rect x="209.3" y="144.2" transform="matrix(0.5277 -0.8494 0.8494 0.5277 -24.4362 248.5672)" class="st2" width="4" height="4.1"/>
				
					<rect x="225.5" y="154.4" transform="matrix(0.5277 -0.8494 0.8494 0.5277 -25.4333 267.1033)" class="st2" width="4" height="4.1"/>
				
					<rect x="240.6" y="163.8" transform="matrix(0.5277 -0.8494 0.8494 0.5277 -26.2721 284.3822)" class="st2" width="4" height="4.1"/>
				
					<rect x="256.1" y="173.4" transform="matrix(0.5277 -0.8494 0.8494 0.5277 -27.1297 302.0494)" class="st2" width="4" height="4.1"/>
				
					<rect x="271.3" y="182.8" transform="matrix(0.5277 -0.8494 0.8494 0.5277 -27.9731 319.4253)" class="st2" width="4" height="4.1"/>
				
					<rect x="286.6" y="192.3" transform="matrix(0.5277 -0.8494 0.8494 0.5277 -28.8213 336.8983)" class="st2" width="4" height="4.1"/>
				
					<rect x="301.9" y="201.8" transform="matrix(0.5277 -0.8494 0.8494 0.5277 -29.6695 354.3714)" class="st2" width="4" height="4.1"/>
				
					<rect x="317.2" y="211.4" transform="matrix(0.5277 -0.8494 0.8494 0.5277 -30.5224 371.9415)" class="st2" width="4" height="4.1"/>
				
					<rect x="332.4" y="220.9" transform="matrix(0.5277 -0.8494 0.8494 0.5277 -31.4629 389.3127)" class="st2" width="4" height="4.1"/>
				
					<rect x="346" y="229.3" transform="matrix(0.5277 -0.8494 0.8494 0.5277 -32.2169 404.8443)" class="st2" width="4" height="4.1"/>
			</g>
			<g>
				
					<rect x="153.8" y="131.5" transform="matrix(0.5277 -0.8494 0.8494 0.5277 -39.8548 195.3735)" class="st2" width="4" height="4.1"/>
				
					<rect x="169" y="140.9" transform="matrix(0.5277 -0.8494 0.8494 0.5277 -40.6982 212.7494)" class="st2" width="4" height="4.1"/>
				
					<rect x="184.2" y="150.4" transform="matrix(0.5277 -0.8494 0.8494 0.5277 -41.5417 230.1254)" class="st2" width="4" height="4.1"/>
				
					<rect x="199.6" y="159.9" transform="matrix(0.5277 -0.8494 0.8494 0.5277 -42.3946 247.6955)" class="st2" width="4" height="4.1"/>
				
					<rect x="215.7" y="170.1" transform="matrix(0.5277 -0.8494 0.8494 0.5277 -43.3917 266.2316)" class="st2" width="4" height="4.1"/>
				
					<rect x="230.8" y="179.5" transform="matrix(0.5277 -0.8494 0.8494 0.5277 -44.2304 283.5105)" class="st2" width="4" height="4.1"/>
				
					<rect x="246.3" y="189.1" transform="matrix(0.5277 -0.8494 0.8494 0.5277 -45.088 301.1776)" class="st2" width="4" height="4.1"/>
				
					<rect x="261.5" y="198.5" transform="matrix(0.5277 -0.8494 0.8494 0.5277 -45.9315 318.5536)" class="st2" width="4" height="4.1"/>
				
					<rect x="276.8" y="208" transform="matrix(0.5277 -0.8494 0.8494 0.5277 -46.7797 336.0266)" class="st2" width="4" height="4.1"/>
				
					<rect x="292.1" y="217.5" transform="matrix(0.5277 -0.8494 0.8494 0.5277 -47.6279 353.4996)" class="st2" width="4" height="4.1"/>
				
					<rect x="307.5" y="227.1" transform="matrix(0.5277 -0.8494 0.8494 0.5277 -48.4808 371.0697)" class="st2" width="4" height="4.1"/>
				
					<rect x="322.6" y="236.6" transform="matrix(0.5277 -0.8494 0.8494 0.5277 -49.4213 388.4409)" class="st2" width="4" height="4.1"/>
				
					<rect x="336.2" y="245.1" transform="matrix(0.5277 -0.8494 0.8494 0.5277 -50.1752 403.9725)" class="st2" width="4" height="4.1"/>
			</g>
		</g>
	</g>
</g>
</svg>
